<svg width="280" height="280" viewBox="0 0 280 280" fill="none" xmlns="http://www.w3.org/2000/svg">
<rect width="280" height="280" rx="140" fill="#070707"/>
<path fill-rule="evenodd" clip-rule="evenodd" d="M91.52 58.0742L80.1623 77.5882L114.47 136.596H133.299L99.0247 77.5882L110.349 58.0742H91.52ZM182.75 58.0742H163.921L142.881 94.2717L152.296 110.489L182.75 58.0742ZM176.887 113.786L197.927 77.5884L188.513 61.3712L158.058 113.786H176.887ZM148.476 117.083L139.062 133.3L106.698 77.5884L116.112 61.3712L148.476 117.083ZM55.3031 120.412H97.3498L106.764 136.629H45.8887L55.3031 120.412ZM45.8887 143.223L55.3031 159.441H97.3498L106.764 143.223H45.8887ZM114.47 143.223H133.299L100.935 198.935H82.1057L114.47 143.223ZM91.4868 221.746H114.169L148.442 162.737L139.028 146.52L104.754 205.528H82.0723L91.4868 221.746ZM163.921 221.745L142.881 185.547L152.296 169.33L182.75 221.745H163.921ZM188.513 218.449L197.927 202.232L176.887 166.034H158.058L188.513 218.449ZM154.239 159.441L144.824 143.223H209.553L218.967 159.441H154.239ZM213.071 136.597H213.372L224.697 156.111L234.111 139.893L222.787 120.379H154.239L144.824 136.597H213.071Z" fill="white"/>
</svg>