<?xml version="1.0" encoding="UTF-8"?>
<svg version="1.1" xmlns="http://www.w3.org/2000/svg" width="488" height="488">
<path d="M0 0 C52.14 0 104.28 0 158 0 C158 52.47 158 104.94 158 159 C105.86 159 53.72 159 0 159 C0 106.53 0 54.06 0 0 Z M23 23 C23 60.29 23 97.58 23 136 C59.96 136 96.92 136 135 136 C135 98.71 135 61.42 135 23 C98.04 23 61.08 23 23 23 Z " fill="#3B6BCA" transform="translate(162,158)"/>
<path d="M0 0 C52.14 0 104.28 0 158 0 C157.09925436 4.50372819 156.20615657 6.77433552 153.96484375 10.62890625 C153.32869141 11.73169922 152.69253906 12.83449219 152.03710938 13.97070312 C151.33729528 15.1680013 150.63742389 16.365266 149.9375 17.5625 C149.21214604 18.8153244 148.48754952 20.06858763 147.76367188 21.32226562 C146.25927818 23.92635289 144.75164289 26.52852171 143.24169922 29.12939453 C139.79718533 35.06876747 136.40106838 41.03567298 133 47 C131.67109249 49.3271199 130.34143475 51.65381074 129.01171875 53.98046875 C128.51753448 54.84534409 128.51753448 54.84534409 128.0133667 55.72769165 C125.98434678 59.27850747 123.95410524 62.82862217 121.92303467 66.37826538 C120.21915653 69.35613394 118.51575979 72.33427772 116.8125 75.3125 C116.31124603 76.18884094 116.31124603 76.18884094 115.79986572 77.08288574 C110.77209793 85.87484745 105.78542083 94.68934783 100.81860352 103.51586914 C96.11006869 111.85836467 91.27749757 120.12703531 86.40380859 128.37402344 C85.84258301 129.32825195 85.28135742 130.28248047 84.703125 131.265625 C84.20458008 132.10899414 83.70603516 132.95236328 83.19238281 133.82128906 C81.87786993 136.0696339 81.87786993 136.0696339 81 139 C79.68 139 78.36 139 77 139 C76.6189209 138.30777344 76.2378418 137.61554688 75.84521484 136.90234375 C68.44882778 123.48409987 60.96788125 110.13326746 53.20263672 96.92382812 C48.43537355 88.79577167 43.82912311 80.58438119 39.24755859 72.35058594 C34.71958971 64.23381987 30.05043147 56.20723637 25.34008789 48.1953125 C20.09590476 39.24021253 15.05571558 30.17825962 10.06079102 21.08251953 C7.16327644 15.82058546 4.2576257 10.65246037 0.84985352 5.70117188 C0 4 0 4 0 0 Z M44 27 C45.43613908 31.30841724 46.52706093 34.21065872 48.765625 37.95703125 C49.59634521 39.36094116 49.59634521 39.36094116 50.44384766 40.79321289 C51.03987793 41.78957764 51.6359082 42.78594238 52.25 43.8125 C59.21585432 55.59462517 65.9267275 67.50634137 72.58300781 79.46533203 C74.36691351 82.65632255 76.17762599 85.83084715 78 89 C81.08908591 86.14647986 83.10751624 83.37735057 85.109375 79.6875 C85.69187012 78.62466797 86.27436523 77.56183594 86.87451172 76.46679688 C87.49342285 75.32275391 88.11233398 74.17871094 88.75 73 C90.07714904 70.57094854 91.40950894 68.1447712 92.7421875 65.71875 C93.25720322 64.77920471 93.25720322 64.77920471 93.78262329 63.82067871 C98.06000838 56.03633467 102.49797324 48.34326443 106.94226074 40.65332031 C107.94018301 38.92634967 108.93500602 37.19758926 109.9296875 35.46875 C110.49929199 34.48326172 111.06889648 33.49777344 111.65576172 32.48242188 C113.10217874 29.98289797 113.10217874 29.98289797 114 27 C90.9 27 67.8 27 44 27 Z " fill="#3B6CCA" transform="translate(162,330)"/>
<path d="M0 0 C1.32 0 2.64 0 4 0 C4.28697754 0.59498291 4.57395508 1.18996582 4.86962891 1.80297852 C8.08614605 8.36541292 11.64554623 14.65542351 15.375 20.9375 C20.54786812 29.72203056 25.57777415 38.57272926 30.5 47.5 C35.80174186 57.10833697 41.23961449 66.62179926 46.80078125 76.08203125 C51.55725426 84.19160348 56.15831032 92.38157369 60.72167969 100.60107422 C63.73795841 106.01724683 66.8033789 111.39683189 69.95703125 116.734375 C70.60220703 117.82685547 71.24738281 118.91933594 71.91210938 120.04492188 C73.15043567 122.13340436 74.39493451 124.2182431 75.64648438 126.29882812 C76.20271484 127.23662109 76.75894531 128.17441406 77.33203125 129.140625 C78.07030151 130.37087402 78.07030151 130.37087402 78.82348633 131.62597656 C80 134 80 134 81 139 C28.86 139 -23.28 139 -77 139 C-76.16441747 133.9865048 -75.77117682 132.08159332 -73.33203125 128.04296875 C-72.77580078 127.10839844 -72.21957031 126.17382812 -71.64648438 125.2109375 C-71.04126953 124.21320313 -70.43605469 123.21546875 -69.8125 122.1875 C-68.52534601 120.02592793 -67.24025053 117.86312898 -65.95703125 115.69921875 C-65.29783691 114.58981934 -64.63864258 113.48041992 -63.95947266 112.33740234 C-60.88770606 107.10552478 -57.94319828 101.80493645 -55 96.5 C-49.86502291 87.26995942 -44.59785621 78.12759886 -39.25 69.01953125 C-34.47721687 60.86957791 -29.85931739 52.63919588 -25.26757812 44.38623047 C-20.55327156 35.93468256 -15.70645464 27.5657005 -10.79296875 19.22851562 C-7.06393095 12.88737139 -3.4849318 6.47851962 0 0 Z M1 50 C0.4738208 50.94746094 0.4738208 50.94746094 -0.06298828 51.9140625 C-7.27739068 64.8892365 -14.56226449 77.80808271 -22.11572266 90.58984375 C-26.26966011 97.64618793 -30.10910518 104.77405249 -34 112 C-10.57 112 12.86 112 37 112 C35.53223527 108.33058818 34.08247516 105.18873692 32.1640625 101.78125 C31.60009766 100.77650635 31.03613281 99.7717627 30.45507812 98.73657227 C29.54918945 97.13446899 29.54918945 97.13446899 28.625 95.5 C27.69204102 93.84278931 27.69204102 93.84278931 26.74023438 92.15209961 C24.83126861 88.76553025 22.91687126 85.38210022 21 82 C20.42733398 80.98953613 19.85466797 79.97907227 19.26464844 78.93798828 C17.67926378 76.14453488 16.09078336 73.35288211 14.5 70.5625 C14.03287598 69.74265625 13.56575195 68.9228125 13.08447266 68.078125 C11.73150504 65.71369679 10.36833741 63.35556394 9 61 C8.47019531 60.08202637 7.94039062 59.16405273 7.39453125 58.21826172 C6.86214844 57.30963379 6.32976562 56.40100586 5.78125 55.46484375 C5.29720703 54.63460693 4.81316406 53.80437012 4.31445312 52.94897461 C3.14205458 50.86624388 3.14205458 50.86624388 1 50 Z " fill="#3B6CCA" transform="translate(239,6)"/>
<path d="M0 0 C0 52.47 0 104.94 0 159 C-4.50372819 158.09925436 -6.77433552 157.20615657 -10.62890625 154.96484375 C-11.73186035 154.32861084 -12.83481445 153.69237793 -13.97119141 153.03686523 C-15.16833434 152.33714537 -16.36543607 151.63735501 -17.5625 150.9375 C-18.81386328 150.212885 -20.06566152 149.48902067 -21.31787109 148.76586914 C-23.9204548 147.26214171 -26.52113416 145.75519456 -29.12060547 144.24609375 C-35.10328059 140.77703331 -41.11625213 137.36111346 -47.125 133.9375 C-57.17003135 128.20440024 -67.19325302 122.4339847 -77.20703125 116.64648438 C-83.98310071 112.73279093 -90.77135948 108.84104448 -97.56933594 104.96557617 C-102.22793243 102.3095954 -106.88063329 99.64333319 -111.53417969 96.97851562 C-114.46706228 95.30423551 -117.40470532 93.63901864 -120.3453064 91.9783783 C-123.15175789 90.38998693 -125.95010408 88.78741052 -128.75 87.1875 C-129.78656738 86.60669678 -130.82313477 86.02589355 -131.89111328 85.42749023 C-132.82938965 84.88809814 -133.76766602 84.34870605 -134.734375 83.79296875 C-135.56163086 83.3239917 -136.38888672 82.85501465 -137.24121094 82.37182617 C-137.82161133 81.91912354 -138.40201172 81.4664209 -139 81 C-139 80.01 -139 79.02 -139 78 C-138.26136719 77.64083496 -137.52273437 77.28166992 -136.76171875 76.91162109 C-129.66309315 73.4175549 -122.80154294 69.66261129 -116 65.625 C-113.89127156 64.38431708 -111.78186867 63.14477996 -109.671875 61.90625 C-108.58068359 61.26558594 -107.48949219 60.62492187 -106.36523438 59.96484375 C-100.68206033 56.64663534 -94.96698797 53.38448712 -89.25 50.125 C-88.66686035 49.79236145 -88.0837207 49.4597229 -87.48291016 49.11700439 C-84.51045036 47.42144778 -81.53758726 45.72660042 -78.56445312 44.03222656 C-75.03639938 42.02126004 -71.51009943 40.00723457 -67.984375 37.9921875 C-67.4072728 37.66236374 -66.83017059 37.33253998 -66.23558044 36.99272156 C-63.3334477 35.33397989 -60.43147312 33.6749618 -57.52954102 32.01586914 C-52.16082778 28.94685459 -46.79101883 25.87981993 -41.41673279 22.8205719 C-38.33971845 21.06893966 -35.26347286 19.31596038 -32.1875 17.5625 C-31.59736115 17.22620575 -31.00722229 16.8899115 -30.39920044 16.54342651 C-22.39110316 11.97696113 -14.44250124 7.33278664 -6.58984375 2.50390625 C-2.27792208 0 -2.27792208 0 0 0 Z M-34.07421875 47.82421875 C-35.12351563 48.43467041 -36.1728125 49.04512207 -37.25390625 49.67407227 C-38.38699219 50.33850342 -39.52007812 51.00293457 -40.6875 51.6875 C-43.05479166 53.06716651 -45.42388877 54.44371963 -47.79296875 55.8203125 C-48.39442719 56.17031815 -48.99588562 56.52032379 -49.61557007 56.88093567 C-56.45888864 60.85847614 -63.35628935 64.7394274 -70.26049805 68.61010742 C-72.84596797 70.06376325 -75.42473411 71.52834939 -78 73 C-78.94875 73.53866699 -79.8975 74.07733398 -80.875 74.63232422 C-81.7928125 75.16486816 -82.710625 75.69741211 -83.65625 76.24609375 C-84.48962891 76.72618896 -85.32300781 77.20628418 -86.18164062 77.70092773 C-87.08172852 78.34396851 -87.08172852 78.34396851 -88 79 C-88 79.66 -88 80.32 -88 81 C-87.05253906 81.5261792 -87.05253906 81.5261792 -86.0859375 82.06298828 C-73.07507887 89.2972319 -60.11885002 96.59501019 -47.32226562 104.20361328 C-40.64969474 108.14127414 -33.97264488 111.51367756 -27 115 C-27 91.9 -27 68.8 -27 45 C-29.90894508 45 -31.56899389 46.35805717 -34.07421875 47.82421875 Z " fill="#3B6CCA" transform="translate(149,157)"/>
<path d="M0 0 C4.28704193 0.85740839 6.45433327 1.59425939 10.11328125 3.66796875 C11.59501831 4.50207275 11.59501831 4.50207275 13.10668945 5.35302734 C14.16460693 5.95840332 15.22252441 6.5637793 16.3125 7.1875 C17.42262451 7.8160791 18.53274902 8.4446582 19.67651367 9.09228516 C28.08079477 13.86532183 36.43536139 18.72337345 44.77368164 23.6105957 C52.40445919 28.08142095 60.06815291 32.49269103 67.75 36.875 C68.33431793 37.20836365 68.91863586 37.54172729 69.5206604 37.88519287 C72.4919198 39.5800349 75.46363272 41.27407984 78.43554688 42.96777344 C83.71349801 45.97616951 88.98747133 48.99152586 94.26171875 52.00640869 C97.13785707 53.65039239 100.01425655 55.29391899 102.890625 56.9375 C104.05273563 57.6015603 105.21484499 58.26562282 106.37695312 58.9296875 C106.96516846 59.26581055 107.55338379 59.60193359 108.15942383 59.94824219 C109.42293294 60.6702474 110.68644206 61.3922526 111.94995117 62.11425781 C112.610354 62.49163086 113.27075684 62.86900391 113.95117188 63.2578125 C115.95609538 64.40348307 117.96101888 65.54915365 119.96594238 66.69482422 C120.93412903 67.24807373 120.93412903 67.24807373 121.921875 67.8125 C123.82682292 68.90104167 125.73177083 69.98958333 127.63671875 71.078125 C128.24128906 71.42359375 128.84585938 71.7690625 129.46875 72.125 C132.3125 73.75 135.15625 75.375 138 77 C138 78.32 138 79.64 138 81 C137.30777344 81.3810791 136.61554688 81.7621582 135.90234375 82.15478516 C122.48929783 89.54830701 109.1430443 97.02548768 95.93920898 104.78857422 C88.69798656 109.03613498 81.39697501 113.16581058 74.0625 117.25 C66.57002592 121.42326185 59.12016512 125.64738995 51.74707031 130.02783203 C41.4089557 136.15384671 30.94396076 142.06723275 20.49462891 148.00097656 C18.02724796 149.4060239 15.57413094 150.83335823 13.12646484 152.27246094 C12.49044846 152.6436203 11.85443207 153.01477966 11.19914246 153.39718628 C9.97592289 154.11157637 8.75563702 154.83102063 7.53877258 155.55618286 C4.7834872 157.15872393 3.24919832 158 0 158 C0 105.86 0 53.72 0 0 Z M27 44 C27 67.1 27 90.2 27 114 C35.70487247 109.64756377 44.11330519 105.33199213 52.4375 100.375 C64.20885299 93.43413006 76.08347139 86.68791631 88 80 C88 79.34 88 78.68 88 78 C87.29842773 77.59910156 86.59685547 77.19820312 85.87402344 76.78515625 C83.7370305 75.56401743 81.60007098 74.34282011 79.46313477 73.12158203 C76.9665426 71.6949223 74.46959688 70.26888389 71.97241211 68.84326172 C65.98816605 65.42624235 60.00572713 62.00627032 54.03341675 58.56842041 C51.48882167 57.10389438 48.94288455 55.64171028 46.39685059 54.1796875 C45.17994949 53.48001188 43.96371446 52.77917647 42.74816895 52.07714844 C41.04345074 51.0927486 39.33622677 50.11269199 37.62890625 49.1328125 C36.66025635 48.57480957 35.69160645 48.01680664 34.69360352 47.44189453 C31.6815004 45.76553639 31.6815004 45.76553639 27 44 Z " fill="#3B6BCA" transform="translate(333,158)"/>
<path d="M0 0 C38.28 0 76.56 0 116 0 C116.82185406 3.28741624 117.11687959 5.46627177 117.08901978 8.76420593 C117.08342545 9.71905884 117.07783112 10.67391174 117.07206726 11.65769958 C117.06069229 12.69838089 117.04931732 13.73906219 117.03759766 14.8112793 C117.02559578 16.46297623 117.02559578 16.46297623 117.01335144 18.14804077 C116.98545441 21.79016345 116.94998798 25.43216705 116.9140625 29.07421875 C116.8922989 31.59959147 116.87084912 34.1249669 116.84970093 36.65034485 C116.80419817 41.9421453 116.75507022 47.23389499 116.703125 52.52563477 C116.64306723 58.6502328 116.59031773 64.77486174 116.54135668 70.89955777 C116.49408139 76.78785144 116.44124494 82.67608538 116.38599777 88.56431007 C116.36302497 91.07265758 116.34152483 93.581019 116.32149124 96.08939171 C116.29284917 99.5852949 116.25789506 103.08107775 116.22119141 106.5769043 C116.2138649 107.62365829 116.20653839 108.67041229 116.19898987 109.74888611 C116.18775589 110.69527954 116.17652191 111.64167297 116.16494751 112.616745 C116.15719614 113.44392879 116.14944477 114.27111258 116.14145851 115.12336254 C116 117 116 117 115 118 C113.50716202 118.09571971 112.00980345 118.12188227 110.51390076 118.12025452 C109.06343306 118.12232076 109.06343306 118.12232076 107.58366299 118.12442875 C106.50989942 118.12083064 105.43613585 118.11723253 104.32983398 118.11352539 C103.1898121 118.11364593 102.04979021 118.11376646 100.87522221 118.11389065 C97.16549323 118.11314109 93.4558138 118.10551092 89.74609375 118.09765625 C87.4635826 118.09618696 85.18107112 118.09516617 82.89855957 118.09460449 C74.41153459 118.08935007 65.92451682 118.07538901 57.4375 118.0625 C29.0059375 118.0315625 29.0059375 118.0315625 0 118 C0 79.06 0 40.12 0 0 Z M2 3 C2 40.29 2 77.58 2 116 C38.96 116 75.92 116 114 116 C114 78.71 114 41.42 114 3 C77.04 3 40.08 3 2 3 Z " fill="#5F85D5" transform="translate(183,178)"/>
<path d="M0 0 C0.99 0.33 1.98 0.66 3 1 C2.67 1.33 2.34 1.66 2 2 C1.89103629 3.98660977 1.85309514 5.97712642 1.84178162 7.96669006 C1.8319928 9.26384445 1.82220398 10.56099884 1.81211853 11.89746094 C1.80621356 13.3483883 1.80040316 14.79931606 1.79467773 16.25024414 C1.7851047 17.76761648 1.77509497 19.28498612 1.76467896 20.80235291 C1.73756149 24.9343761 1.7165891 29.06641081 1.69667697 33.19847417 C1.67485946 37.51201189 1.64745012 41.82551389 1.62062073 46.13902283 C1.57063639 54.31297526 1.52571894 62.48694747 1.48259836 70.66093868 C1.42406007 81.70242406 1.35774248 92.7438625 1.29184818 103.78530598 C1.18818372 121.19017239 1.0949543 138.59507884 1 156 C51.16 155.67 101.32 155.34 153 155 C153.33 103.85 153.66 52.7 154 0 C154.66 0 155.32 0 156 0 C156 51.81 156 103.62 156 157 C104.52 157 53.04 157 0 157 C0 105.19 0 53.38 0 0 Z " fill="#4272CF" transform="translate(163,159)"/>
<path d="M0 0 C4.47851553 0.89570311 5.77175056 1.25000973 9 4 C7.02 4 5.04 4 3 4 C3 53.5 3 103 3 154 C3.99 154.33 4.98 154.66 6 155 C6 154.34 6 153.68 6 153 C7.32 153.33 8.64 153.66 10 154 C3.375 158 3.375 158 0 158 C0 105.86 0 53.72 0 0 Z " fill="#4F7ACC" transform="translate(333,158)"/>
<path d="M0 0 C0.99 0 1.98 0 3 0 C3 24.75 3 49.5 3 75 C1.35 74.67 -0.3 74.34 -2 74 C-2 73.34 -2 72.68 -2 72 C-1.34 72 -0.68 72 0 72 C0.33 49.23 0.66 26.46 1 3 C-3.95 5.475 -3.95 5.475 -9 8 C-9.99 7.34 -10.98 6.68 -12 6 C-11.30132812 5.73445312 -10.60265625 5.46890625 -9.8828125 5.1953125 C-8.97273438 4.84210938 -8.06265625 4.48890625 -7.125 4.125 C-6.22007813 3.77695313 -5.31515625 3.42890625 -4.3828125 3.0703125 C-1.87782993 2.11469105 -1.87782993 2.11469105 0 0 Z " fill="#517CCF" transform="translate(121,199)"/>
<path d="M0 0 C0.66 0.33 1.32 0.66 2 1 C0.4375 2.171875 -1.125 3.34375 -2.6875 4.515625 C-4.44160248 6.1691947 -4.44160248 6.1691947 -4 10 C-3.01 10 -2.02 10 -1 10 C-1 10.66 -1 11.32 -1 12 C1.97 12.495 1.97 12.495 5 13 C5.33 13.99 5.66 14.98 6 16 C6.68449219 16.09152344 7.36898438 16.18304688 8.07421875 16.27734375 C11.70056363 17.17303641 14.55047308 18.75026282 17.8125 20.5625 C18.40998047 20.89185547 19.00746094 21.22121094 19.62304688 21.56054688 C21.08533998 22.36773267 22.5431399 23.18304917 24 24 C24 24.66 24 25.32 24 26 C26.31 26.66 28.62 27.32 31 28 C31 28.66 31 29.32 31 30 C31.78375 30.144375 32.5675 30.28875 33.375 30.4375 C36 31 36 31 38 32 C38 32.66 38 33.32 38 34 C38.99 34 39.98 34 41 34 C41 34.66 41 35.32 41 36 C42.32 36 43.64 36 45 36 C45 36.66 45 37.32 45 38 C45.99 38 46.98 38 48 38 C47.67 38.99 47.34 39.98 47 41 C46.40388916 40.64921387 45.80777832 40.29842773 45.19360352 39.93701172 C32.33390278 32.37910669 19.4272373 24.93391893 6.37719727 17.70849609 C3.57649208 16.15313693 0.78504139 14.5832129 -2 13 C-2.82242187 12.53609863 -3.64484375 12.07219727 -4.4921875 11.59423828 C-6.38202759 10.48312835 -8.20100673 9.25287031 -10 8 C-10 7.01 -10 6.02 -10 5 C-8.38007835 4.13624104 -6.75388139 3.28424146 -5.125 2.4375 C-4.22007813 1.96183594 -3.31515625 1.48617187 -2.3828125 0.99609375 C-1.20332031 0.50302734 -1.20332031 0.50302734 0 0 Z " fill="#537CD0" transform="translate(20,230)"/>
<path d="M0 0 C0.66 0.33 1.32 0.66 2 1 C-5.12598083 13.83134811 -12.30560515 26.62651903 -19.6875 39.3125 C-20.2748291 40.32505859 -20.8621582 41.33761719 -21.46728516 42.38085938 C-22.01819824 43.32380859 -22.56911133 44.26675781 -23.13671875 45.23828125 C-23.61842529 46.06368408 -24.10013184 46.88908691 -24.59643555 47.73950195 C-25.95543306 49.92822312 -27.42133027 51.96561374 -29 54 C-29.46920144 49.31667454 -28.00634157 46.66774234 -25.625 42.6875 C-24.99851562 41.61886719 -24.37203125 40.55023438 -23.7265625 39.44921875 C-23.15679687 38.64097656 -22.58703125 37.83273437 -22 37 C-21.34 37 -20.68 37 -20 37 C-19.67 35.35 -19.34 33.7 -19 32 C-18.34 32 -17.68 32 -17 32 C-17 30.68 -17 29.36 -17 28 C-16.34 28 -15.68 28 -15 28 C-14.67 26.35 -14.34 24.7 -14 23 C-13.34 23 -12.68 23 -12 23 C-11.896875 22.29875 -11.79375 21.5975 -11.6875 20.875 C-10.48568135 15.84921293 -7.88632429 11.26674025 -5 7 C-4.34 7 -3.68 7 -3 7 C-2.67 5.35 -2.34 3.7 -2 2 C-1.34 2 -0.68 2 0 2 C0 1.34 0 0.68 0 0 Z " fill="#5680D0" transform="translate(306,353)"/>
<path d="M0 0 C0.66 0 1.32 0 2 0 C0.125 5.875 0.125 5.875 -1 7 C22.1 7.33 45.2 7.66 69 8 C68.505 6.515 68.505 6.515 68 5 C68.66 5 69.32 5 70 5 C70 6.32 70 7.64 70 9 C45.58 9 21.16 9 -4 9 C-3.67 7.68 -3.34 6.36 -3 5 C-2.34 5 -1.68 5 -1 5 C-0.67 3.35 -0.34 1.7 0 0 Z " fill="#587ED0" transform="translate(207,110)"/>
<path d="M0 0 C0.99 0.33 1.98 0.66 3 1 C3 2.32 3 3.64 3 5 C-0.77136206 7.10070814 -4.54335157 9.20028392 -8.31591797 11.29882812 C-9.59831626 12.01238678 -10.88054478 12.72625063 -12.16259766 13.44042969 C-14.00899052 14.46890919 -15.8559979 15.4962774 -17.703125 16.5234375 C-18.81333008 17.14138184 -19.92353516 17.75932617 -21.06738281 18.39599609 C-23.35849059 19.64912447 -25.65303607 20.85647928 -28 22 C-28.66 21.34 -29.32 20.68 -30 20 C-26.33708062 17.52214277 -23.3890815 16.51035831 -19 16 C-19 15.34 -19 14.68 -19 14 C-18.01 14 -17.02 14 -16 14 C-16 13.34 -16 12.68 -16 12 C-14.35 11.67 -12.7 11.34 -11 11 C-11 10.34 -11 9.68 -11 9 C-4.5 5 -4.5 5 0 5 C0 3.35 0 1.7 0 0 Z " fill="#5882D4" transform="translate(468,234)"/>
<path d="M0 0 C-3.83087812 2.25419968 -7.66513495 4.50259071 -11.5 6.75 C-12.57765625 7.38421875 -13.6553125 8.0184375 -14.765625 8.671875 C-20.42710389 11.98591142 -26.08662792 15.15813672 -32 18 C-32 17.01 -32 16.02 -32 15 C-29 13 -29 13 -25 13 C-25 12.34 -25 11.68 -25 11 C-22.69 10.34 -20.38 9.68 -18 9 C-18 8.34 -18 7.68 -18 7 C-16.35 6.67 -14.7 6.34 -13 6 C-13 5.34 -13 4.68 -13 4 C-12.01 4 -11.02 4 -10 4 C-10 3.34 -10 2.68 -10 2 C-3.375 -1.125 -3.375 -1.125 0 0 Z " fill="#6088D5" transform="translate(376,293)"/>
<path d="M0 0 C-9.24 5.28 -18.48 10.56 -28 16 C-28.33 15.01 -28.66 14.02 -29 13 C-28.40832031 12.67386719 -27.81664062 12.34773438 -27.20703125 12.01171875 C-26.41683594 11.57472656 -25.62664062 11.13773437 -24.8125 10.6875 C-23.57886719 10.006875 -23.57886719 10.006875 -22.3203125 9.3125 C-20.57682335 8.32628392 -18.87124091 7.27257747 -17.1875 6.1875 C-15 5 -15 5 -11 5 C-11 4.34 -11 3.68 -11 3 C-4.5 -1.125 -4.5 -1.125 0 0 Z " fill="#5A81CF" transform="translate(439,257)"/>
<path d="M0 0 C0.66 0.33 1.32 0.66 2 1 C-0.09605379 4.77539797 -2.20321584 8.54448015 -4.3125 12.3125 C-4.90740234 13.38435547 -5.50230469 14.45621094 -6.11523438 15.56054688 C-6.69208984 16.58857422 -7.26894531 17.61660156 -7.86328125 18.67578125 C-8.65665894 20.0975769 -8.65665894 20.0975769 -9.46606445 21.5480957 C-10.81973126 23.7118512 -12.10916139 25.30741445 -14 27 C-14 25.68 -14 24.36 -14 23 C-13.34 23 -12.68 23 -12 23 C-11.9175 22.319375 -11.835 21.63875 -11.75 20.9375 C-10.77667472 17.1253093 -9.04192545 14.35929671 -7 11 C-6.34 11 -5.68 11 -5 11 C-4.87625 10.2575 -4.7525 9.515 -4.625 8.75 C-4.04513299 6.19858515 -3.26291261 4.2732427 -2 2 C-1.34 2 -0.68 2 0 2 C0 1.34 0 0.68 0 0 Z " fill="#5A83D2" transform="translate(273,411)"/>
<path d="M0 0 C1.32 0.33 2.64 0.66 4 1 C-3.26 5.29 -10.52 9.58 -18 14 C-18.66 13.34 -19.32 12.68 -20 12 C-17 10 -17 10 -14 10 C-13.67 9.01 -13.34 8.02 -13 7 C-10.8203125 5.61328125 -10.8203125 5.61328125 -8.125 4.3125 C-7.24070312 3.87550781 -6.35640625 3.43851562 -5.4453125 2.98828125 C-3 2 -3 2 0 2 C0 1.34 0 0.68 0 0 Z " fill="#5A81D4" transform="translate(398,277)"/>
<path d="M0 0 C0.66 0 1.32 0 2 0 C0.2010497 5.07634826 -2.49026455 9.63713611 -5.125 14.3125 C-5.59292969 15.14845703 -6.06085938 15.98441406 -6.54296875 16.84570312 C-7.6926259 18.89866233 -8.84503802 20.95002202 -10 23 C-11 20 -11 20 -10.00390625 17.51953125 C-9.52824219 16.62621094 -9.05257812 15.73289062 -8.5625 14.8125 C-8.08941406 13.91144531 -7.61632812 13.01039063 -7.12890625 12.08203125 C-6.75636719 11.39496094 -6.38382813 10.70789063 -6 10 C-5.34 10 -4.68 10 -4 10 C-3.7834375 8.824375 -3.7834375 8.824375 -3.5625 7.625 C-3 5 -3 5 -2 3 C-1.34 3 -0.68 3 0 3 C0 2.01 0 1.02 0 0 Z " fill="#537DD2" transform="translate(257,438)"/>
<path d="M0 0 C0.66 0.33 1.32 0.66 2 1 C0.4375 2.171875 -1.125 3.34375 -2.6875 4.515625 C-4.44160248 6.1691947 -4.44160248 6.1691947 -4 10 C-3.01 10.33 -2.02 10.66 -1 11 C-4.73487777 10.5020163 -6.81237635 10.12508244 -10 8 C-10 7.01 -10 6.02 -10 5 C-8.38007835 4.13624104 -6.75388139 3.28424146 -5.125 2.4375 C-4.22007813 1.96183594 -3.31515625 1.48617187 -2.3828125 0.99609375 C-1.20332031 0.50302734 -1.20332031 0.50302734 0 0 Z " fill="#5079CE" transform="translate(20,230)"/>
<path d="M0 0 C4.88151235 0.61018904 8.7134195 2.743905 13 5 C14.155 5.5775 15.31 6.155 16.5 6.75 C17.325 7.1625 18.15 7.575 19 8 C19 8.66 19 9.32 19 10 C19.66 10.33 20.32 10.66 21 11 C20.01 11.495 20.01 11.495 19 12 C17.02880859 11.11962891 17.02880859 11.11962891 14.6484375 9.7265625 C13.79765625 9.2315625 12.946875 8.7365625 12.0703125 8.2265625 C11.18085938 7.69804687 10.29140625 7.16953125 9.375 6.625 C8.02921875 5.84382812 8.02921875 5.84382812 6.65625 5.046875 C1.80811685 2.20283336 1.80811685 2.20283336 0 1 C0 0.67 0 0.34 0 0 Z " fill="#5580D7" transform="translate(367,205)"/>
<path d="M0 0 C0.33 0.66 0.66 1.32 1 2 C-1.66472743 7.84190245 -4.84348491 13.41141591 -8 19 C-8.99 19 -9.98 19 -11 19 C-7.37 12.73 -3.74 6.46 0 0 Z " fill="#6389D3" transform="translate(232,19)"/>
<path d="M0 0 C1.24546405 2.49092811 0.7767578 3.41080733 0 6 C-0.66 6 -1.32 6 -2 6 C-2.0825 6.70125 -2.165 7.4025 -2.25 8.125 C-3.18009005 11.6903452 -4.76686369 14.09015572 -7 17 C-7.66 17 -8.32 17 -9 17 C-7.51481201 12.95698825 -5.57122002 9.38853744 -3.375 5.6875 C-2.74335938 4.61886719 -2.11171875 3.55023438 -1.4609375 2.44921875 C-0.97882813 1.64097656 -0.49671875 0.83273438 0 0 Z " fill="#5D87D2" transform="translate(200,75)"/>
<path d="M0 0 C4.39158329 1.4638611 4.87947433 3.97831338 7 8 C7.66 8 8.32 8 9 8 C9.66 7.01 10.32 6.02 11 5 C11.66 5.33 12.32 5.66 13 6 C12.01 7.98 11.02 9.96 10 12 C8.68 12 7.36 12 6 12 C4.02 8.04 2.04 4.08 0 0 Z " fill="#6483D6" transform="translate(233,457)"/>
<path d="M0 0 C1.32 0 2.64 0 4 0 C4.33 1.65 4.66 3.3 5 5 C4.401875 5.103125 3.80375 5.20625 3.1875 5.3125 C0.70138466 6.09385053 -0.22943442 7.14895416 -2 9 C-2.66 9 -3.32 9 -4 9 C-2.80100302 5.9168649 -1.52299523 2.93720508 0 0 Z " fill="#5282D0" transform="translate(239,6)"/>
<path d="M0 0 C4.1445707 0.60949569 7.3136063 2.03915228 11 4 C11.763125 4.33 12.52625 4.66 13.3125 5 C15 6 15 6 16 9 C12.20950293 7.57250019 8.72877544 5.83763458 5.1875 3.875 C4.21167969 3.33617187 3.23585938 2.79734375 2.23046875 2.2421875 C1.49441406 1.83226562 0.75835937 1.42234375 0 1 C0 0.67 0 0.34 0 0 Z " fill="#5F83D5" transform="translate(400,224)"/>
<path d="M0 0 C0.99 0.33 1.98 0.66 3 1 C0.69 4.96 -1.62 8.92 -4 13 C-4.33 11.68 -4.66 10.36 -5 9 C-4.34 9 -3.68 9 -3 9 C-2.87625 8.2575 -2.7525 7.515 -2.625 6.75 C-2.04513299 4.19858515 -1.26291261 2.2732427 0 0 Z " fill="#5B83D5" transform="translate(317,332)"/>
<path d="M0 0 C-1 3 -1 3 -3.28515625 4.38671875 C-4.20167969 4.81597656 -5.11820312 5.24523437 -6.0625 5.6875 C-6.98160156 6.12449219 -7.90070313 6.56148438 -8.84765625 7.01171875 C-9.55792969 7.33785156 -10.26820313 7.66398437 -11 8 C-11 7.01 -11 6.02 -11 5 C-9.54462432 4.16151196 -8.08559627 3.32936066 -6.625 2.5 C-5.81289063 2.0359375 -5.00078125 1.571875 -4.1640625 1.09375 C-2 0 -2 0 0 0 Z " fill="#507BCD" transform="translate(421,265)"/>
<path d="M0 0 C0.99 0.33 1.98 0.66 3 1 C3 2.32 3 3.64 3 5 C1.3789897 5.69685498 -0.24696066 6.38222861 -1.875 7.0625 C-2.77992188 7.44535156 -3.68484375 7.82820312 -4.6171875 8.22265625 C-7 9 -7 9 -9 8 C-5.55930376 5.70620251 -4.27709699 5 0 5 C0 3.35 0 1.7 0 0 Z " fill="#4E79CF" transform="translate(468,234)"/>
<path d="M0 0 C1.10336858 3.31010574 1.13531135 5.6813976 0 9 C-2.0625 10.3125 -2.0625 10.3125 -4 11 C-3.48964169 6.6109185 -2.47785723 3.66291938 0 0 Z " fill="#547CCF" transform="translate(166,134)"/>
<path d="M0 0 C2.76276177 0.52268466 5.3260876 1.10869587 8 2 C8 2.66 8 3.32 8 4 C9.98 4.66 11.96 5.32 14 6 C14 6.66 14 7.32 14 8 C9.02790438 6.23570801 4.56561939 3.6060834 0 1 C0 0.67 0 0.34 0 0 Z " fill="#6388D6" transform="translate(90,283)"/>
<path d="M0 0 C4.97874064 0.47416578 8.06718758 1.9099331 12 5 C12 5.66 12 6.32 12 7 C7.69235185 5.43358249 3.93828536 3.31663844 0 1 C0 0.67 0 0.34 0 0 Z " fill="#5E87D3" transform="translate(106,292)"/>
<path d="M0 0 C0.66 0 1.32 0 2 0 C0.43358249 4.30764815 -1.68336156 8.06171464 -4 12 C-4.6875 10.3125 -4.6875 10.3125 -5 8 C-3.6875 5.25 -3.6875 5.25 -2 3 C-1.34 3 -0.68 3 0 3 C0 2.01 0 1.02 0 0 Z " fill="#6486D5" transform="translate(214,98)"/>
<path d="M0 0 C-1.26239712 0.86658615 -2.53527501 1.71792059 -3.8125 2.5625 C-4.87404297 3.27599609 -4.87404297 3.27599609 -5.95703125 4.00390625 C-8 5 -8 5 -11 4 C-10.01 3.67 -9.02 3.34 -8 3 C-7.67 2.01 -7.34 1.02 -7 0 C-3.86650268 -1.04449911 -3.01031744 -0.93423645 0 0 Z " fill="#4D88D2" transform="translate(76,228)"/>
<path d="M0 0 C1.32 1.32 2.64 2.64 4 4 C4.99 3.01 5.98 2.02 7 1 C6.6875 3.375 6.6875 3.375 6 6 C5.01 6.66 4.02 7.32 3 8 C0 2.25 0 2.25 0 0 Z " fill="#557ECE" transform="translate(237,414)"/>
<path d="M0 0 C0 0.66 0 1.32 0 2 C-7.28571429 6.42857143 -7.28571429 6.42857143 -12 7 C-9.20232475 3.70861735 -4.40323273 0 0 0 Z " fill="#587FD2" transform="translate(48,215)"/>
<path d="M0 0 C3.55506106 0.60943904 6.77908169 1.34601492 10 3 C11.3125 5.125 11.3125 5.125 12 7 C7.69235185 5.43358249 3.93828536 3.31663844 0 1 C0 0.67 0 0.34 0 0 Z " fill="#638DDA" transform="translate(367,205)"/>
<path d="M0 0 C1 4 1 4 0.00390625 5.921875 C-0.47175781 6.52515625 -0.94742188 7.1284375 -1.4375 7.75 C-1.91058594 8.36359375 -2.38367188 8.9771875 -2.87109375 9.609375 C-3.24363281 10.06828125 -3.61617187 10.5271875 -4 11 C-4.66 10.67 -5.32 10.34 -6 10 C-4.02 6.7 -2.04 3.4 0 0 Z " fill="#6183D0" transform="translate(220,40)"/>
<path d="M0 0 C0.99 0.33 1.98 0.66 3 1 C0.03 5.95 0.03 5.95 -3 11 C-4 8 -4 8 -3.22265625 5.95703125 C-2.83980469 5.24933594 -2.45695313 4.54164063 -2.0625 3.8125 C-1.68222656 3.09707031 -1.30195313 2.38164062 -0.91015625 1.64453125 C-0.60980469 1.10183594 -0.30945313 0.55914062 0 0 Z " fill="#6389D2" transform="translate(250,450)"/>
<path d="M0 0 C0.99 0.33 1.98 0.66 3 1 C0.525 5.455 0.525 5.455 -2 10 C-2.33 10 -2.66 10 -3 10 C-3.36629408 5.72656908 -2.40814077 3.51187196 0 0 Z " fill="#5880D5" transform="translate(280,397)"/>
<path d="M0 0 C0.99 0.33 1.98 0.66 3 1 C2.01 1.33 1.02 1.66 0 2 C-0.33 3.98 -0.66 5.96 -1 8 C-1.99 8.33 -2.98 8.66 -4 9 C-2.94124926 5.59687262 -1.99097846 2.98646769 0 0 Z " fill="#5B7FD4" transform="translate(260,385)"/>
<path d="M0 0 C1.65 0 3.3 0 5 0 C1.87567603 2.52349243 -1.38060496 4.27256146 -5 6 C-5.33 5.34 -5.66 4.68 -6 4 C-3 2 -3 2 0 2 C0 1.34 0 0.68 0 0 Z " fill="#698FCA" transform="translate(384,285)"/>
<path d="M0 0 C3.465 1.485 3.465 1.485 7 3 C7 3.99 7 4.98 7 6 C4.69 5.01 2.38 4.02 0 3 C0 2.01 0 1.02 0 0 Z " fill="#5681D5" transform="translate(359,199)"/>
<path d="M0 0 C4 2 4 2 5.3125 3.875 C6 6 6 6 5 10 C3.35 6.7 1.7 3.4 0 0 Z " fill="#698DD6" transform="translate(190,382)"/>
<path d="M0 0 C-1.32 1.32 -2.64 2.64 -4 4 C-5.32 3.34 -6.64 2.68 -8 2 C-4.77208445 -0.1519437 -3.71599191 -0.20086443 0 0 Z " fill="#5074C0" transform="translate(95,216)"/>
<path d="M0 0 C0.66 0 1.32 0 2 0 C1.25 2.875 1.25 2.875 0 6 C-1.98 6.99 -1.98 6.99 -4 8 C-2.68 5.36 -1.36 2.72 0 0 Z " fill="#5882D1" transform="translate(225,31)"/>
<path d="M0 0 C-0.33 0.99 -0.66 1.98 -1 3 C-3.31 3.33 -5.62 3.66 -8 4 C-3.375 0 -3.375 0 0 0 Z " fill="#4B77D0" transform="translate(393,281)"/>
<path d="M0 0 C0.66 0.33 1.32 0.66 2 1 C2 2.32 2 3.64 2 5 C1.01 5.495 1.01 5.495 0 6 C-0.99 5.34 -1.98 4.68 -3 4 C-3 3.01 -3 2.02 -3 1 C-2.01 0.67 -1.02 0.34 0 0 Z " fill="#7797D9" transform="translate(13,234)"/>
<path d="M0 0 C1.32 0 2.64 0 4 0 C4 0.66 4 1.32 4 2 C5.32 2 6.64 2 8 2 C8 2.99 8 3.98 8 5 C7.01 5 6.02 5 5 5 C5 4.34 5 3.68 5 3 C2.525 2.01 2.525 2.01 0 1 C0 0.67 0 0.34 0 0 Z " fill="#5F7FCB" transform="translate(416,233)"/>
<path d="M0 0 C1.125 3.75 1.125 3.75 0 6 C-0.66 6 -1.32 6 -2 6 C-2 6.99 -2 7.98 -2 9 C-2.66 9 -3.32 9 -4 9 C-2.80100302 5.9168649 -1.52299523 2.93720508 0 0 Z " fill="#5F87CE" transform="translate(178,113)"/>
<path d="M0 0 C0.66 0 1.32 0 2 0 C0.90931332 3.77545388 0.0916909 6.47043472 -3 9 C-2.67 7.02 -2.34 5.04 -2 3 C-1.34 3 -0.68 3 0 3 C0 2.01 0 1.02 0 0 Z " fill="#6987D9" transform="translate(219,89)"/>
</svg>
