<?xml version="1.0" encoding="UTF-8"?>
<svg version="1.1" xmlns="http://www.w3.org/2000/svg" width="493" height="493">
<path d="M0 0 C162.69 0 325.38 0 493 0 C493 162.69 493 325.38 493 493 C330.31 493 167.62 493 0 493 C0 330.31 0 167.62 0 0 Z " fill="#FEFEFE" transform="translate(0,0)"/>
<path d="M0 0 C1.99137649 0.06023189 3.98292694 0.11497807 5.97460938 0.1640625 C10.84154671 0.29594451 15.70011576 0.50271176 20.5625 0.75 C16.54448697 8.87841103 12.45256344 16.93935492 8.0625 24.875 C3.34034015 33.47066454 -1.31633612 42.09973361 -5.9375 50.75 C-10.89974578 60.03457636 -15.90121462 69.29636714 -20.95361328 78.53222656 C-24.76658624 85.5072081 -28.54588865 92.49988166 -32.3125 99.5 C-32.89346436 100.57942871 -33.47442871 101.65885742 -34.07299805 102.77099609 C-37.10526132 108.40741873 -40.13283458 114.04632657 -43.15625 119.6875 C-53.51595494 138.99871469 -53.51595494 138.99871469 -58.0625 146.875 C-58.660625 147.91914063 -59.25875 148.96328125 -59.875 150.0390625 C-60.8612415 151.7501915 -61.8596812 153.45440016 -62.875 155.1484375 C-65.08894148 159.04415662 -65.08894148 159.04415662 -64.8515625 163.3828125 C-62.97530986 167.85057431 -60.62906166 171.94484559 -58.1875 176.125 C-57.66027344 177.03765625 -57.13304687 177.9503125 -56.58984375 178.890625 C-54.87895647 181.8476152 -53.1593966 184.79940854 -51.4375 187.75 C-50.57608398 189.22774902 -50.57608398 189.22774902 -49.69726562 190.73535156 C-47.35591814 194.75077561 -45.01329354 198.76544306 -42.66674805 202.77783203 C-38.2331339 210.36411577 -33.85487579 217.98056675 -29.51074219 225.6184082 C-26.25382576 231.34138696 -22.93842293 237.02346398 -19.546875 242.66796875 C-18.4375 244.75 -18.4375 244.75 -18.4375 246.75 C-24.51979504 247.17285995 -30.59344597 247.47969431 -36.68701172 247.68383789 C-38.75428227 247.768938 -40.82054062 247.88468603 -42.88427734 248.0324707 C-59.47449996 249.19002124 -59.47449996 249.19002124 -64.25762939 245.25112915 C-67.50207509 241.263124 -69.48677402 236.72834532 -71.44451904 232.00845337 C-72.93830515 228.61095994 -74.89619029 225.57758468 -76.9140625 222.47265625 C-77.60371094 221.36341797 -78.29335938 220.25417969 -79.00390625 219.11132812 C-80.05184479 217.43204141 -81.09989293 215.75282061 -82.15087891 214.07543945 C-83.20081217 212.39776208 -84.24504509 210.71652143 -85.2890625 209.03515625 C-85.89572754 208.06457275 -86.50239258 207.09398926 -87.12744141 206.09399414 C-88.4375 203.75 -88.4375 203.75 -88.4375 201.75 C-89.0975 201.75 -89.7575 201.75 -90.4375 201.75 C-90.69007568 202.44085693 -90.94265137 203.13171387 -91.20288086 203.84350586 C-92.60818049 207.15180962 -94.34605435 210.17962474 -96.19140625 213.25390625 C-96.56391006 213.880728 -96.93641388 214.50754974 -97.32020569 215.15336609 C-98.54311717 217.20863329 -99.77138517 219.26063792 -101 221.3125 C-101.86068646 222.75543119 -102.72119844 224.19846647 -103.58154297 225.64160156 C-112.48197205 240.55454133 -121.5036221 255.3938574 -130.55371094 270.21630859 C-132.68384079 273.70536715 -134.81152436 277.19590873 -136.9375 280.6875 C-137.28431824 281.25677216 -137.63113647 281.82604431 -137.98846436 282.41256714 C-142.08666477 289.14525678 -146.13347856 295.90522501 -150.109375 302.7109375 C-150.49456299 303.3701973 -150.87975098 304.02945709 -151.27661133 304.70869446 C-153.13024131 307.88474015 -154.97810301 311.06399021 -156.81835938 314.24780273 C-157.48826486 315.40088843 -158.15818594 316.55396506 -158.828125 317.70703125 C-159.6948584 319.20713745 -159.6948584 319.20713745 -160.57910156 320.73754883 C-161.19237305 321.73165771 -161.80564453 322.7257666 -162.4375 323.75 C-162.76384933 324.37962143 -163.09019867 325.00924286 -163.42643738 325.65794373 C-165.08979829 328.52434458 -166.26213268 330.41333121 -169.53952026 331.35209656 C-172.16561054 331.56169553 -174.69964341 331.5375608 -177.33203125 331.43359375 C-178.27938644 331.42368912 -179.22674164 331.41378448 -180.20280457 331.40357971 C-183.22013055 331.36448256 -186.2337794 331.27667187 -189.25 331.1875 C-191.29877547 331.15237998 -193.34760814 331.12044218 -195.39648438 331.09179688 C-200.41156684 331.01473581 -205.4239107 330.89398682 -210.4375 330.75 C-209.25866255 326.9430807 -207.94884596 323.60605738 -205.890625 320.1953125 C-205.38281494 319.34598145 -204.87500488 318.49665039 -204.35180664 317.62158203 C-203.80258545 316.71520996 -203.25336426 315.80883789 -202.6875 314.875 C-201.50320287 312.89625414 -200.31963392 310.91707232 -199.13671875 308.9375 C-198.52489746 307.9165625 -197.91307617 306.895625 -197.28271484 305.84375 C-194.31923124 300.87507254 -191.40928688 295.87554204 -188.5 290.875 C-187.32944075 288.86587745 -186.15886775 286.85676292 -184.98828125 284.84765625 C-184.4051416 283.84621582 -183.82200195 282.84477539 -183.22119141 281.81298828 C-180.21174848 276.64511654 -177.19999515 271.478593 -174.1875 266.3125 C-173.30916504 264.80610962 -173.30916504 264.80610962 -172.41308594 263.26928711 C-168.64262525 256.80617247 -164.85393459 250.35409191 -161.05371094 243.90844727 C-157.51736625 237.9026084 -154.02853495 231.86970407 -150.54223633 225.8347168 C-147.12657454 219.92695158 -143.67418559 214.04171463 -140.20703125 208.1640625 C-137.09044024 202.87470614 -134.0084907 197.56594253 -130.9375 192.25 C-127.27050173 185.90454961 -123.58705976 179.56921023 -119.875 173.25 C-119.24851563 172.18168945 -119.24851563 172.18168945 -118.609375 171.09179688 C-116.9450104 168.26348294 -115.2583645 165.48129675 -113.4375 162.75 C-113.65999202 157.55851963 -115.88556427 153.80377376 -118.5625 149.5 C-119.47934698 147.98396843 -120.39460868 146.46697742 -121.30859375 144.94921875 C-121.80987793 144.12083496 -122.31116211 143.29245117 -122.82763672 142.43896484 C-125.82406031 137.43401953 -128.71812951 132.36979787 -131.625 127.3125 C-132.9034805 125.0923527 -134.1821291 122.87230219 -135.4609375 120.65234375 C-136.10901367 119.52683105 -136.75708984 118.40131836 -137.42480469 117.24169922 C-139.50034379 113.63916179 -141.58195441 110.04014978 -143.6640625 106.44140625 C-144.69348876 104.66108665 -145.72281541 102.88070949 -146.75210571 101.10031128 C-147.73072574 99.40832427 -148.71044468 97.716973 -149.69018555 96.02563477 C-150.28355713 94.99881592 -150.87692871 93.97199707 -151.48828125 92.9140625 C-152.27199097 91.55982178 -152.27199097 91.55982178 -153.0715332 90.17822266 C-154.25739736 88.07016102 -155.35581634 85.91336731 -156.4375 83.75 C-141.5875 83.75 -126.7375 83.75 -111.4375 83.75 C-108.1375 89.69 -104.8375 95.63 -101.4375 101.75 C-99.18188131 105.59666058 -96.90899028 109.42528994 -94.59179688 113.234375 C-92.70332606 116.38887665 -91.20219045 119.15452695 -90.4375 122.75 C-89.7775 122.75 -89.1175 122.75 -88.4375 122.75 C-88.16526611 122.03569824 -87.89303223 121.32139648 -87.61254883 120.58544922 C-86.43479729 117.74347822 -85.09424239 115.09124039 -83.63671875 112.3828125 C-83.07871582 111.34471436 -82.52071289 110.30661621 -81.94580078 109.23706055 C-81.04450439 107.57284058 -81.04450439 107.57284058 -80.125 105.875 C-79.49835449 104.71460205 -78.87170898 103.5542041 -78.22607422 102.35864258 C-73.73663057 94.06456764 -69.13474179 85.83736907 -64.47094727 77.64013672 C-60.10595392 69.96063005 -55.82214631 62.23820173 -51.5625 54.5 C-50.88828375 53.27570581 -50.21404873 52.05142195 -49.53979492 50.82714844 C-48.52504304 48.98454813 -47.51029505 47.14194571 -46.49565125 45.29928589 C-43.11763823 39.16607326 -39.72982886 33.03832257 -36.33319092 26.91540527 C-35.41207721 25.25436132 -34.49238561 23.59252899 -33.57275391 21.93066406 C-32.43151057 19.87456096 -31.26762201 17.83083991 -30.07983398 15.80126953 C-28.34701026 12.76030225 -28.34701026 12.76030225 -27.20336914 9.33544922 C-22.13734997 -3.01985199 -11.48635473 -0.60150857 0 0 Z " fill="#010101" transform="translate(336.4375,81.25)"/>
<path d="M0 0 C0.66 0 1.32 0 2 0 C2.32049316 0.57105469 2.64098633 1.14210938 2.97119141 1.73046875 C9.75753833 13.81002224 16.6229377 25.83802385 23.62109375 37.79614258 C33.01270469 53.84662337 42.29046736 69.96328636 51.48583984 86.12695312 C54.24183739 90.96046256 57.03343758 95.77111174 59.85546875 100.56640625 C60.50314209 101.66839355 61.15081543 102.77038086 61.81811523 103.90576172 C63.08591294 106.05939962 64.35744016 108.21084727 65.63305664 110.35986328 C66.48758423 111.81175049 66.48758423 111.81175049 67.359375 113.29296875 C67.86952148 114.1543042 68.37966797 115.01563965 68.90527344 115.90307617 C70 118 70 118 70 120 C54.49 120 38.98 120 23 120 C18.05 111.09 18.05 111.09 13 102 C10.7432616 98.09439058 8.47862327 94.19750836 6.1875 90.3125 C0.87225313 81.25065586 -4.36665131 72.14981127 -9.49365234 62.97998047 C-11.81665463 58.82901819 -14.15360797 54.70349692 -16.66015625 50.66015625 C-17.05025879 50.02029785 -17.44036133 49.38043945 -17.84228516 48.72119141 C-18.84713799 47.08466559 -19.87370962 45.46152738 -20.90234375 43.83984375 C-22.3528592 40.08708669 -21.45666624 38.6877228 -20 35 C-19.11622859 33.24366293 -18.1834004 31.51128502 -17.20703125 29.8046875 C-16.66216064 28.8463501 -16.11729004 27.8880127 -15.5559082 26.90063477 C-14.9805835 25.90217529 -14.40525879 24.90371582 -13.8125 23.875 C-13.22750732 22.85269287 -12.64251465 21.83038574 -12.03979492 20.77709961 C-10.8842619 18.75976965 -9.72653105 16.74369673 -8.56640625 14.72900391 C-7.2494531 12.43459893 -5.94737184 10.13320605 -4.65625 7.82421875 C-3.74359375 6.20966797 -3.74359375 6.20966797 -2.8125 4.5625 C-2.30332031 3.65628906 -1.79414063 2.75007813 -1.26953125 1.81640625 C-0.85058594 1.21699219 -0.43164062 0.61757812 0 0 Z " fill="#010101" transform="translate(353,102)"/>
<path d="M0 0 C2.44262016 2.2416366 4.01389336 4.51074084 5.63671875 7.39453125 C6.12825439 8.26142578 6.61979004 9.12832031 7.1262207 10.02148438 C7.64144287 10.94251953 8.15666504 11.86355469 8.6875 12.8125 C9.75731746 14.71512219 10.82763153 16.61746522 11.8984375 18.51953125 C12.68492676 19.91872803 12.68492676 19.91872803 13.48730469 21.34619141 C14.82581663 23.69442008 16.1981697 26.01439931 17.6015625 28.32421875 C17.97966064 28.95416748 18.35775879 29.58411621 18.74731445 30.2331543 C19.74608652 31.88983857 20.75737531 33.53895859 21.76953125 35.1875 C23.2374366 38.54271223 22.9928873 39.53829481 22 43 C21.04545333 44.93527142 20.01290909 46.8329214 18.9296875 48.69921875 C18.28813721 49.81280762 17.64658691 50.92639648 16.9855957 52.07373047 C16.28220636 53.27840356 15.57867066 54.48299121 14.875 55.6875 C14.14933892 56.94119601 13.42433217 58.19527096 12.69995117 59.44970703 C11.20605187 62.03448301 9.70832192 64.61698025 8.20751953 67.19775391 C5.51177339 71.83589546 2.83964793 76.4873298 0.17993164 81.14624023 C-1.06666678 83.30158918 -2.33723182 85.44325019 -3.63110352 87.57055664 C-6.78731101 92.80424736 -9.34990875 97.68171208 -11.2109375 103.515625 C-13.58897556 110.11842049 -15.58831255 115.52716504 -22 119 C-36.68949206 122.39760062 -53.13373094 120.32670324 -68 119 C-66.71903022 114.79353556 -65.12814434 111.18705933 -62.91015625 107.39453125 C-62.29648193 106.33862793 -61.68280762 105.28272461 -61.05053711 104.19482422 C-60.39448486 103.07865723 -59.73843262 101.96249023 -59.0625 100.8125 C-58.37779815 99.63849746 -57.69364044 98.4641774 -57.01000977 97.28955078 C-55.64246514 94.94130918 -54.27218538 92.5947015 -52.89941406 90.24951172 C-50.83005339 86.70925586 -48.77614323 83.16037006 -46.7265625 79.60864258 C-42.79365268 72.79383349 -38.83134761 65.99636672 -34.86132812 59.203125 C-34.26771484 58.18734375 -33.67410156 57.1715625 -33.0625 56.125 C-32.46888672 55.10921875 -31.87527344 54.0934375 -31.26367188 53.046875 C-27.44976315 46.51112759 -23.67869984 39.95259188 -19.9375 33.375 C-15.62409817 25.79665338 -11.24340285 18.2602736 -6.8125 10.75 C-6.24716553 9.79013184 -5.68183105 8.83026367 -5.09936523 7.84130859 C-4.57802002 6.96039551 -4.0566748 6.07948242 -3.51953125 5.171875 C-3.05651611 4.3890918 -2.59350098 3.60630859 -2.11645508 2.79980469 C-1 1 -1 1 0 0 Z " fill="#010101" transform="translate(139,103)"/>
<path d="M0 0 C15.51 0 31.02 0 47 0 C41.38095238 11.23809524 41.38095238 11.23809524 39.01171875 15.2421875 C38.47869141 16.14839844 37.94566406 17.05460937 37.39648438 17.98828125 C36.83251953 18.94089844 36.26855469 19.89351563 35.6875 20.875 C30.39375074 29.88058839 25.16857989 38.92225237 20 48 C14.40091818 57.82861497 8.74358186 67.62116132 3.02539062 77.38110352 C0.21305956 82.18658119 -2.5792793 87.00162747 -5.328125 91.84375 C-6.13008301 93.25636108 -6.13008301 93.25636108 -6.94824219 94.69750977 C-7.94156846 96.45145892 -8.93207375 98.20701057 -9.91894531 99.96459961 C-13.04191728 105.48129042 -16.41581365 110.77149779 -20 116 C-23.68347195 112.73040131 -25.88476719 108.97327032 -28.1875 104.6875 C-31.66483303 98.34518987 -35.27942254 92.11548638 -39.08081055 85.96166992 C-43.12568771 79.33817205 -43.12568771 79.33817205 -44 76 C-42.90112305 73.20776367 -42.90112305 73.20776367 -41.01171875 70.16796875 C-40.32964355 69.04817627 -39.64756836 67.92838379 -38.94482422 66.7746582 C-38.19249577 65.57886773 -37.44005193 64.38314984 -36.6875 63.1875 C-35.93039551 61.95463116 -35.17535659 60.72049152 -34.42236328 59.48510742 C-32.94345658 57.06013541 -31.45787134 54.63948732 -29.96728516 52.22167969 C-27.67478852 48.46742484 -25.49392118 44.66651403 -23.375 40.8125 C-19.02885968 32.97127168 -14.49509035 25.24127419 -9.95849609 17.5090332 C-9.38953613 16.53796631 -8.82057617 15.56689941 -8.234375 14.56640625 C-7.73131836 13.70990479 -7.22826172 12.85340332 -6.70996094 11.97094727 C-4.42807809 8.00632243 -2.22153054 3.99875498 0 0 Z " fill="#020202" transform="translate(377,271)"/>
<path d="M0 0 C15.84 0 31.68 0 48 0 C52.95 8.91 52.95 8.91 58 18 C62.94582546 26.83183118 67.92474567 35.64351497 72.9375 44.4375 C73.43967041 45.32155518 73.94184082 46.20561035 74.45922852 47.11645508 C76.91971295 51.43130944 79.41734518 55.71266872 82.0234375 59.94140625 C82.49402588 60.71234619 82.96461426 61.48328613 83.44946289 62.27758789 C84.33456184 63.72072881 85.23157429 65.15665487 86.14233398 66.58374023 C89.06696881 71.37130683 89.06696881 71.37130683 88.73876953 74.45239258 C88.01182989 76.95920525 87.12427498 78.95984556 85.84765625 81.23046875 C85.40526611 82.02549805 84.96287598 82.82052734 84.50708008 83.63964844 C84.03036865 84.48043945 83.55365723 85.32123047 83.0625 86.1875 C82.57612061 87.05793945 82.08974121 87.92837891 81.58862305 88.82519531 C80.57414086 90.6400149 79.55692807 92.45331055 78.53710938 94.26513672 C76.56151462 97.78016412 74.60656928 101.30644855 72.65209961 104.83325195 C70.77231547 108.22453739 68.88616819 111.6122619 67 115 C63.48904242 111.84794031 61.33027209 108.36041533 59.125 104.25 C58.32879213 102.80099953 57.53047926 101.35315446 56.73046875 99.90625 C56.29524902 99.11863281 55.8600293 98.33101563 55.41162109 97.51953125 C52.81885689 92.89183728 50.12183031 88.32497371 47.4375 83.75 C42.2591021 74.90518638 37.13917027 66.02849727 32.0625 57.125 C26.74541363 47.80309307 21.4195571 38.48651696 16.0625 29.1875 C15.44310547 28.11193848 14.82371094 27.03637695 14.18554688 25.92822266 C10.35469492 19.29448468 6.47515458 12.69369709 2.43579102 6.18432617 C0 2.2115887 0 2.2115887 0 0 Z " fill="#010101" transform="translate(70,267)"/>
<path d="M0 0 C2.02055794 -0.04420281 4.04110638 -0.08884172 6.06164551 -0.13389587 C10.29854981 -0.21481672 14.53387916 -0.25549227 18.77148438 -0.2746582 C23.10265338 -0.30074077 27.42047137 -0.40468891 31.74804688 -0.58227539 C66.45216994 -1.98204702 66.45216994 -1.98204702 75.04492188 3.99151611 C79.97956844 9.47587905 82.49018373 15.54377939 84.64038086 22.52346802 C86.29767257 27.17079168 88.80775685 31.17255238 91.40930176 35.34605408 C92.78125 37.72265625 92.78125 37.72265625 92.78125 39.72265625 C47.90125 39.72265625 3.02125 39.72265625 -43.21875 39.72265625 C-38.71557607 30.71630839 -38.71557607 30.71630839 -36.1953125 26.6640625 C-35.64875 25.78298828 -35.1021875 24.90191406 -34.5390625 23.99414062 C-33.97960937 23.10017578 -33.42015625 22.20621094 -32.84375 21.28515625 C-32.29203125 20.39505859 -31.7403125 19.50496094 -31.171875 18.58789062 C-29.53430073 15.95662398 -27.89245957 13.33114322 -26.21875 10.72265625 C-25.94468323 9.97451157 -25.67061646 9.22636688 -25.38824463 8.45555115 C-20.77684374 -1.70876502 -9.63454426 0.12153714 0 0 Z " fill="#000000" transform="translate(220.21875,371.27734375)"/>
<path d="M0 0 C42.24 0 84.48 0 128 0 C126.60763275 4.17710174 125.36000346 7.49198992 123.35546875 11.30078125 C122.84306641 12.27853516 122.33066406 13.25628906 121.80273438 14.26367188 C121.26970703 15.26978516 120.73667969 16.27589844 120.1875 17.3125 C119.40536133 18.80426758 119.40536133 18.80426758 118.60742188 20.32617188 C115.48477342 26.26349221 112.26873619 32.1421138 109 38 C97.76059343 38.20863947 86.52164824 38.36849883 75.28069878 38.46630955 C70.06078517 38.51325791 64.84219735 38.5769192 59.62304688 38.67895508 C54.58493179 38.77683388 49.54809059 38.83057534 44.50909805 38.85389519 C42.58800318 38.87051002 40.6669772 38.90295782 38.74642563 38.95157051 C23.71540194 39.31685951 23.71540194 39.31685951 19.57298279 36.13685608 C17.98325417 33.80356611 16.96968994 31.643826 16 29 C15.39712158 27.99751221 14.79424316 26.99502441 14.1730957 25.9621582 C13.67898193 25.08390381 13.18486816 24.20564941 12.67578125 23.30078125 C12.12212891 22.31916016 11.56847656 21.33753906 10.99804688 20.32617188 C10.44181641 19.33166016 9.88558594 18.33714844 9.3125 17.3125 C8.74466797 16.30638672 8.17683594 15.30027344 7.59179688 14.26367188 C4.94144028 9.55020065 2.42075657 4.84151314 0 0 Z " fill="#000000" transform="translate(179,82)"/>
</svg>
