<?xml version="1.0" encoding="UTF-8"?>
<svg version="1.1" xmlns="http://www.w3.org/2000/svg" width="180" height="180">
<path d="M0 0 C59.4 0 118.8 0 180 0 C180 59.4 180 118.8 180 180 C120.6 180 61.2 180 0 180 C0 120.6 0 61.2 0 0 Z " fill="#000000" transform="translate(0,0)"/>
<path d="M0 0 C17 0 17 0 23 5 C25.01764916 5.72448424 25.01764916 5.72448424 26.96655273 5.64697266 C27.68427353 5.66273346 28.40199432 5.67849426 29.14146423 5.69473267 C29.89786697 5.68461151 30.65426971 5.67449036 31.43359375 5.6640625 C32.22975601 5.66884613 33.02591827 5.67362976 33.84620667 5.67855835 C35.52289821 5.68194675 37.19965678 5.67281856 38.8762207 5.65185547 C41.42746048 5.62510527 43.97428775 5.65161579 46.52539062 5.68359375 C48.16146795 5.68028877 49.79754255 5.67388069 51.43359375 5.6640625 C52.18797226 5.67418365 52.94235077 5.68430481 53.71958923 5.69473267 C60.17120738 5.55367774 61.09693435 4.21647547 67 0 C72.94 0 78.88 0 85 0 C84.67 27.72 84.34 55.44 84 84 C65.81748319 84 65.81748319 84 60 79 C57.2201588 78.29908391 54.54338889 78.29630743 51.6875 78.3359375 C50.91494873 78.33115387 50.14239746 78.32637024 49.34643555 78.32144165 C47.72279814 78.31805873 46.09909111 78.32714815 44.47558594 78.34814453 C42.00560078 78.37493924 39.54015817 78.34834815 37.0703125 78.31640625 C35.48436508 78.31971064 33.89842046 78.3261175 32.3125 78.3359375 C31.58313232 78.32581635 30.85376465 78.31569519 30.10229492 78.30526733 C23.74538911 78.44888319 22.8397675 79.8287375 17 84 C11.06 84 5.12 84 -1 84 C-0.67 56.28 -0.34 28.56 0 0 Z " fill="#080808" transform="translate(48,48)"/>
<path d="M0 0 C28.05 0 56.1 0 85 0 C85 5.28 85 10.56 85 16 C82.31076993 16.13612526 79.62854081 16.23459559 76.9375 16.3125 C76.18533203 16.35439453 75.43316406 16.39628906 74.65820312 16.43945312 C73.91376953 16.45556641 73.16933594 16.47167969 72.40234375 16.48828125 C71.72679443 16.51446533 71.05124512 16.54064941 70.35522461 16.56762695 C67.79206715 15.94988661 66.77945841 15.13223571 64.74438477 13.51098633 C60.75644469 10.51824045 57.57013612 10.26818304 52.6875 10.3359375 C51.91494873 10.33115387 51.14239746 10.32637024 50.34643555 10.32144165 C48.72279814 10.31805873 47.09909111 10.32714815 45.47558594 10.34814453 C43.00560078 10.37493924 40.54015817 10.34834815 38.0703125 10.31640625 C36.48436508 10.31971064 34.89842046 10.3261175 33.3125 10.3359375 C32.58313232 10.32581635 31.85376465 10.31569519 31.10229492 10.30526733 C26.06213663 10.4191351 23.47050234 11.75762926 19.55441284 14.87695312 C17.46864449 16.38389875 15.92729592 16.58128817 13.37890625 16.48828125 C12.58935547 16.47216797 11.79980469 16.45605469 10.98632812 16.43945312 C10.18646484 16.39755859 9.38660156 16.35566406 8.5625 16.3125 C7.73556641 16.28994141 6.90863281 16.26738281 6.05664062 16.24414062 C4.03696423 16.18576847 2.01823279 16.09610632 0 16 C0 10.72 0 5.44 0 0 Z " fill="#222222" transform="translate(47,116)"/>
<path d="M0 0 C2.71003427 -0.1358035 5.41318941 -0.23444624 8.125 -0.3125 C8.88554688 -0.35439453 9.64609375 -0.39628906 10.4296875 -0.43945312 C11.17734375 -0.45556641 11.925 -0.47167969 12.6953125 -0.48828125 C13.37609863 -0.51446533 14.05688477 -0.54064941 14.75830078 -0.56762695 C17 0 17 0 19.74194336 2.48901367 C23.42258424 5.73847867 26.67392446 5.72774993 31.43359375 5.6640625 C32.22975601 5.66884613 33.02591827 5.67362976 33.84620667 5.67855835 C35.52289821 5.68194675 37.19965678 5.67281856 38.8762207 5.65185547 C41.42746048 5.62510527 43.97428775 5.65161579 46.52539062 5.68359375 C48.16146795 5.68028877 49.79754255 5.67388069 51.43359375 5.6640625 C52.18797226 5.67418365 52.94235077 5.68430481 53.71958923 5.69473267 C58.8392082 5.5827999 61.47879222 4.30274305 65.45451355 1.12304688 C67.53441525 -0.38833946 69.07561528 -0.58118192 71.62109375 -0.48828125 C72.41064453 -0.47216797 73.20019531 -0.45605469 74.01367188 -0.43945312 C75.2134668 -0.37661133 75.2134668 -0.37661133 76.4375 -0.3125 C77.67790039 -0.27866211 77.67790039 -0.27866211 78.94335938 -0.24414062 C80.96303577 -0.18576847 82.98176721 -0.09610632 85 0 C85 5.28 85 10.56 85 16 C56.95 16 28.9 16 0 16 C0 10.72 0 5.44 0 0 Z " fill="#232323" transform="translate(48,48)"/>
<path d="M0 0 C0.7437085 0.00217529 1.48741699 0.00435059 2.25366211 0.0065918 C4.52116059 0.00974886 6.78735072 -0.01369197 9.0546875 -0.0390625 C10.49413898 -0.04133579 11.93359397 -0.04203885 13.37304688 -0.04101562 C14.68523193 -0.04399658 15.99741699 -0.04697754 17.34936523 -0.05004883 C20.59570312 0.32226562 20.59570312 0.32226562 22.5222168 1.39575195 C24.20027897 4.40725721 23.98527248 7.08750681 23.99414062 10.50976562 C23.9970108 11.2086792 23.99988098 11.90759277 24.00283813 12.62768555 C24.00487738 14.10368664 23.99935715 15.57971484 23.98681641 17.05566406 C23.97075892 19.31441701 23.98666783 21.5713808 24.00585938 23.83007812 C24.00387692 25.26497791 24.00003318 26.69987657 23.99414062 28.13476562 C23.99075684 29.44058594 23.98737305 30.74640625 23.98388672 32.09179688 C23.59570312 35.32226562 23.59570312 35.32226562 22.29418945 37.25317383 C19.40824797 39.06969499 16.20041174 38.62964997 12.90820312 38.50976562 C12.20630859 38.49623047 11.50441406 38.48269531 10.78125 38.46875 C9.05240484 38.43346745 7.32395547 38.37966146 5.59570312 38.32226562 C5.59570312 37.00226563 5.59570312 35.68226562 5.59570312 34.32226562 C6.25570312 34.32226562 6.91570312 34.32226562 7.59570312 34.32226562 C7.59570312 33.33226562 7.59570312 32.34226563 7.59570312 31.32226562 C8.04945312 30.90976563 8.50320312 30.49726562 8.97070312 30.07226562 C11.35099321 27.5088763 11.77602387 24.66403489 12.59570312 21.32226562 C11.60570313 20.99226563 10.61570312 20.66226563 9.59570312 20.32226562 C9.73878906 19.61714844 9.881875 18.91203125 10.02929688 18.18554688 C10.60047369 15.29814961 11.13475623 12.40617176 11.65820312 9.50976562 C11.92310547 8.04603516 11.92310547 8.04603516 12.19335938 6.55273438 C12.32613281 5.81667969 12.45890625 5.080625 12.59570312 4.32226562 C9.68773777 4.2011004 8.23561075 4.209945 5.59570312 5.32226562 C2.07184885 8.86479757 -1.16137561 12.8364231 -3.40429688 17.32226562 C-6.37429687 16.99226563 -9.34429687 16.66226563 -12.40429688 16.32226562 C-13.43195705 13.23928511 -13.57028425 10.99096136 -13.59179688 7.75976562 C-13.60597656 6.78910156 -13.62015625 5.8184375 -13.63476562 4.81835938 C-13.00315678 -2.02228562 -5.21580121 0.02022121 0 0 Z " fill="#344B99" transform="translate(85.404296875,70.677734375)"/>
<path d="M0 0 C0.33 0 0.66 0 1 0 C1.33 4.29 1.66 8.58 2 13 C4.97 13.33 7.94 13.66 11 14 C11.66 12.68 12.32 11.36 13 10 C13.92358764 8.60142442 14.88341995 7.22622048 15.875 5.875 C16.36742188 5.19179687 16.85984375 4.50859375 17.3671875 3.8046875 C19.18901014 1.79109406 20.41971527 0.84739978 23 0 C25.75 0.375 25.75 0.375 28 1 C27.68806536 2.72926874 27.37542638 4.45841044 27.0625 6.1875 C26.80146484 7.63189453 26.80146484 7.63189453 26.53515625 9.10546875 C26.0476265 11.74239972 25.53328895 14.3719905 25 17 C25.66 17.33 26.32 17.66 27 18 C27.3636198 22.24223102 26.5393228 24.58168085 24 28 C23.34 28 22.68 28 22 28 C22 28.99 22 29.98 22 31 C21.34 31.33 20.68 31.66 20 32 C20 32.99 20 33.98 20 35 C17.22813012 35.10787818 14.46044463 35.18723327 11.6875 35.25 C10.90181641 35.28351563 10.11613281 35.31703125 9.30664062 35.3515625 C8.54931641 35.36445312 7.79199219 35.37734375 7.01171875 35.390625 C6.31522217 35.41157227 5.61872559 35.43251953 4.90112305 35.45410156 C3 35 3 35 1.26757812 33.42382812 C-0.46682695 30.10734631 -0.33886389 27.56092973 -0.29296875 23.828125 C-0.28872391 23.1457074 -0.28447906 22.46328979 -0.28010559 21.76019287 C-0.26336972 19.58971996 -0.22572959 17.42019021 -0.1875 15.25 C-0.17244646 13.77475303 -0.15875922 12.29949145 -0.14648438 10.82421875 C-0.11348377 7.21584156 -0.06173767 3.6080129 0 0 Z " fill="#492D97" transform="translate(71,74)"/>
<path d="M0 0 C27.72 0 55.44 0 84 0 C84 2.64 84 5.28 84 8 C81.60347472 8.08139142 79.20974564 8.14067009 76.8125 8.1875 C76.13896484 8.21263672 75.46542969 8.23777344 74.77148438 8.26367188 C69.07252443 8.34707129 66.3030958 6.68808237 61.85058594 3.42456055 C58.23397757 1.6171856 55.02261936 1.53235526 51.06640625 1.53125 C50.31084946 1.52363647 49.55529266 1.51602295 48.77684021 1.50817871 C47.18418673 1.49740858 45.5914628 1.49451204 43.9987793 1.49902344 C41.57284876 1.49999585 39.15008378 1.45834543 36.72460938 1.4140625 C35.17188155 1.40885473 33.61914281 1.40616732 32.06640625 1.40625 C31.34747696 1.38985474 30.62854767 1.37345947 29.88783264 1.35656738 C24.12355816 1.43497153 22.00886686 3.22712048 18 7 C14.38132441 8.2062252 11.07493749 8.10816918 7.3125 8.0625 C6.61060547 8.05798828 5.90871094 8.05347656 5.18554688 8.04882812 C3.45699462 8.03706927 1.72848635 8.01913454 0 8 C0 5.36 0 2.72 0 0 Z " fill="#EAEAEA" transform="translate(48,116)"/>
<path d="M0 0 C2.39652528 -0.08139142 4.79025436 -0.14067009 7.1875 -0.1875 C7.86103516 -0.21263672 8.53457031 -0.23777344 9.22851562 -0.26367188 C14.65561189 -0.3430928 17.75384918 0.86028769 21.65380859 4.57543945 C24.94625698 6.57454833 28.05811934 6.46770732 31.80078125 6.46875 C32.55538132 6.47636353 33.30998138 6.48397705 34.08744812 6.49182129 C35.68188172 6.50260805 37.27638589 6.50548115 38.87084961 6.50097656 C41.29467648 6.50000713 43.71530429 6.54157605 46.13867188 6.5859375 C47.69270178 6.59114742 49.24674261 6.59383265 50.80078125 6.59375 C51.51768631 6.61014526 52.23459137 6.62654053 52.97322083 6.64343262 C57.99818449 6.57539785 60.71897883 5.26617667 64.46403503 2.17053223 C68.14272637 -0.63293456 72.30654805 -0.11567682 76.6875 -0.0625 C77.38939453 -0.05798828 78.09128906 -0.05347656 78.81445312 -0.04882812 C80.54300538 -0.03706927 82.27151365 -0.01913454 84 0 C84 2.64 84 5.28 84 8 C56.28 8 28.56 8 0 8 C0 5.36 0 2.72 0 0 Z " fill="#EAEAEA" transform="translate(48,56)"/>
<path d="M0 0 C0.33 0 0.66 0 1 0 C1.07417023 4.50232334 1.1286105 9.00429091 1.16479492 13.50708008 C1.17987936 15.03871861 1.20034978 16.57031398 1.22631836 18.10180664 C1.26271847 20.30365654 1.27972913 22.50493533 1.29296875 24.70703125 C1.30845261 25.39150833 1.32393646 26.07598541 1.33988953 26.78120422 C1.34089144 29.61299456 1.30291113 31.5467755 -0.29492188 33.9375 C-3.18903479 35.74093348 -6.39380204 35.30743858 -9.6875 35.1875 C-10.38939453 35.17396484 -11.09128906 35.16042969 -11.81445312 35.14648438 C-13.54329829 35.11120182 -15.27174765 35.05739583 -17 35 C-17 33.68 -17 32.36 -17 31 C-16.34 31 -15.68 31 -15 31 C-15 30.01 -15 29.02 -15 28 C-14 27 -13 26 -12 25 C-10.80972016 22.40084462 -10.80972016 22.40084462 -10 20 C-9.01 20 -8.02 20 -7 20 C-7 19.01 -7 18.02 -7 17 C-6.01 16.67 -5.02 16.34 -4 16 C-3.01 16.99 -2.02 17.98 -1 19 C-0.67 12.73 -0.34 6.46 0 0 Z " fill="#5B7C66" transform="translate(108,74)"/>
<path d="M0 0 C1.24040039 -0.00193359 1.24040039 -0.00193359 2.50585938 -0.00390625 C3.37662109 -0.00003906 4.24738281 0.00382812 5.14453125 0.0078125 C6.42166992 0.00201172 6.42166992 0.00201172 7.72460938 -0.00390625 C12.24886729 0.00309183 16.50517003 0.21475274 20.95703125 1.1328125 C20.40015625 1.4009375 19.84328125 1.6690625 19.26953125 1.9453125 C14.30797105 4.49314071 11.27253826 6.59763524 8.14453125 11.3203125 C7.53996094 12.22136719 6.93539062 13.12242188 6.3125 14.05078125 C5.86519531 14.73785156 5.41789062 15.42492187 4.95703125 16.1328125 C1.98703125 15.8028125 -0.98296875 15.4728125 -4.04296875 15.1328125 C-5.08173258 12.01652101 -5.176585 9.7733696 -5.16796875 6.5078125 C-5.17054687 5.52554688 -5.173125 4.54328125 -5.17578125 3.53125 C-4.9562607 -0.43303282 -3.56293758 0.00534002 0 0 Z " fill="#874F79" transform="translate(77.04296875,71.8671875)"/>
<path d="M0 0 C0 5.28 0 10.56 0 16 C-5.61 16 -11.22 16 -17 16 C-15.68 15.34 -14.36 14.68 -13 14 C-11.88962636 13.15957958 -10.80392491 12.28520788 -9.75 11.375 C-8.8425 10.59125 -7.935 9.8075 -7 9 C-10.3 8.67 -13.6 8.34 -17 8 C-16 6 -16 6 -13.75 5.125 C-10.8744416 4.12134884 -10.8744416 4.12134884 -8.5625 1.875 C-6 0 -6 0 0 0 Z " fill="#DCDCDC" transform="translate(132,82)"/>
<path d="M0 0 C6.81586588 0.97369513 7.35270572 1.08648903 12 5 C14.68507329 5.78946609 14.68507329 5.78946609 17 6 C17 6.66 17 7.32 17 8 C11.555 8.495 11.555 8.495 6 9 C7.0725 9.78375 8.145 10.5675 9.25 11.375 C9.85328125 11.81585938 10.4565625 12.25671875 11.078125 12.7109375 C13.27403689 14.24270305 13.27403689 14.24270305 17 16 C11.39 16 5.78 16 0 16 C0 10.72 0 5.44 0 0 Z " fill="#DBDBDB" transform="translate(48,82)"/>
<path d="M0 0 C0 5.28 0 10.56 0 16 C-5.61 16 -11.22 16 -17 16 C-15.68 15.34 -14.36 14.68 -13 14 C-11.73282393 13.15006483 -10.48193308 12.27525879 -9.25 11.375 C-7.64125 10.199375 -7.64125 10.199375 -6 9 C-9.63 8.67 -13.26 8.34 -17 8 C-14.81884536 5.81884536 -12.66370324 4.54866467 -10 3 C-8.7625 2.1646875 -8.7625 2.1646875 -7.5 1.3125 C-5 0 -5 0 0 0 Z " fill="#DFDFDF" transform="translate(132,99)"/>
<path d="M0 0 C0.33 0 0.66 0 1 0 C1.33 4.29 1.66 8.58 2 13 C4.31 13.33 6.62 13.66 9 14 C8.69012383 16.25036286 8.37700182 18.50027894 8.0625 20.75 C7.88847656 22.00296875 7.71445313 23.2559375 7.53515625 24.546875 C7 28 7 28 6.37109375 30.328125 C5.79159779 32.10852941 5.79159779 32.10852941 7 34 C4.625 34.1875 4.625 34.1875 2 34 C-0.48360441 30.27459338 -0.2315867 28.36937027 -0.1953125 23.92578125 C-0.1924826 23.2419487 -0.18965271 22.55811615 -0.18673706 21.8535614 C-0.17555684 19.67302835 -0.15045691 17.49290855 -0.125 15.3125 C-0.11496738 13.83268823 -0.10584202 12.35287001 -0.09765625 10.87304688 C-0.07562481 7.248564 -0.04111002 3.62432234 0 0 Z " fill="#5AA397" transform="translate(71,74)"/>
<path d="M0 0 C7.47150259 1.06735751 7.47150259 1.06735751 12 5 C14.6794645 6.24016669 14.6794645 6.24016669 17 7 C17 7.33 17 7.66 17 8 C11.555 8.495 11.555 8.495 6 9 C7.0725 9.78375 8.145 10.5675 9.25 11.375 C9.85328125 11.81585938 10.4565625 12.25671875 11.078125 12.7109375 C13.27403689 14.24270305 13.27403689 14.24270305 17 16 C11.39 16 5.78 16 0 16 C0 10.72 0 5.44 0 0 Z " fill="#DFDFDF" transform="translate(48,99)"/>
<path d="M0 0 C8.58 0 17.16 0 26 0 C26 2.31 26 4.62 26 7 C8.47025811 8.08680375 8.47025811 8.08680375 1.37109375 2.41015625 C0 1 0 1 0 0 Z " fill="#FBFBFB" transform="translate(106,125)"/>
<path d="M0 0 C0.79277344 0.01353516 1.58554688 0.02707031 2.40234375 0.04101562 C4.35185564 0.07624777 6.30101626 0.13005179 8.25 0.1875 C8.25 2.4975 8.25 4.8075 8.25 7.1875 C-0.33 7.1875 -8.91 7.1875 -17.75 7.1875 C-16.1 5.8675 -14.45 4.5475 -12.75 3.1875 C-12.16734375 2.61386719 -11.5846875 2.04023437 -10.984375 1.44921875 C-7.4574636 -0.54237632 -3.97035014 -0.12839441 0 0 Z " fill="#FBFBFB" transform="translate(123.75,47.8125)"/>
<path d="M0 0 C8.25 0 16.5 0 25 0 C18.13562783 6.86437217 18.13562783 6.86437217 15.09887695 7.22705078 C14.40238037 7.21657715 13.70588379 7.20610352 12.98828125 7.1953125 C11.85229492 7.18564453 11.85229492 7.18564453 10.69335938 7.17578125 C9.90767578 7.15902344 9.12199219 7.14226562 8.3125 7.125 C7.51521484 7.11597656 6.71792969 7.10695312 5.89648438 7.09765625 C3.930861 7.07411585 1.96539225 7.03824547 0 7 C0 4.69 0 2.38 0 0 Z " fill="#FBFBFB" transform="translate(48,125)"/>
<path d="M0 0 C16.84062197 -1.0334018 16.84062197 -1.0334018 22.0625 2.9375 C23.84765625 4.58984375 23.84765625 4.58984375 25 6 C25 6.33 25 6.66 25 7 C16.75 7 8.5 7 0 7 C0 4.69 0 2.38 0 0 Z " fill="#FCFCFC" transform="translate(48,48)"/>
<path d="M0 0 C7.59 0 15.18 0 23 0 C21.86294825 3.41115526 20.62905216 4.49315112 17.51953125 6.21484375 C11.96064074 7.94714917 5.76471503 7.26709104 0 7 C0 4.69 0 2.38 0 0 Z " fill="#F6F6F6" transform="translate(48,117)"/>
<path d="M0 0 C2.39652528 -0.08139142 4.79025436 -0.14067009 7.1875 -0.1875 C7.86103516 -0.21263672 8.53457031 -0.23777344 9.22851562 -0.26367188 C13.74574697 -0.3297777 16.36815997 0.33579053 20 3 C20.99 3.66 21.98 4.32 23 5 C23 5.66 23 6.32 23 7 C15.41 7 7.82 7 0 7 C0 4.69 0 2.38 0 0 Z " fill="#F7F7F7" transform="translate(48,56)"/>
<path d="M0 0 C0 3.10551666 -0.5393715 4.35261084 -2 7 C-2.66 7 -3.32 7 -4 7 C-4 7.99 -4 8.98 -4 10 C-4.99 10.495 -4.99 10.495 -6 11 C-6 11.99 -6 12.98 -6 14 C-11.61 14 -17.22 14 -23 14 C-23 13.67 -23 13.34 -23 13 C-21.5459375 12.814375 -21.5459375 12.814375 -20.0625 12.625 C-14.94262934 11.23532082 -12.19462956 7.14570879 -8.91796875 3.21484375 C-6.01706716 -0.13507724 -4.28277062 -0.11270449 0 0 Z " fill="#6C3495" transform="translate(97,95)"/>
<path d="M0 0 C4.52065428 -0.049377 9.04115217 -0.08570823 13.56201172 -0.10986328 C15.10045098 -0.11993118 16.63887107 -0.13358646 18.17724609 -0.15087891 C20.38644133 -0.17509317 22.59538395 -0.18647491 24.8046875 -0.1953125 C25.49432587 -0.20563507 26.18396423 -0.21595764 26.89450073 -0.22659302 C28.59800906 -0.22699478 30.30085943 -0.12191026 32 0 C34 2 34 2 34.22705078 3.87939453 C34.21657715 4.62302246 34.20610352 5.36665039 34.1953125 6.1328125 C34.18886719 6.93847656 34.18242188 7.74414062 34.17578125 8.57421875 C34.15902344 9.41597656 34.14226562 10.25773437 34.125 11.125 C34.11597656 11.97449219 34.10695312 12.82398437 34.09765625 13.69921875 C34.07405647 15.79959884 34.03818483 17.89983444 34 20 C29.96468007 15.96468007 29.30845869 9.42075742 28 4 C18.72065591 1.7549974 9.5006324 1.39327237 0 1 C0 0.67 0 0.34 0 0 Z " fill="#6090AD" transform="translate(74,71)"/>
<path d="M0 0 C1.18613892 0.00785522 1.18613892 0.00785522 2.39624023 0.01586914 C3.67724609 0.02070312 3.67724609 0.02070312 4.98413086 0.02563477 C5.88196289 0.03401367 6.77979492 0.04239258 7.70483398 0.05102539 C8.6065332 0.05553711 9.50823242 0.06004883 10.43725586 0.06469727 C12.67234712 0.07652315 14.90730835 0.09300319 17.14233398 0.11352539 C14.1361613 3.11969808 11.31851801 2.70937855 7.14233398 3.11352539 C7.08045898 3.67040039 7.01858398 4.22727539 6.95483398 4.80102539 C5.775999 8.15617111 3.84023685 9.85481602 1.14233398 12.11352539 C-0.17766602 12.11352539 -1.49766602 12.11352539 -2.85766602 12.11352539 C-2.88453881 10.30110487 -2.90400317 8.48857306 -2.92016602 6.67602539 C-2.93176758 5.66668945 -2.94336914 4.65735352 -2.95532227 3.61743164 C-2.82096043 0.17239409 -2.82096043 0.17239409 0 0 Z " fill="#C69058" transform="translate(74.857666015625,71.886474609375)"/>
<path d="M0 0 C1.65 0.33 3.3 0.66 5 1 C7.32692308 8.2257085 7.32692308 8.2257085 5.8125 11.8125 C4.28270804 13.65880064 2.77737345 15.39190021 1 17 C-0.32 16.34 -1.64 15.68 -3 15 C-2.01 10.05 -1.02 5.1 0 0 Z " fill="#3F4CAA" transform="translate(79,91)"/>
<path d="M0 0 C-0.42152344 0.48210937 -0.84304687 0.96421875 -1.27734375 1.4609375 C-1.82519531 2.09257813 -2.37304688 2.72421875 -2.9375 3.375 C-3.48277344 4.00148438 -4.02804688 4.62796875 -4.58984375 5.2734375 C-6.06958624 6.95632334 -6.06958624 6.95632334 -7 9 C-8.65 9 -10.3 9 -12 9 C-12.33 10.32 -12.66 11.64 -13 13 C-14.32 13 -15.64 13 -17 13 C-15.61961693 10.06832929 -14.04174667 7.48693977 -12.125 4.875 C-11.63257812 4.19179687 -11.14015625 3.50859375 -10.6328125 2.8046875 C-7.26547422 -0.91710744 -4.74893528 -1.31914869 0 0 Z " fill="#7F3193" transform="translate(99,75)"/>
<path d="M0 0 C0.7425 0.0825 1.485 0.165 2.25 0.25 C2.34765625 6.40234375 2.34765625 6.40234375 2.25 8.25 C1.25 9.25 1.25 9.25 -1.69140625 9.34765625 C-3.48384766 9.33025391 -3.48384766 9.33025391 -5.3125 9.3125 C-7.10880859 9.29896484 -7.10880859 9.29896484 -8.94140625 9.28515625 C-9.86824219 9.27355469 -10.79507813 9.26195313 -11.75 9.25 C-10.08333333 7.58333333 -8.41666667 5.91666667 -6.75 4.25 C-6.09 3.486875 -5.43 2.72375 -4.75 1.9375 C-2.75 0.25 -2.75 0.25 0 0 Z " fill="#B28F51" transform="translate(105.75,98.75)"/>
<path d="M0 0 C2.31 0.33 4.62 0.66 7 1 C6.69012383 3.25036286 6.37700182 5.50027894 6.0625 7.75 C5.88847656 9.00296875 5.71445313 10.2559375 5.53515625 11.546875 C5 15 5 15 4.37109375 17.328125 C3.79159779 19.10852941 3.79159779 19.10852941 5 21 C3.35 21 1.7 21 0 21 C0 18 0 18 1 15.1875 C2.0349168 11.88870271 2.31206294 9.43269236 2 6 C1.34 5.34 0.68 4.68 0 4 C0 2.68 0 1.36 0 0 Z " fill="#4084A8" transform="translate(73,87)"/>
<path d="M0 0 C4.56542317 -0.45654232 6.43657573 -0.41980632 10.1875 2.375 C11.115625 3.24125 12.04375 4.1075 13 5 C14.32 5.66 15.64 6.32 17 7 C11.39 7 5.78 7 0 7 C0 4.69 0 2.38 0 0 Z " fill="#F5F5F5" transform="translate(48,74)"/>
<path d="M0 0 C0 2.31 0 4.62 0 7 C-5.61 7 -11.22 7 -17 7 C-15.68 6.34 -14.36 5.68 -13 5 C-12.071875 4.13375 -11.14375 3.2675 -10.1875 2.375 C-6.43657573 -0.41980632 -4.56542317 -0.45654232 0 0 Z " fill="#F7F7F7" transform="translate(132,74)"/>
<path d="M0 0 C1.65 0.33 3.3 0.66 5 1 C5 4 5 4 3.46875 5.60546875 C1.64583333 7.0703125 -0.17708333 8.53515625 -2 10 C1.63 10.33 5.26 10.66 9 11 C9 11.33 9 11.66 9 12 C4.05 12 -0.9 12 -6 12 C-6 10.68 -6 9.36 -6 8 C-5.34 8 -4.68 8 -4 8 C-4 7.01 -4 6.02 -4 5 C-2.5625 3.4375 -2.5625 3.4375 -1 2 C-0.67 1.34 -0.34 0.68 0 0 Z " fill="#9E5273" transform="translate(97,97)"/>
<path d="M0 0 C0 2.31 0 4.62 0 7 C-5.61 7 -11.22 7 -17 7 C-15.68 6.34 -14.36 5.68 -13 5 C-11.86169849 4.14237557 -10.7363805 3.26723505 -9.625 2.375 C-6.35249877 -0.03520069 -4.11694077 -0.50206595 0 0 Z " fill="#F9F9F9" transform="translate(132,108)"/>
<path d="M0 0 C4.11694077 -0.50206595 6.35249877 -0.03520069 9.625 2.375 C10.44871094 3.03628906 10.44871094 3.03628906 11.2890625 3.7109375 C13.27596556 5.28884769 13.27596556 5.28884769 17 7 C11.39 7 5.78 7 0 7 C0 4.69 0 2.38 0 0 Z " fill="#F9F9F9" transform="translate(48,108)"/>
<path d="M0 0 C4.11694077 -0.50206595 6.35249877 -0.03520069 9.625 2.375 C10.44871094 3.03628906 10.44871094 3.03628906 11.2890625 3.7109375 C13.27596556 5.28884769 13.27596556 5.28884769 17 7 C11.39 7 5.78 7 0 7 C0 4.69 0 2.38 0 0 Z " fill="#FAFAFA" transform="translate(48,91)"/>
<path d="M0 0 C0 2.31 0 4.62 0 7 C-4.62 7 -9.24 7 -14 7 C-6.88621076 -0.30605381 -6.88621076 -0.30605381 0 0 Z " fill="#F9F9F9" transform="translate(132,65)"/>
<path d="M0 0 C3.23365818 -0.48504873 5.34508655 -0.39083545 8.1796875 1.30078125 C10.19466154 2.80304837 12.14667413 4.30190193 14 6 C14 6.33 14 6.66 14 7 C9.38 7 4.76 7 0 7 C0 4.69 0 2.38 0 0 Z " fill="#F8F8F8" transform="translate(48,65)"/>
<path d="M0 0 C0 2.31 0 4.62 0 7 C-4.62 7 -9.24 7 -14 7 C-6.88621076 -0.30605381 -6.88621076 -0.30605381 0 0 Z " fill="#F8F8F8" transform="translate(132,82)"/>
<path d="M0 0 C1.4540625 0.0309375 1.4540625 0.0309375 2.9375 0.0625 C-0.41594997 5.62779994 -3.18765362 10.05980074 -9.0625 13.0625 C-10.0525 13.0625 -11.0425 13.0625 -12.0625 13.0625 C-11.75 11.125 -11.75 11.125 -11.0625 9.0625 C-10.0725 8.7325 -9.0825 8.4025 -8.0625 8.0625 C-5.83318176 6.24989868 -5.83318176 6.24989868 -4.0625 4.0625 C-4.0625 3.0725 -4.0625 2.0825 -4.0625 1.0625 C-3.0625 0.0625 -3.0625 0.0625 0 0 Z " fill="#A36F6A" transform="translate(85.0625,73.9375)"/>
<path d="M0 0 C3.44008744 3.78409618 4.99567027 6.97835137 6 12 C5.625 14.4375 5.625 14.4375 5 16 C4.67 14.68 4.34 13.36 4 12 C3.21625 12.04125 2.4325 12.0825 1.625 12.125 C-1 12 -1 12 -3 10 C-2.67342446 6.24438133 -1.8830622 3.26397448 0 0 Z " fill="#3173A0" transform="translate(102,79)"/>
<path d="M0 0 C1.65 0.33 3.3 0.66 5 1 C4.57847656 1.48210937 4.15695313 1.96421875 3.72265625 2.4609375 C3.17480469 3.09257813 2.62695312 3.72421875 2.0625 4.375 C1.51722656 5.00148438 0.97195312 5.62796875 0.41015625 6.2734375 C-1.06958624 7.95632334 -1.06958624 7.95632334 -2 10 C-3.32 10 -4.64 10 -6 10 C-4.34832443 6.4213696 -2.21713508 3.25179812 0 0 Z " fill="#662CA3" transform="translate(94,74)"/>
<path d="M0 0 C0 3.10551666 -0.5393715 4.35261084 -2 7 C-3.32 6.67 -4.64 6.34 -6 6 C-6 5.34 -6 4.68 -6 4 C-6.66 3.67 -7.32 3.34 -8 3 C-5.53387212 -0.1151089 -3.89156016 -0.31553191 0 0 Z " fill="#6D388C" transform="translate(97,95)"/>
<path d="M0 0 C6.27 0 12.54 0 19 0 C16.08520867 2.91479133 12.91441455 2.42221067 9 2.5625 C3.84255203 2.56801973 3.84255203 2.56801973 -1 4 C-0.67 2.68 -0.34 1.36 0 0 Z " fill="#F7C19E" transform="translate(73,72)"/>
<path d="M0 0 C0.66 0.33 1.32 0.66 2 1 C2 4.96 2 8.92 2 13 C1.01 13.33 0.02 13.66 -1 14 C-1.66 13.34 -2.32 12.68 -3 12 C-2.5390625 9.1796875 -2.5390625 9.1796875 -1.625 5.875 C-1.32851562 4.77929688 -1.03203125 3.68359375 -0.7265625 2.5546875 C-0.48679687 1.71164063 -0.24703125 0.86859375 0 0 Z " fill="#3F62AF" transform="translate(79,94)"/>
<path d="M0 0 C2.475 0.495 2.475 0.495 5 1 C4.5205537 5.21912747 3.83374881 7.79663178 1 11 C0.83197949 9.54182203 0.66562857 8.0834516 0.5 6.625 C0.4071875 5.81289062 0.314375 5.00078125 0.21875 4.1640625 C0 2 0 2 0 0 Z " fill="#455BB6" transform="translate(98,74)"/>
<path d="M0 0 C0.66 0.66 1.32 1.32 2 2 C0.93283928 3.20205464 -0.15438337 4.38632333 -1.25 5.5625 C-2.15492187 6.55443359 -2.15492187 6.55443359 -3.078125 7.56640625 C-5 9 -5 9 -7.234375 8.71484375 C-7.81703125 8.47894531 -8.3996875 8.24304688 -9 8 C-9 7.01 -9 6.02 -9 5 C-7.02 5 -5.04 5 -3 5 C-2.814375 4.0409375 -2.814375 4.0409375 -2.625 3.0625 C-2.41875 2.381875 -2.2125 1.70125 -2 1 C-1.34 0.67 -0.68 0.34 0 0 Z " fill="#5D358D" transform="translate(89,83)"/>
<path d="M0 0 C-0.556875 0.268125 -1.11375 0.53625 -1.6875 0.8125 C-4.19966601 2.10253119 -6.58900526 3.52988126 -9 5 C-11.5 6.5 -11.5 6.5 -14 8 C-13.12269491 5.29497597 -12.28331029 3.31599994 -10.375 1.1875 C-6.84016181 -0.5799191 -3.92581331 -0.19629067 0 0 Z " fill="#A94CA9" transform="translate(98,73)"/>
<path d="M0 0 C3.39208378 3.39208378 4.02657897 5.37625011 5 10 C4.625 12.4375 4.625 12.4375 4 14 C3.896875 13.360625 3.79375 12.72125 3.6875 12.0625 C3.460625 11.381875 3.23375 10.70125 3 10 C2.01 9.67 1.02 9.34 0 9 C0 6.03 0 3.06 0 0 Z " fill="#3D9B9E" transform="translate(103,81)"/>
<path d="M0 0 C2.05078125 0.03255208 4.1015625 0.06510417 6.15234375 0.09765625 C4.01802233 3.29913838 3.46814479 3.61972364 0.02734375 4.78515625 C-0.69710937 5.03652344 -1.4215625 5.28789063 -2.16796875 5.546875 C-2.99941406 5.81951172 -2.99941406 5.81951172 -3.84765625 6.09765625 C-2.77957394 0.14691194 -2.77957394 0.14691194 0 0 Z " fill="#F0AD57" transform="translate(75.84765625,73.90234375)"/>
<path d="M0 0 C2.31 0.33 4.62 0.66 7 1 C6.67 2.32 6.34 3.64 6 5 C4.35 5 2.7 5 1 5 C0.67 3.35 0.34 1.7 0 0 Z " fill="#658789" transform="translate(73,87)"/>
<path d="M0 0 C0.5625 1.9375 0.5625 1.9375 1 4 C0 5 0 5 -2.06640625 5.09765625 C-2.89011719 5.08605469 -3.71382813 5.07445313 -4.5625 5.0625 C-5.38878906 5.05347656 -6.21507813 5.04445313 -7.06640625 5.03515625 C-7.70449219 5.02355469 -8.34257813 5.01195313 -9 5 C-6.08596738 3.05731159 -3.14191424 1.53604696 0 0 Z " fill="#E5A84D" transform="translate(107,103)"/>
<path d="M0 0 C1.32 0.33 2.64 0.66 4 1 C3.34 2.32 2.68 3.64 2 5 C0.02 5 -1.96 5 -4 5 C-2.68 3.35 -1.36 1.7 0 0 Z " fill="#683DB4" transform="translate(84,103)"/>
<path d="M0 0 C0.94875 0.04125 1.8975 0.0825 2.875 0.125 C-1.875 5 -1.875 5 -4.125 6.125 C-4.75 4.25 -4.75 4.25 -5.125 2.125 C-3.125 0.125 -3.125 0.125 0 0 Z " fill="#D16D80" transform="translate(85.125,73.875)"/>
<path d="M0 0 C0.66 0.33 1.32 0.66 2 1 C1.67 2.32 1.34 3.64 1 5 C-1.31 5.33 -3.62 5.66 -6 6 C-4 4 -2 2 0 0 Z " fill="#D27D6D" transform="translate(100,102)"/>
<path d="M0 0 C2 1.8125 2 1.8125 4 4 C4 4.99 4 5.98 4 7 C2.68 7.33 1.36 7.66 0 8 C-0.79953138 4.71303767 -1.09658936 3.28976808 0 0 Z " fill="#443D89" transform="translate(94,88)"/>
<path d="M0 0 C1.65 0.33 3.3 0.66 5 1 C5 1.99 5 2.98 5 4 C3.02 4 1.04 4 -1 4 C-0.67 2.68 -0.34 1.36 0 0 Z " fill="#825D6D" transform="translate(97,97)"/>
<path d="M0 0 C1.98 0 3.96 0 6 0 C5.67 1.32 5.34 2.64 5 4 C3.02 3.34 1.04 2.68 -1 2 C-0.67 1.34 -0.34 0.68 0 0 Z " fill="#596372" transform="translate(98,94)"/>
<path d="M0 0 C2.475 0.495 2.475 0.495 5 1 C5.33 2.32 5.66 3.64 6 5 C4.35 4.67 2.7 4.34 1 4 C0.67 2.68 0.34 1.36 0 0 Z " fill="#474E9A" transform="translate(79,91)"/>
<path d="M0 0 C0.99 0.33 1.98 0.66 3 1 C3.6875 3.0625 3.6875 3.0625 4 5 C1.03 4.505 1.03 4.505 -2 4 C-2 3.01 -2 2.02 -2 1 C-1.34 0.67 -0.68 0.34 0 0 Z " fill="#41827E" transform="translate(103,90)"/>
<path d="M0 0 C0.33 0 0.66 0 1 0 C0.67 2.97 0.34 5.94 0 9 C-0.99 9.33 -1.98 9.66 -3 10 C-2.69201674 8.51988629 -2.378482 7.04092675 -2.0625 5.5625 C-1.88847656 4.73878906 -1.71445313 3.91507812 -1.53515625 3.06640625 C-1 1 -1 1 0 0 Z " fill="#413EA6" transform="translate(97,77)"/>
<path d="M0 0 C4.95 0 9.9 0 15 0 C15.33 0.99 15.66 1.98 16 3 C15.01 2.67 14.02 2.34 13 2 C10.77425665 1.77548542 8.54418481 1.59217122 6.3125 1.4375 C5.13300781 1.35371094 3.95351562 1.26992187 2.73828125 1.18359375 C1.83464844 1.12300781 0.93101563 1.06242187 0 1 C0 0.67 0 0.34 0 0 Z " fill="#A2A0F4" transform="translate(92,72)"/>
<path d="M0 0 C0.66 0 1.32 0 2 0 C2.33 1.65 2.66 3.3 3 5 C1.35 5 -0.3 5 -2 5 C-2 2 -2 2 0 0 Z " fill="#477FB1" transform="translate(75,103)"/>
<path d="M0 0 C0.66 0.66 1.32 1.32 2 2 C-0.75 6.875 -0.75 6.875 -3 8 C-1.125 1.125 -1.125 1.125 0 0 Z " fill="#493DAC" transform="translate(84,98)"/>
<path d="M0 0 C1.485 0.99 1.485 0.99 3 2 C3 3.32 3 4.64 3 6 C2.01 6 1.02 6 0 6 C-0.38218767 4.34385343 -0.71395102 2.67542976 -1 1 C-0.67 0.67 -0.34 0.34 0 0 Z " fill="#375A87" transform="translate(98,88)"/>
<path d="M0 0 C2.625 0.375 2.625 0.375 5 1 C3.515 2.485 3.515 2.485 2 4 C0.68 3.34 -0.64 2.68 -2 2 C-1.34 1.34 -0.68 0.68 0 0 Z " fill="#6E3EB7" transform="translate(94,74)"/>
<path d="M0 0 C0.99 0.33 1.98 0.66 3 1 C1.35 2.65 -0.3 4.3 -2 6 C-2.33 5.34 -2.66 4.68 -3 4 C-2.01 2.68 -1.02 1.36 0 0 Z " fill="#AF6471" transform="translate(98,100)"/>
</svg>
