<svg width="1080" height="945" viewBox="0 0 1080 945" fill="none" xmlns="http://www.w3.org/2000/svg">
<path d="M1079.93 741.143C1079.98 687.167 1055.48 635.381 1011.82 597.152C968.161 558.92 908.9 537.371 847.051 537.233H588.846C587.223 516.233 586.197 494.762 586.197 472.5C586.197 450.239 585.174 428.871 583.733 407.768H847.051C908.364 406.91 966.835 385.05 1009.85 346.91C1052.86 308.766 1076.96 257.397 1076.96 203.884C1076.96 150.37 1052.86 99.0013 1009.85 60.8591C966.835 22.7168 908.364 0.858668 847.051 2.69769e-05L229.931 0C168.618 0.858637 110.149 22.7168 67.137 60.8591C24.1254 99.0013 0.0195634 150.37 0.0195634 203.884C0.0195634 257.397 24.1254 308.766 67.137 346.91C110.149 385.05 168.618 406.91 229.931 407.768L472.47 413.438C489.344 413.438 490.785 450.239 490.785 472.5C490.785 494.762 491.807 516.129 493.252 537.233H229.931C168.618 538.09 110.149 559.95 67.137 598.091C24.1254 636.235 0.0195312 687.602 0.0195312 741.116C0.0195312 794.63 24.1254 845.998 67.137 884.142C110.149 922.283 168.618 944.143 229.931 945H847.051C908.89 944.862 968.141 923.319 1011.8 885.101C1055.46 846.882 1079.96 795.11 1079.93 741.143ZM984.516 203.857C984.533 235.712 970.068 266.271 944.298 288.829C918.525 311.388 883.552 324.104 847.051 324.188L573.626 324.187C563.721 264.536 544.849 206.284 517.496 150.937C505.435 126.957 489.995 104.383 471.535 83.7375H847.051C883.512 83.8209 918.448 96.5082 944.214 119.021C969.977 141.535 984.468 172.04 984.516 203.857ZM229.931 324.187C193.362 324.187 158.29 311.51 132.431 288.944C106.572 266.377 92.0449 235.771 92.0449 203.857C92.0449 171.944 106.572 141.338 132.431 118.771C158.29 96.2051 193.362 83.5276 229.931 83.5276H291.836C346.52 83.5276 398.319 121.328 430.565 184.695C452.64 229.345 468.339 276.194 477.309 324.187H229.931ZM92.4661 741.143C92.4502 709.287 106.914 678.729 132.685 656.171C158.457 633.612 193.43 620.895 229.931 620.811H503.359C513.264 680.464 532.136 738.717 559.489 794.063C571.547 818.043 586.986 840.618 605.45 861.263H229.931C193.472 861.179 158.535 848.492 132.77 825.977C107.006 803.466 92.5137 772.959 92.4661 741.143ZM646.781 760.307C624.706 715.655 609.007 668.807 600.037 620.811H847.051C883.623 620.811 918.694 633.491 944.551 656.056C970.412 678.621 984.937 709.229 984.937 741.143C984.937 773.057 970.412 803.662 944.551 826.23C918.694 848.796 883.623 861.472 847.051 861.472H785.147C730.702 861.472 678.905 823.672 646.781 760.307Z" fill="url(#paint0_linear_2154_8443)"/>
<path opacity="0.8" d="M1079.93 203.857C1079.98 257.832 1055.48 309.619 1011.82 347.848C968.158 386.08 908.9 407.629 847.047 407.767H588.835C587.212 428.767 586.19 450.238 586.19 472.5C586.19 494.762 585.167 516.129 583.723 537.233H847.047C908.363 538.09 966.831 559.95 1009.84 598.091C1052.86 636.235 1076.96 687.602 1076.96 741.116C1076.96 794.63 1052.86 845.998 1009.84 884.142C966.831 922.283 908.363 944.143 847.047 945H229.916C168.601 944.143 110.131 922.283 67.1187 884.142C24.1064 845.998 0 794.63 0 741.116C0 687.602 24.1064 636.235 67.1187 598.091C110.131 559.95 168.601 538.09 229.916 537.233L472.459 531.562C489.333 531.562 490.774 494.762 490.774 472.5C490.774 450.238 491.797 428.871 493.241 407.767H229.916C168.601 406.91 110.131 385.05 67.1187 346.91C24.1064 308.766 0 257.397 0 203.884C0 150.37 24.1064 99.0012 67.1187 60.859C110.131 22.7169 168.601 0.858607 229.916 0L847.047 7.3597e-06C908.886 0.139054 968.141 21.6816 1011.8 59.9002C1055.46 98.119 1079.96 149.892 1079.93 203.857ZM984.515 741.143C984.532 709.29 970.068 678.729 944.295 656.171C918.525 633.612 883.548 620.895 847.047 620.811H573.615C563.71 680.464 544.838 738.717 517.486 794.063C505.424 818.043 489.985 840.618 471.521 861.263H847.047C883.508 861.178 918.444 848.492 944.21 825.977C969.973 803.466 984.468 772.959 984.515 741.143ZM229.916 620.811C193.346 620.811 158.273 633.491 132.414 656.056C106.555 678.621 92.0269 709.229 92.0269 741.143C92.0269 773.057 106.555 803.662 132.414 826.227C158.273 848.796 193.346 861.472 229.916 861.472H291.822C346.509 861.472 398.305 823.672 430.551 760.306C452.626 715.655 468.325 668.807 477.299 620.811H229.916ZM92.4485 203.857C92.4323 235.712 106.897 266.271 132.668 288.829C158.44 311.388 193.414 324.104 229.916 324.187H503.349C513.254 264.536 532.126 206.284 559.478 150.937C571.54 126.957 586.979 104.383 605.439 83.7375H229.916C193.455 83.8208 158.518 96.5081 132.753 119.021C106.988 141.535 92.496 172.04 92.4485 203.857ZM646.77 184.695C624.696 229.345 608.996 276.194 600.026 324.187H847.047C883.619 324.187 918.69 311.51 944.551 288.944C970.409 266.377 984.937 235.771 984.937 203.857C984.937 171.944 970.409 141.338 944.551 118.771C918.69 96.2051 883.619 83.5275 847.047 83.5275H785.143C730.694 83.5275 678.898 121.328 646.77 184.695Z" fill="url(#paint1_linear_2154_8443)"/>
<defs>
<linearGradient id="paint0_linear_2154_8443" x1="80.4761" y1="59.8499" x2="895.356" y2="991.084" gradientUnits="userSpaceOnUse">
<stop stop-color="#8E59FF"/>
<stop offset="1" stop-color="#6888F9"/>
</linearGradient>
<linearGradient id="paint1_linear_2154_8443" x1="80.4582" y1="885.151" x2="895.339" y2="-46.0974" gradientUnits="userSpaceOnUse">
<stop stop-color="#8E59FF"/>
<stop offset="1" stop-color="#6888F9"/>
</linearGradient>
</defs>
</svg>