<?xml version="1.0" encoding="UTF-8"?>
<svg version="1.1" xmlns="http://www.w3.org/2000/svg" width="400" height="139">
<path d="M0 0 C0.99 0.66 1.98 1.32 3 2 C3.66 0.68 4.32 -0.64 5 -2 C7.97 -2 10.94 -2 14 -2 C14 14.17 14 30.34 14 47 C10.7 47 7.4 47 4 47 C3.505 45.02 3.505 45.02 3 43 C2.071875 43.639375 1.14375 44.27875 0.1875 44.9375 C-5.38392641 48.54254062 -10.5165984 48.75427809 -17 48 C-25.0379068 45.26779191 -31.15832323 40.59368421 -35.2109375 33.015625 C-37.78131314 26.44971494 -37.50167517 19.51251307 -35 13 C-31.77413409 6.07036211 -27.24891528 1.16188819 -20.125 -1.875 C-12.82366648 -4.24758033 -6.723868 -3.49641136 0 0 Z M-24.375 13.5625 C-26.67581945 18.42961808 -26.78113802 22.70562006 -26 28 C-23.8420719 32.39577946 -21.17915812 35.43551661 -17 38 C-10.98799313 39.45451779 -7.4956658 39.21444603 -2 36 C2.21426077 31.90552442 4.1605285 28.60490218 4.3125 22.75 C4.25262335 17.66048438 3.55794229 14.83883247 0 11 C-4.35061345 7.06373068 -7.91777006 6.36116081 -13.6015625 6.6171875 C-18.51089679 7.40076203 -21.10654542 10.03600953 -24.375 13.5625 Z " fill="#2190B1" transform="translate(294,51)"/>
<path d="M0 0 C0.495 0.495 0.495 0.495 1 1 C1.66 -0.32 2.32 -1.64 3 -3 C5.97 -3 8.94 -3 12 -3 C12 13.17 12 29.34 12 46 C8.7 46 5.4 46 2 46 C1.505 44.02 1.505 44.02 1 42 C0.071875 42.639375 -0.85625 43.27875 -1.8125 43.9375 C-7.40211032 47.55430668 -12.50213665 47.63414977 -19 47 C-26.37588585 44.81664729 -31.88594148 41.20721522 -35.75 34.5 C-39.4213245 27.71502055 -39.81954401 21.57912977 -37.9375 14.0625 C-35.72588982 7.24077282 -31.44649042 2.24289425 -25.3125 -1.4375 C-16.3817259 -5.65012929 -8.53986714 -4.74648866 0 0 Z M-25.1875 11.3125 C-28.48590761 16.20324232 -29.48678546 20.27949077 -28.5390625 26.04296875 C-27.3752134 30.26824699 -25.11300412 33.10341335 -21.75 35.8125 C-16.54002075 38.06226377 -12.67967614 38.48397448 -7.3125 36.9375 C-2.99091999 34.40978339 -0.26987366 31.53974732 2 27 C2.52113171 21.77159666 2.64273534 17.35963246 0.375 12.5625 C-2.89922621 9.02978225 -5.49315734 6.35812038 -10.43359375 5.65234375 C-16.98698332 5.42837947 -20.60992375 6.47334797 -25.1875 11.3125 Z " fill="#2290B2" transform="translate(195,52)"/>
<path d="M0 0 C4.69191015 4.12106108 8.98833132 8.67707078 10 15 C10 18.63 10 22.26 10 26 C-2.54 26 -15.08 26 -28 26 C-25.04692009 32.21657668 -25.04692009 32.21657668 -20 36 C-13.97321785 37.45809245 -10.54460262 37.15281325 -5 34 C-4.5565625 33.30777344 -4.113125 32.61554688 -3.65625 31.90234375 C-2 30 -2 30 0.69921875 29.609375 C1.68535156 29.65578125 2.67148437 29.7021875 3.6875 29.75 C4.68136719 29.78609375 5.67523438 29.8221875 6.69921875 29.859375 C7.45847656 29.90578125 8.21773438 29.9521875 9 30 C5.69738761 37.66206075 1.93999089 41.76981648 -5.3125 45.875 C-12.91410566 48.19413393 -19.93121326 47.63764531 -27 44 C-32.64473049 40.64004137 -36.69250152 34.14819457 -38.65625 27.91796875 C-40.12686645 19.71259742 -38.12821079 12.95239146 -34.25 5.75 C-25.47030413 -4.98073939 -11.85602169 -7.034823 0 0 Z M-26.8125 12 C-28.25681226 14.21479091 -28.25681226 14.21479091 -29 18 C-19.43 18 -9.86 18 0 18 C-1.08735432 12.5632284 -2.00279974 11.52134308 -6 8 C-13.33354288 3.11097141 -21.20549254 5.81295729 -26.8125 12 Z " fill="#2292B3" transform="translate(383,52)"/>
<path d="M0 0 C2.88437779 1.29299694 4.87219421 2.65941363 7 5 C5.03456963 9.25108096 2.13706669 12.32323711 -1.0625 15.6875 C-1.69575195 16.35942383 -2.32900391 17.03134766 -2.98144531 17.72363281 C-10.69030911 25.83388793 -18.64919619 33.70283239 -26.60571289 41.5690918 C-27.13779861 42.09687729 -27.66988434 42.62466278 -28.21809387 43.16844177 C-29.67764303 44.61587347 -31.14000206 46.0604702 -32.60253906 47.50488281 C-34.60294918 49.58677603 -36.34333114 51.64259194 -38 54 C-36.45872649 57.71268094 -34.19156766 59.98115698 -31.3125 62.75 C-28.31241391 65.68598169 -25.39678187 68.60628954 -22.6875 71.8125 C-18.95391943 76.18460267 -14.8590177 80.16767557 -10.77392578 84.20654297 C-7.18532266 87.77017466 -3.77518749 91.42081048 -0.5 95.27734375 C1.86470366 97.99305811 4.42333018 100.48617579 7 103 C5.70700306 105.88437779 4.34058637 107.87219421 2 110 C-1.08347822 108.63927139 -3.05474497 107.1399833 -5.3203125 104.65625 C-5.93326172 103.99173828 -6.54621094 103.32722656 -7.17773438 102.64257812 C-7.82033203 101.93552734 -8.46292969 101.22847656 -9.125 100.5 C-10.47000172 99.04041923 -11.81635695 97.58208455 -13.1640625 96.125 C-14.14681152 95.06152344 -14.14681152 95.06152344 -15.14941406 93.9765625 C-17.54211074 91.42098568 -20.00539936 88.95622217 -22.5 86.5 C-25.22445342 83.81121864 -27.83215734 81.10235524 -30.3125 78.1875 C-34.04367691 73.80626124 -38.15108962 69.81877896 -42.29418945 65.83081055 C-46.04521797 62.16119094 -49.05240448 58.34469006 -52 54 C-51.23707642 53.24493164 -51.23707642 53.24493164 -50.45874023 52.47460938 C-48.11559272 50.15248022 -45.77653398 47.8262723 -43.4375 45.5 C-42.63763672 44.70851562 -41.83777344 43.91703125 -41.01367188 43.1015625 C-37.47141192 39.57376074 -33.98542512 36.05192287 -30.74609375 32.2421875 C-25.40709331 26.02744516 -19.44750466 20.38092551 -13.625 14.625 C-11.26015669 12.28672085 -8.89863758 9.94515631 -6.5390625 7.6015625 C-5.9974649 7.06826324 -5.45586731 6.53496399 -4.89785767 5.98550415 C-2.09786206 3.25985389 -2.09786206 3.25985389 0 0 Z " fill="#258EAE" transform="translate(116,20)"/>
<path d="M0 0 C4.31708494 3.38540635 7.39350823 7.45035958 9.015625 12.74609375 C8.685625 13.40609375 8.355625 14.06609375 8.015625 14.74609375 C4.28805357 14.67647866 0.67183111 14.50554309 -2.984375 13.74609375 C-4.921875 11.30859375 -4.921875 11.30859375 -5.984375 8.74609375 C-10.33874403 5.93651196 -14.98097103 6.09896579 -19.984375 6.74609375 C-23.21891457 8.36336353 -25.18450313 9.64150878 -27.296875 12.55859375 C-29.22666228 18.698826 -29.30095218 23.78560327 -26.984375 29.74609375 C-25.0061526 32.99603055 -23.63352403 34.42151924 -20.234375 36.12109375 C-14.85147505 37.15626682 -10.75209468 36.89895441 -6.109375 33.87109375 C-3.8372879 31.73792224 -3.8372879 31.73792224 -1.984375 28.74609375 C0.6171875 28.453125 0.6171875 28.453125 3.640625 28.55859375 C5.14496094 28.59919922 5.14496094 28.59919922 6.6796875 28.640625 C7.45054687 28.67542969 8.22140625 28.71023437 9.015625 28.74609375 C5.92680613 36.87456446 1.86703458 41.89176541 -5.984375 45.74609375 C-12.63721485 47.79207912 -19.80439429 47.49281068 -26.17578125 44.7109375 C-32.62493104 41.27046234 -36.35266044 36.50886622 -38.984375 29.74609375 C-40.73122826 22.40502331 -40.28802859 15.5683647 -36.984375 8.74609375 C-32.85094093 2.57790218 -27.9685605 -1.32454412 -21.046875 -4.00390625 C-13.37134576 -4.93427343 -6.63479527 -4.19245922 0 0 Z " fill="#2293B5" transform="translate(143.984375,52.25390625)"/>
<path d="M0 0 C3.54120058 1.50910012 5.81604365 3.57119314 8.51953125 6.2890625 C9.37740234 7.14886719 10.23527344 8.00867188 11.11914062 8.89453125 C12.45235352 10.24611328 12.45235352 10.24611328 13.8125 11.625 C14.68970703 12.50285156 15.56691406 13.38070313 16.47070312 14.28515625 C20.90258665 18.74687295 25.17104973 23.27958961 29.26879883 28.04833984 C32.49775282 31.68848344 35.97756904 35.081221 39.4375 38.5 C40.16904297 39.22703125 40.90058594 39.9540625 41.65429688 40.703125 C43.43389824 42.47109499 45.21580918 44.23666378 47 46 C52.0834624 41.78761683 56.65992067 37.35761377 61.125 32.5 C61.71925781 31.86191406 62.31351562 31.22382812 62.92578125 30.56640625 C65.6468347 27.62911014 68.27024033 24.68173465 70.7421875 21.53125 C71.48726563 20.6959375 72.23234375 19.860625 73 19 C73.99 19 74.98 19 76 19 C78.1875 21.5 78.1875 21.5 80 24 C78.7251997 27.6863273 77.35345041 30.00491615 74.55078125 32.70703125 C73.86693359 33.37669922 73.18308594 34.04636719 72.47851562 34.73632812 C71.40633789 35.7640332 71.40633789 35.7640332 70.3125 36.8125 C65.50234901 41.47107996 60.87404591 46.17315247 56.50708008 51.25268555 C54.79738012 53.23491827 53.02762577 55.13832709 51.1875 57 C50.62417969 57.5775 50.06085937 58.155 49.48046875 58.75 C48 60 48 60 46 60 C44.765625 58.7421875 44.765625 58.7421875 43.25 56.875 C39.17739179 52.06658442 34.73888398 47.68039977 30.23925781 43.27685547 C27.2537571 40.33410055 24.39699452 37.34732978 21.66796875 34.1640625 C16.70388915 28.41121962 11.20116856 23.19062177 5.76367188 17.890625 C1.64011711 13.82266137 -2.05965072 10.00588391 -5 5 C-3.35 3.35 -1.7 1.7 0 0 Z " fill="#C86993" transform="translate(9,8)"/>
<path d="M0 0 C3.3 0 6.6 0 10 0 C16.72414839 17.16924407 16.72414839 17.16924407 19.4375 24.4375 C19.89962891 25.67306641 19.89962891 25.67306641 20.37109375 26.93359375 C21 29 21 29 21 32 C21.66 32 22.32 32 23 32 C23.24621094 30.7521875 23.49242187 29.504375 23.74609375 28.21875 C25.02640471 22.46129879 27.01058757 17.02070895 29.0625 11.5 C29.42666016 10.4996875 29.79082031 9.499375 30.16601562 8.46875 C32.85925752 1.14074248 32.85925752 1.14074248 34 0 C35.68608966 -0.07205511 37.37500659 -0.08386068 39.0625 -0.0625 C39.98160156 -0.05347656 40.90070313 -0.04445312 41.84765625 -0.03515625 C42.55792969 -0.02355469 43.26820313 -0.01195312 44 0 C43.39845117 3.36564147 42.56486453 6.42216302 41.32592773 9.60668945 C40.98565048 10.48722488 40.64537323 11.36776031 40.29478455 12.27497864 C39.92809158 13.2116185 39.56139862 14.14825836 39.18359375 15.11328125 C38.80767593 16.08283249 38.43175812 17.05238373 38.04444885 18.05131531 C36.84593802 21.13987111 35.64179947 24.22619733 34.4375 27.3125 C33.62267458 29.40936057 32.80821713 31.50636418 31.99414062 33.60351562 C30.00035666 38.73734288 28.00195082 43.86935232 26 49 C23.36 49 20.72 49 18 49 C15.58883611 42.98934373 13.18707786 36.97499154 10.79174805 30.95800781 C9.97619007 28.91255276 9.1585017 26.86794578 8.33862305 24.82421875 C7.15890164 21.88242709 5.98693539 18.93764679 4.81640625 15.9921875 C4.44971329 15.0825827 4.08302032 14.17297791 3.70521545 13.23580933 C1.9608847 8.82502235 0.52336508 4.75475467 0 0 Z " fill="#2193B4" transform="translate(212,49)"/>
<path d="M0 0 C4.12644557 1.58634582 6.63245198 4.59208806 9.5 7.8125 C10.56104794 8.98320886 11.62225059 10.15377752 12.68359375 11.32421875 C13.22741699 11.9279834 13.77124023 12.53174805 14.33154297 13.15380859 C17.05276074 16.16490734 19.80822077 19.1441728 22.5625 22.125 C23.06265625 22.66874268 23.5628125 23.21248535 24.078125 23.77270508 C25.9586374 25.81389825 27.82794526 27.83705833 29.84375 29.74609375 C31 31 31 31 30.9375 32.9375 C29.73517379 35.58261767 28.20524279 37.1288849 26 39 C24 39 24 39 22.66015625 37.671875 C22.13292969 37.03765625 21.60570312 36.4034375 21.0625 35.75 C17.90362205 32.03484166 14.67131718 28.40524658 11.375 24.8125 C10.9200415 24.31395508 10.46508301 23.81541016 9.99633789 23.30175781 C7.07464513 20.11599609 4.07493083 17.03607792 1 14 C-2.56317721 17.46570428 -6.02227675 20.96738971 -9.25 24.75 C-12.62181079 28.66859091 -16.2567569 32.2906819 -19.93676758 35.91503906 C-23.30136058 39.2476105 -26.44485786 42.69814044 -29.46484375 46.34375 C-31.1556235 48.16789914 -32.97399666 49.56473198 -35 51 C-37.97 47.535 -37.97 47.535 -41 44 C-40.07058594 43.0821875 -39.14117187 42.164375 -38.18359375 41.21875 C-29.68860242 32.80939432 -29.68860242 32.80939432 -21.703125 23.921875 C-19.56600337 21.51026068 -17.29205721 19.26460743 -15 17 C-9.58610706 11.64378933 -4.52389419 6.13088944 0 0 Z " fill="#2D5374" transform="translate(55,81)"/>
<path d="M0 0 C1.46728516 1.47094727 1.46728516 1.47094727 3.1640625 3.50390625 C6.78708136 7.76324943 10.54568297 11.86363157 14.375 15.9375 C15.02404297 16.63262695 15.67308594 17.32775391 16.34179688 18.04394531 C20.62655268 22.61221979 25.01276033 26.99706551 29.65625 31.203125 C31 33 31 33 30.9140625 35.03125 C29.85934083 37.30295822 28.7127253 38.55237035 26.875 40.25 C24.2934139 42.71591422 21.88214117 45.22325321 19.5625 47.9375 C16.52786735 51.46093255 13.30316056 54.72209449 9.984375 57.9765625 C7.37779725 60.63445083 5.00145653 63.45939034 2.640625 66.3359375 C0.88705151 68.11456204 -0.71881589 69.01809901 -3 70 C-4.65 68.35 -6.3 66.7 -8 65 C-6.45872649 61.28731906 -4.19156766 59.01884302 -1.3125 56.25 C2.42302603 52.59498099 5.93309327 48.86348501 9.328125 44.89453125 C12.07253502 41.78462737 15.02793506 38.89076226 18 36 C16.63739753 32.97883015 15.080215 30.79224738 12.8046875 28.390625 C12.17433594 27.72192383 11.54398438 27.05322266 10.89453125 26.36425781 C10.22808594 25.66655273 9.56164062 24.96884766 8.875 24.25 C8.20082031 23.53424805 7.52664062 22.81849609 6.83203125 22.08105469 C2.73910209 17.75351157 -1.4267001 13.54452574 -5.875 9.578125 C-7 8 -7 8 -6.80859375 5.9375 C-5.51880758 2.84699788 -3.52647737 0 0 0 Z " fill="#D56E94" transform="translate(17,40)"/>
<path d="M0 0 C3.3 0 6.6 0 10 0 C10.33 4.95 10.66 9.9 11 15 C12.98 15 14.96 15 17 15 C18 16 18 16 18.09765625 18.06640625 C18.08605469 18.89011719 18.07445312 19.71382812 18.0625 20.5625 C18.05347656 21.38878906 18.04445313 22.21507813 18.03515625 23.06640625 C18.02355469 23.70449219 18.01195312 24.34257813 18 25 C15.36 25 12.72 25 10 25 C10 37.87 10 50.74 10 64 C6.7 64 3.4 64 0 64 C0 51.13 0 38.26 0 25 C-1.98 25 -3.96 25 -6 25 C-6 21.7 -6 18.4 -6 15 C-4.35 15 -2.7 15 -1 15 C-0.67 10.05 -0.34 5.1 0 0 Z " fill="#2796B9" transform="translate(323,34)"/>
<path d="M0 0 C2.97 0 5.94 0 9 0 C9 15.84 9 31.68 9 48 C6.03 48 3.06 48 0 48 C-0.185625 46.576875 -0.185625 46.576875 -0.375 45.125 C-0.71687177 41.91332809 -0.71687177 41.91332809 -3 40 C-5.12364481 39.77390663 -5.12364481 39.77390663 -6.625 41.5 C-7.07875 41.995 -7.5325 42.49 -8 43 C-8.66 42.67 -9.32 42.34 -10 42 C-9.4225 41.13375 -8.845 40.2675 -8.25 39.375 C-7.8890625 38.81941406 -7.528125 38.26382813 -7.15625 37.69140625 C-6 36 -6 36 -3.75 33.3125 C-1.22851301 28.53968534 -1.22035898 24.29210871 -2 19 C-4.23321294 14.36815095 -6.58121286 12.45488174 -11 10 C-11 9.34 -11 8.68 -11 8 C-11.66 7.67 -12.32 7.34 -13 7 C-12.34 7 -11.68 7 -11 7 C-11.33 5.02 -11.66 3.04 -12 1 C-9.5625 1.375 -9.5625 1.375 -7 2 C-6.67 2.66 -6.34 3.32 -6 4 C-3.47266765 4.65555119 -3.47266765 4.65555119 -1 5 C-0.67 3.35 -0.34 1.7 0 0 Z " fill="#2495B7" transform="translate(299,49)"/>
<path d="M0 0 C0.99 0.66 1.98 1.32 3 2 C3.33 1.01 3.66 0.02 4 -1 C6.97 -1 9.94 -1 13 -1 C13 14.51 13 30.02 13 46 C10.36 46 7.72 46 5 46 C5 43.36 5 40.72 5 38 C1.26360784 39.24546405 0.81243487 40.63404953 -1 44 C-1.99 43.67 -2.98 43.34 -4 43 C-4 42.34 -4 41.68 -4 41 C-3.01 40.505 -3.01 40.505 -2 40 C-2.268125 39.46375 -2.53625 38.9275 -2.8125 38.375 C-3 36 -3 36 -0.625 32.875 C0.24125 31.92625 1.1075 30.9775 2 30 C3.9721491 26.05570181 3.44867961 21.29883571 3 17 C1.01031547 13.08924075 -0.36533646 11.42310902 -4 9 C-4 8.01 -4 7.02 -4 6 C-4.66 6 -5.32 6 -6 6 C-6.66 4.35 -7.32 2.7 -8 1 C-4.93240944 -0.8624657 -3.38040761 -1.30854488 0 0 Z " fill="#269FC4" transform="translate(193,51)"/>
<path d="M0 0 C0.99 0 1.98 0 3 0 C5.1875 2.5 5.1875 2.5 7 5 C5.7251997 8.6863273 4.35345041 11.00491615 1.55078125 13.70703125 C0.86693359 14.37669922 0.18308594 15.04636719 -0.52148438 15.73632812 C-1.23626953 16.42146484 -1.95105469 17.10660156 -2.6875 17.8125 C-7.49765099 22.47107996 -12.12595409 27.17315247 -16.49291992 32.25268555 C-18.20261988 34.23491827 -19.97237423 36.13832709 -21.8125 38 C-22.37582031 38.5775 -22.93914063 39.155 -23.51953125 39.75 C-25 41 -25 41 -27 41 C-29.57886958 38.65731402 -31.50214169 36.14550245 -33 33 C-32.93009908 29.75959311 -32.15806923 27.01377052 -31 24 C-31.99 24 -32.98 24 -34 24 C-34 23.01 -34 22.02 -34 21 C-34.99 20.67 -35.98 20.34 -37 20 C-36.505 18.515 -36.505 18.515 -36 17 C-32.7 20.3 -29.4 23.6 -26 27 C-20.9165376 22.78761683 -16.34007933 18.35761377 -11.875 13.5 C-10.98361328 12.54287109 -10.98361328 12.54287109 -10.07421875 11.56640625 C-7.3531653 8.62911014 -4.72975967 5.68173465 -2.2578125 2.53125 C-1.51273438 1.6959375 -0.76765625 0.860625 0 0 Z " fill="#315278" transform="translate(82,27)"/>
<path d="M0 0 C2.88437779 1.29299694 4.87219421 2.65941363 7 5 C5.71171248 7.80638179 4.33866032 9.94014468 2.2265625 12.1875 C1.65832764 12.79464844 1.09009277 13.40179688 0.50463867 14.02734375 C-0.11564209 14.67832031 -0.73592285 15.32929687 -1.375 16 C-2.02041748 16.68191406 -2.66583496 17.36382812 -3.33081055 18.06640625 C-9.0881961 24.11243847 -14.93517994 30.07072456 -20.8125 36 C-21.69019043 36.89074219 -22.56788086 37.78148437 -23.47216797 38.69921875 C-24.29217285 39.52035156 -25.11217773 40.34148438 -25.95703125 41.1875 C-26.68897705 41.92355469 -27.42092285 42.65960938 -28.17504883 43.41796875 C-30 45 -30 45 -32 45 C-32 43.02 -32 41.04 -32 39 C-32.66 38.67 -33.32 38.34 -34 38 C-33.401875 37.278125 -32.80375 36.55625 -32.1875 35.8125 C-30.01868588 33.17534332 -30.01868588 33.17534332 -28.73486328 30.70581055 C-26.57393701 27.33548323 -23.90326795 24.67341345 -21.0546875 21.89453125 C-20.48420685 21.32925217 -19.9137262 20.76397308 -19.32595825 20.18156433 C-17.51369071 18.38702397 -15.69484269 16.59935534 -13.875 14.8125 C-12.04892726 13.01405135 -10.22434228 11.21415457 -8.40261841 9.41130066 C-7.27130539 8.29224118 -6.13732984 7.17586572 -5.00045776 6.06245422 C-2.1411094 3.30575852 -2.1411094 3.30575852 0 0 Z " fill="#288EB2" transform="translate(116,20)"/>
<path d="M0 0 C5.29186624 4.56864452 8.81882681 9.06060749 10 16 C9.34 16 8.68 16 8 16 C8 15.01 8 14.02 8 13 C7.34 13 6.68 13 6 13 C6 12.01 6 11.02 6 10 C5.01 10 4.02 10 3 10 C2.505 9.01 2.505 9.01 2 8 C1.01 8 0.02 8 -1 8 C-1 9.65 -1 11.3 -1 13 C-1.46148437 12.566875 -1.92296875 12.13375 -2.3984375 11.6875 C-7.08196843 7.68891233 -10.46491709 6.12762112 -16.66796875 6.546875 C-20.24808313 7.24250861 -22.33801583 8.53279516 -25 11 C-25.99 12.98 -26.98 14.96 -28 17 C-14.14 17.495 -14.14 17.495 0 18 C0.33 17.34 0.66 16.68 1 16 C1 16.99 1 17.98 1 19 C-9.23 19 -19.46 19 -30 19 C-30.33 16.69 -30.66 14.38 -31 12 C-32.98 12.33 -34.96 12.66 -37 13 C-35.71199012 7.9650523 -33.87735011 5.42649544 -30 2 C-29.21625 1.278125 -28.4325 0.55625 -27.625 -0.1875 C-18.98808136 -6.15108668 -8.68508617 -5.13959213 0 0 Z " fill="#1F8CAC" transform="translate(383,52)"/>
<path d="M0 0 C0.495 1.485 0.495 1.485 1 3 C1.99 3 2.98 3 4 3 C4 3.99 4 4.98 4 6 C4.66 6 5.32 6 6 6 C6 6.99 6 7.98 6 9 C6.66 9 7.32 9 8 9 C8 12.3 8 15.6 8 19 C-11.305 18.505 -11.305 18.505 -31 18 C-30.01 17.67 -29.02 17.34 -28 17 C-28 16.34 -28 15.68 -28 15 C-29.65 15 -31.3 15 -33 15 C-33 13.35 -33 11.7 -33 10 C-32.67 10.66 -32.34 11.32 -32 12 C-21.77 12 -11.54 12 -1 12 C-1.66 10.68 -2.32 9.36 -3 8 C-3.0777346 5.66796188 -3.08967728 3.33160941 -3 1 C-2.01 0.67 -1.02 0.34 0 0 Z " fill="#2AA4C6" transform="translate(385,59)"/>
<path d="M0 0 C0.33 0.66 0.66 1.32 1 2 C-1 5 -1 5 -3 7 C-2.649375 7.556875 -2.29875 8.11375 -1.9375 8.6875 C-0.69188121 11.76002635 -0.83886936 12.87946139 -2 16 C-3.85833045 18.47091029 -5.8806227 20.75099718 -8 23 C-7.68289062 23.60328125 -7.36578125 24.2065625 -7.0390625 24.828125 C-5.90057436 27.20782201 -5.43215157 29.4070906 -5 32 C-5.99 32.495 -5.99 32.495 -7 33 C-7 34.65 -7 36.3 -7 38 C-6.34 38.33 -5.68 38.66 -5 39 C-8 39 -8 39 -10.0859375 37.27734375 C-10.84132813 36.50519531 -11.59671875 35.73304687 -12.375 34.9375 C-13.12523438 34.18339844 -13.87546875 33.42929688 -14.6484375 32.65234375 C-17.37240732 29.57995918 -19.66233617 26.37433101 -22 23 C-21.47567383 22.48091064 -20.95134766 21.96182129 -20.41113281 21.42700195 C-18.02142632 19.05816972 -15.6356868 16.6853802 -13.25 14.3125 C-12.425 13.49587891 -11.6 12.67925781 -10.75 11.83789062 C-9.95078125 11.04189453 -9.1515625 10.24589844 -8.328125 9.42578125 C-7.5949707 8.69786377 -6.86181641 7.96994629 -6.10644531 7.2199707 C-3.91984741 4.91552765 -1.94969025 2.50646938 0 0 Z " fill="#2D7196" transform="translate(86,51)"/>
<path d="M0 0 C2.24573055 3.36859583 2.25851196 5.01394193 1.64160156 8.94921875 C0.54231404 12.46292316 -1.94826425 14.63613992 -4.625 17 C-5.72338231 18.02647991 -6.81974287 19.0551275 -7.9140625 20.0859375 C-8.44547852 20.57932617 -8.97689453 21.07271484 -9.52441406 21.58105469 C-12.06853578 24.02751985 -14.28125634 26.73780079 -16.5 29.4765625 C-18.18467529 31.18756084 -19.81037011 32.04675595 -22 33 C-23.65 31.35 -25.3 29.7 -27 28 C-25.44657022 24.23358366 -23.10232647 21.93057511 -20.1875 19.125 C-17.32047141 16.34422872 -14.64908601 13.67578867 -12.3125 10.4375 C-9.34184411 7.30626812 -7.22558555 7.16570924 -3 7 C-2.690625 6.030625 -2.38125 5.06125 -2.0625 4.0625 C-1 1 -1 1 0 0 Z " fill="#F3A67F" transform="translate(36,77)"/>
<path d="M0 0 C1.65856278 2.985413 2.76032255 5.57312239 3 9 C1.375 11.17578125 1.375 11.17578125 -1 13.3125 C-4.73805837 16.79476589 -8.12579853 20.35095823 -11.39453125 24.2734375 C-13.11365309 26.12222547 -14.9422984 27.54487913 -17 29 C-18.98 26.69 -20.96 24.38 -23 22 C-21.57107422 20.58847656 -21.57107422 20.58847656 -20.11328125 19.1484375 C-18.84621913 17.89076103 -17.57929962 16.63294088 -16.3125 15.375 C-15.68666016 14.75753906 -15.06082031 14.14007813 -14.41601562 13.50390625 C-11.53630642 10.63927406 -8.75247114 7.77729313 -6.1875 4.625 C-4.16420261 2.19704314 -2.91751955 1.08056279 0 0 Z " fill="#D96E98" transform="translate(37,103)"/>
<path d="M0 0 C4.32737077 1.99494551 7.29076824 4.77861647 10.6875 8.0625 C11.28111328 8.59810547 11.87472656 9.13371094 12.48632812 9.68554688 C16.5669482 13.64519076 17.73948656 16.59194524 18.00317383 22.27514648 C18.00212646 22.84434814 18.0010791 23.4135498 18 24 C8.36179356 21.6417019 1.88188268 15.62545505 -3.625 7.375 C-4.305625 6.199375 -4.305625 6.199375 -5 5 C-3.35 3.35 -1.7 1.7 0 0 Z " fill="#D58F6E" transform="translate(9,8)"/>
<path d="M0 0 C3.3 0 6.6 0 10 0 C11.03479213 2.41151557 12.0529372 4.82794469 13.0625 7.25 C13.35705078 7.93191406 13.65160156 8.61382812 13.95507812 9.31640625 C15.48321625 13.01989395 16.24129373 15.1840347 15 19 C14.34 19 13.68 19 13 19 C12.34 19.66 11.68 20.32 11 21 C10.01 20.34 9.02 19.68 8 19 C7.67 19.66 7.34 20.32 7 21 C5.82504857 18.06574629 4.66149148 15.12710487 3.5 12.1875 C3.16613281 11.35412109 2.83226562 10.52074219 2.48828125 9.66210938 C2.17246094 8.85966797 1.85664063 8.05722656 1.53125 7.23046875 C1.23798828 6.49207764 0.94472656 5.75368652 0.64257812 4.99291992 C0 3 0 3 0 0 Z " fill="#228CAB" transform="translate(212,49)"/>
<path d="M0 0 C0.33 0 0.66 0 1 0 C1.56608757 4.37482357 1.98581187 8.32397313 -0.3125 12.23144531 C-2.11589989 14.31964552 -3.99576255 16.22909971 -6 18.125 C-6.66773438 18.7953125 -7.33546875 19.465625 -8.0234375 20.15625 C-9.66161194 21.79442444 -11.31875272 23.40626445 -13 25 C-14.89213369 22.61426621 -16.02391783 20.92824652 -17 18 C-17.99 18 -18.98 18 -20 18 C-19.21753906 17.22914062 -18.43507812 16.45828125 -17.62890625 15.6640625 C-16.60663943 14.65117427 -15.58451119 13.63814616 -14.5625 12.625 C-14.04623047 12.11710937 -13.52996094 11.60921875 -12.99804688 11.0859375 C-10.142867 8.31431064 -10.142867 8.31431064 -8 5 C-4.9375 4.375 -4.9375 4.375 -2 4 C-2 3.34 -2 2.68 -2 2 C-1.34 2 -0.68 2 0 2 C0 1.34 0 0.68 0 0 Z " fill="#AA6084" transform="translate(54,86)"/>
<path d="M0 0 C0.99 0 1.98 0 3 0 C5.1875 2.5 5.1875 2.5 7 5 C5.52357373 10.22654901 2.17768064 13.16826439 -1.625 16.8125 C-2.54152344 17.7087207 -2.54152344 17.7087207 -3.4765625 18.62304688 C-4.97764839 20.08895106 -6.48792862 21.54542993 -8 23 C-8.99 22.67 -9.98 22.34 -11 22 C-10.67 20.35 -10.34 18.7 -10 17 C-10.99 16.67 -11.98 16.34 -13 16 C-12.37996094 15.74734375 -11.75992188 15.4946875 -11.12109375 15.234375 C-8.63694102 13.78871706 -8.15915307 12.85770961 -7.0625 10.25 C-5.18210954 6.19309459 -3.12896294 3.20919276 0 0 Z " fill="#2D6C91" transform="translate(82,27)"/>
<path d="M0 0 C1.65 0 3.3 0 5 0 C3.68 0.33 2.36 0.66 1 1 C1 3.64 1 6.28 1 9 C2.98 9 4.96 9 7 9 C7 21.87 7 34.74 7 48 C9.64 48 12.28 48 15 48 C15 37.11 15 26.22 15 15 C14.01 15.66 13.02 16.32 12 17 C11.48779459 20.10213725 11.48779459 20.10213725 11.48828125 23.7578125 C11.47033005 24.42086395 11.45237885 25.08391541 11.43388367 25.76705933 C11.37967076 27.88630803 11.34585229 30.00533025 11.3125 32.125 C11.27933633 33.56122952 11.24484755 34.9974291 11.20898438 36.43359375 C11.12394036 39.95551129 11.05718127 43.47750759 11 47 C10.34 47 9.68 47 9 47 C8.950623 42.47934572 8.91429177 37.95884783 8.89013672 33.43798828 C8.88006882 31.89954902 8.86641354 30.36112893 8.84912109 28.82275391 C8.82490683 26.61355867 8.81352509 24.40461605 8.8046875 22.1953125 C8.79436493 21.50567413 8.78404236 20.81603577 8.77340698 20.10549927 C8.77300522 18.40199094 8.87808974 16.69914057 9 15 C9.66 14.34 10.32 13.68 11 13 C12.32 13 13.64 13 15 13 C15.33 12.01 15.66 11.02 16 10 C16 22.87 16 35.74 16 49 C12.7 49 9.4 49 6 49 C6 36.13 6 23.26 6 10 C4.02 10 2.04 10 0 10 C0 6.7 0 3.4 0 0 Z " fill="#13758F" transform="translate(317,49)"/>
<path d="M0 0 C2.35043586 1.98070437 4.67822804 3.98581322 7 6 C8.2375 7.051875 8.2375 7.051875 9.5 8.125 C11 10 11 10 10.8046875 11.89453125 C9.83213546 14.43921838 8.60066471 15.69937315 6.625 17.5625 C6.01914062 18.14128906 5.41328125 18.72007813 4.7890625 19.31640625 C4.19867188 19.87199219 3.60828125 20.42757812 3 21 C1.9966006 21.996589 0.99540941 22.99543038 0 24 C-0.33 23.01 -0.66 22.02 -1 21 C-0.34 21 0.32 21 1 21 C0.34 19.02 -0.32 17.04 -1 15 C-1.37125 15.969375 -1.7425 16.93875 -2.125 17.9375 C-4 21 -4 21 -7.1875 21.875 C-8.5796875 21.936875 -8.5796875 21.936875 -10 22 C-9.59007813 21.54109375 -9.18015625 21.0821875 -8.7578125 20.609375 C-8.21898438 19.99578125 -7.68015625 19.3821875 -7.125 18.75 C-6.59132813 18.14671875 -6.05765625 17.5434375 -5.5078125 16.921875 C-4.0202513 15.02581254 -2.99677564 13.18709995 -2 11 C-2.99 9.68 -3.98 8.36 -5 7 C-3.68 7.33 -2.36 7.66 -1 8 C-0.67 5.36 -0.34 2.72 0 0 Z " fill="#C66993" transform="translate(37,63)"/>
<path d="M0 0 C3.76667471 2.09780993 6.78473568 4.4333578 9.875 7.4375 C10.67679688 8.19933594 11.47859375 8.96117188 12.3046875 9.74609375 C14 12 14 12 13.87890625 14.14453125 C12.68449109 16.66607436 11.11578657 18.20478715 9 20 C7 20 7 20 5.34375 18.49609375 C1.43838594 14.13565548 -1.2236148 10.87834506 -2 5 C-1.125 2.0625 -1.125 2.0625 0 0 Z " fill="#2D6C8D" transform="translate(72,100)"/>
<path d="M0 0 C2.97 0 5.94 0 9 0 C9 16.17 9 32.34 9 49 C5.7 49 2.4 49 -1 49 C-1.33 47.68 -1.66 46.36 -2 45 C-2.928125 45.66 -3.85625 46.32 -4.8125 47 C-8 49 -8 49 -11 49 C-11.495 47.515 -11.495 47.515 -12 46 C-11.34 45.01 -10.68 44.02 -10 43 C-11.2375 43.061875 -12.475 43.12375 -13.75 43.1875 C-16.78211302 43.20362826 -17.82248296 43.10651023 -20.5 41.5 C-20.995 41.005 -21.49 40.51 -22 40 C-20.80375 40.020625 -19.6075 40.04125 -18.375 40.0625 C-14.81995131 40.06882571 -11.49444376 39.69888875 -8 39 C-8 39.66 -8 40.32 -8 41 C-7.34 41.33 -6.68 41.66 -6 42 C-7.485 42.495 -7.485 42.495 -9 43 C-8.01 43.99 -7.02 44.98 -6 46 C-5.67 45.01 -5.34 44.02 -5 43 C-4.34 42.01 -3.68 41.02 -3 40 C-2.01 40 -1.02 40 0 40 C0 42.64 0 45.28 0 48 C2.64 48 5.28 48 8 48 C8 32.49 8 16.98 8 1 C5.36 1 2.72 1 0 1 C0 0.67 0 0.34 0 0 Z " fill="#116C89" transform="translate(198,49)"/>
<path d="M0 0 C3.64148339 2.94943678 6.67478031 6.03756325 7.45703125 10.7578125 C7.43957879 13.20813816 7.31360578 15.57079966 7 18 C0.96311298 16.7926226 -3.52748368 12.98762507 -7 8 C-6.77898928 5.00530476 -6.05257695 4.0610571 -4.0625 1.75 C-2 0 -2 0 0 0 Z " fill="#E09A75" transform="translate(17,40)"/>
<path d="M0 0 C2.11279617 3.16919426 2.54187083 4.83861131 2.0234375 8.59375 C-0.29740912 14.05039701 -5.64587048 18.09778178 -10 22 C-10.66 21.67 -11.32 21.34 -12 21 C-11.67 18.69 -11.34 16.38 -11 14 C-12.32 14.33 -13.64 14.66 -15 15 C-12.93770937 10.98396035 -11.12168154 8.91004754 -7 7 C-5.68 7 -4.36 7 -3 7 C-2.690625 6.030625 -2.38125 5.06125 -2.0625 4.0625 C-1 1 -1 1 0 0 Z " fill="#DC7399" transform="translate(36,77)"/>
<path d="M0 0 C1.15518918 0.90484792 2.29885406 1.8244206 3.4375 2.75 C4.07558594 3.26046875 4.71367188 3.7709375 5.37109375 4.296875 C7.20878924 6.21830242 7.44958977 7.45635659 8 10 C8.66 10.33 9.32 10.66 10 11 C10 11.99 10 12.98 10 14 C10.99 14 11.98 14 13 14 C13.125 20.75 13.125 20.75 12 23 C8.09714233 21.41332422 5.66479018 18.86649519 2.75 15.875 C1.85796875 14.96492188 0.9659375 14.05484375 0.046875 13.1171875 C-0.62859375 12.41851562 -1.3040625 11.71984375 -2 11 C-0.948125 9.6696875 -0.948125 9.6696875 0.125 8.3125 C2.4040702 5.1828944 2.4040702 5.1828944 1.25 2.125 C0.8375 1.42375 0.425 0.7225 0 0 Z " fill="#A15E85" transform="translate(38,37)"/>
<path d="M0 0 C0.66 0 1.32 0 2 0 C2 10.89 2 21.78 2 33 C0.02 33 -1.96 33 -4 33 C-3.01 32.505 -3.01 32.505 -2 32 C-2.01047363 31.10168457 -2.02094727 30.20336914 -2.03173828 29.27783203 C-2.0657947 25.94935553 -2.09088618 22.62106378 -2.10986328 19.29248047 C-2.11992963 17.85104453 -2.1335838 16.40962905 -2.15087891 14.96826172 C-2.17510012 12.89806066 -2.18647641 10.82812924 -2.1953125 8.7578125 C-2.20578613 7.5114502 -2.21625977 6.26508789 -2.22705078 4.98095703 C-2 2 -2 2 0 0 Z " fill="#29A1CC" transform="translate(330,64)"/>
<path d="M0 0 C0.1875 2.375 0.1875 2.375 0 5 C-0.99 5.66 -1.98 6.32 -3 7 C-3.72382467 9.05925139 -3.72382467 9.05925139 -4 11 C-4.66 11 -5.32 11 -6 11 C-5.87625 12.1446875 -5.87625 12.1446875 -5.75 13.3125 C-6 16 -6 16 -8 17.8125 C-8.66 18.204375 -9.32 18.59625 -10 19 C-11.98 16.69 -13.96 14.38 -16 12 C-14.23519919 10.1812664 -12.46369235 8.37005009 -10.6875 6.5625 C-10.18798828 6.04623047 -9.68847656 5.52996094 -9.17382812 4.99804688 C-4.2411152 0 -4.2411152 0 0 0 Z " fill="#DA8B79" transform="translate(30,113)"/>
<path d="M0 0 C3.90285767 1.58667578 6.33520982 4.13350481 9.25 7.125 C10.14203125 8.03507812 11.0340625 8.94515625 11.953125 9.8828125 C12.62859375 10.58148438 13.3040625 11.28015625 14 12 C12.64062915 14.8605891 11.35479531 16.85927699 9 19 C7.0625 18.25 7.0625 18.25 5 17 C4.1875 15 4.1875 15 4 13 C4.33 12.34 4.66 11.68 5 11 C3.68 10.67 2.36 10.34 1 10 C0.375 8.1875 0.375 8.1875 0 6 C0.66 5.01 1.32 4.02 2 3 C1.34 3 0.68 3 0 3 C0 2.01 0 1.02 0 0 Z " fill="#279BC2" transform="translate(109,111)"/>
<path d="M0 0 C1.1055189 0.93590504 2.20935453 1.87379858 3.3125 2.8125 C3.92738281 3.33457031 4.54226562 3.85664062 5.17578125 4.39453125 C5.77777344 4.92433594 6.37976562 5.45414063 7 6 C7.57105469 6.49886719 8.14210938 6.99773438 8.73046875 7.51171875 C10 9 10 9 10 12 C10.99 12.33 11.98 12.66 13 13 C13.33 15.97 13.66 18.94 14 22 C12.02 22.99 12.02 22.99 10 24 C7.60108698 21.51299131 5.56461502 19.0936706 4 16 C4.05993752 12.75837933 4.84174284 10.0142596 6 7 C5.01 7 4.02 7 3 7 C3 6.01 3 5.02 3 4 C2.01 3.67 1.02 3.34 0 3 C0 2.01 0 1.02 0 0 Z " fill="#504B72" transform="translate(45,44)"/>
<path d="M0 0 C3.21043882 1.38188453 5.04936365 2.92421903 7.25 5.625 C7.77078125 6.25664063 8.2915625 6.88828125 8.828125 7.5390625 C9.40820312 8.26222656 9.40820312 8.26222656 10 9 C9.34 9 8.68 9 8 9 C8 11.64 8 14.28 8 17 C5 17 5 17 2.4375 14.875 C-0.10310121 11.87839345 -1.24864774 9.8402449 -2 6 C-1.34 5.01 -0.68 4.02 0 3 C0 2.01 0 1.02 0 0 Z " fill="#2B80A1" transform="translate(80,80)"/>
<path d="M0 0 C3.57766956 1.52276096 5.94268871 3.64379935 8.6875 6.375 C9.47511719 7.14585938 10.26273438 7.91671875 11.07421875 8.7109375 C12.94398389 10.93341696 13.6185496 12.16821565 14 15 C11.36 15.33 8.72 15.66 6 16 C6 15.01 6 14.02 6 13 C5.01 13 4.02 13 3 13 C3 11.68 3 10.36 3 9 C1.68 8.67 0.36 8.34 -1 8 C-0.67 5.36 -0.34 2.72 0 0 Z " fill="#2F96B9" transform="translate(88,89)"/>
<path d="M0 0 C0.33 0 0.66 0 1 0 C1.33 14.19 1.66 28.38 2 43 C-0.97 43 -3.94 43 -7 43 C-7.25 37.375 -7.25 37.375 -5 34 C-3.35 34.33 -1.7 34.66 0 35 C0 23.45 0 11.9 0 0 Z " fill="#2BA3C7" transform="translate(306,54)"/>
<path d="M0 0 C2.87529818 1.28892677 5.05008298 2.49296383 7 5 C7.6875 7.6875 7.6875 7.6875 8 10 C7.195625 10.28875 6.39125 10.5775 5.5625 10.875 C2.8673532 11.73262568 2.8673532 11.73262568 2 14 C-0.31 11.36 -2.62 8.72 -5 6 C-3.35 4.02 -1.7 2.04 0 0 Z " fill="#E29F68" transform="translate(9,8)"/>
<path d="M0 0 C0.33 0 0.66 0 1 0 C1.86573744 5.02341479 1.97536639 8.59303874 -1.00390625 12.890625 C-3.2582742 15.36019865 -5.55493582 17.71988062 -8 20 C-8.66 18.68 -9.32 17.36 -10 16 C-9.34 16 -8.68 16 -8 16 C-6.61888278 13.7252187 -5.94305298 12.49828639 -6.25 9.8125 C-6.85008433 7.80184414 -6.85008433 7.80184414 -9 7 C-8.67 6.34 -8.34 5.68 -8 5 C-4.9375 4.375 -4.9375 4.375 -2 4 C-2 3.34 -2 2.68 -2 2 C-1.34 2 -0.68 2 0 2 C0 1.34 0 0.68 0 0 Z " fill="#835B86" transform="translate(54,86)"/>
<path d="M0 0 C0.66 0.33 1.32 0.66 2 1 C2.0270043 2.45823212 2.04639787 3.91660675 2.0625 5.375 C2.07410156 6.18710938 2.08570312 6.99921875 2.09765625 7.8359375 C2 10 2 10 1 12 C2.32 12.33 3.64 12.66 5 13 C5.66 15.31 6.32 17.62 7 20 C1.75027653 15.89962427 -2.20962911 11.47035213 -6 6 C-4.02 4.02 -2.04 2.04 0 0 Z " fill="#2B5E86" transform="translate(70,68)"/>
<path d="M0 0 C0 0.99 0 1.98 0 3 C0.66 3 1.32 3 2 3 C2 4.32 2 5.64 2 7 C2.66 7.33 3.32 7.66 4 8 C1.69 9.98 -0.62 11.96 -3 14 C-4 13 -4 13 -4.4375 9.5 C-4.623125 8.345 -4.80875 7.19 -5 6 C-5.66 5.67 -6.32 5.34 -7 5 C-5.53924541 2.07849082 -3.3640735 0 0 0 Z " fill="#2C4B70" transform="translate(62,51)"/>
<path d="M0 0 C1.32 0 2.64 0 4 0 C4.75 2.75 4.75 2.75 5 6 C3.3125 8.4375 3.3125 8.4375 1 10 C-1.125 9.9375 -1.125 9.9375 -3 9 C-5.1519437 5.77208445 -5.20086443 4.71599191 -5 1 C-3.68 1 -2.36 1 -1 1 C-0.67 0.67 -0.34 0.34 0 0 Z " fill="#2591B5" transform="translate(225,67)"/>
<path d="M0 0 C1.15518918 0.90484792 2.29885406 1.8244206 3.4375 2.75 C4.07558594 3.26046875 4.71367188 3.7709375 5.37109375 4.296875 C7.26278839 6.27476196 7.9424286 7.25227395 8 10 C6.453125 12.03515625 6.453125 12.03515625 4.25 14.0625 C3.53328125 14.73410156 2.8165625 15.40570313 2.078125 16.09765625 C1.39234375 16.72542969 0.7065625 17.35320312 0 18 C-1.00554618 18.99442288 -2.00787986 19.99218175 -3 21 C-3.33 20.01 -3.66 19.02 -4 18 C-3.34 18 -2.68 18 -2 18 C-2 16.68 -2 15.36 -2 14 C-0.68 13.34 0.64 12.68 2 12 C2.16681109 9.08347826 2.16681109 9.08347826 2 6 C1.34 5.34 0.68 4.68 0 4 C0 2.68 0 1.36 0 0 Z " fill="#975C81" transform="translate(40,66)"/>
<path d="M0 0 C0.66 0.309375 1.32 0.61875 2 0.9375 C5.70476015 2.24960255 9.09263991 2.60264135 13 3 C12.67 4.98 12.34 6.96 12 9 C5.9453125 9.1953125 5.9453125 9.1953125 4 9 C3.34 8.34 2.68 7.68 2 7 C2 5.68 2 4.36 2 3 C1.01 2.67 0.02 2.34 -1 2 C-0.67 1.34 -0.34 0.68 0 0 Z " fill="#26A3CA" transform="translate(175,89)"/>
<path d="M0 0 C4.42847957 1.47615986 6.85876061 5.02796114 9 9 C9.33 10.65 9.66 12.3 10 14 C6.04 13.67 2.08 13.34 -2 13 C-1.67 12.34 -1.34 11.68 -1 11 C1.97 11.33 4.94 11.66 8 12 C6.87465895 10.64381501 6.87465895 10.64381501 3.9375 10.9375 C2.4834375 10.9684375 2.4834375 10.9684375 1 11 C1.03255208 9.01432292 1.06510417 7.02864583 1.09765625 5.04296875 C1.08263217 2.79694539 1.08263217 2.79694539 0 0 Z " fill="#2281A2" transform="translate(143,53)"/>
<path d="M0 0 C0.66 0 1.32 0 2 0 C3.33583899 4.84241633 4.25328119 8.93437617 4 14 C2.68 14 1.36 14 0 14 C0 13.34 0 12.68 0 12 C-0.66 11.67 -1.32 11.34 -2 11 C-1.34 11 -0.68 11 0 11 C-0.33 9.68 -0.66 8.36 -1 7 C-1.66 7 -2.32 7 -3 7 C-3 7.66 -3 8.32 -3 9 C-4.65 9.33 -6.3 9.66 -8 10 C-7.59007812 9.52949219 -7.18015625 9.05898437 -6.7578125 8.57421875 C-6.21898437 7.95160156 -5.68015625 7.32898438 -5.125 6.6875 C-4.59132812 6.07261719 -4.05765625 5.45773438 -3.5078125 4.82421875 C-1.8359553 2.86501788 -1.8359553 2.86501788 0 0 Z " fill="#4F5178" transform="translate(55,81)"/>
<path d="M0 0 C1.15224028 0.92961422 2.29659176 1.8690125 3.4375 2.8125 C4.39462891 3.59560547 4.39462891 3.59560547 5.37109375 4.39453125 C7 6 7 6 8 9 C6 11 6 11 3.5625 11.125 C2.716875 11.08375 1.87125 11.0425 1 11 C0.01 11 -0.98 11 -2 11 C-4.1875 8.5 -4.1875 8.5 -6 6 C-3.61435923 6.57584432 -1.33317216 7.22227595 1 8 C0.67 5.36 0.34 2.72 0 0 Z " fill="#D36D8D" transform="translate(26,24)"/>
<path d="M0 0 C1.32 0.66 2.64 1.32 4 2 C4 3.32 4 4.64 4 6 C2.68 6 1.36 6 0 6 C0 6.66 0 7.32 0 8 C-1.53125 9.5078125 -1.53125 9.5078125 -3.5 11.125 C-4.1496875 11.66382813 -4.799375 12.20265625 -5.46875 12.7578125 C-5.9740625 13.16773438 -6.479375 13.57765625 -7 14 C-7.33 13.01 -7.66 12.02 -8 11 C-6.35 9.35 -4.7 7.7 -3 6 C-3.66 5.67 -4.32 5.34 -5 5 C-3.35 3.35 -1.7 1.7 0 0 Z " fill="#2E85A8" transform="translate(84,29)"/>
<path d="M0 0 C0 3.12535255 -0.49740064 4.34835407 -2 7 C-2.33 7.33 -2.66 7.66 -3 8 C-2.67 8.66 -2.34 9.32 -2 10 C-2.30271961 11.34061543 -2.63837971 12.67405895 -3 14 C-3 14.99 -3 15.98 -3 17 C-4.32 17 -5.64 17 -7 17 C-7 15.35 -7 13.7 -7 12 C-7.66 12 -8.32 12 -9 12 C-7.54718935 6.67302761 -3.91888622 3.63597198 0 0 Z " fill="#2D648D" transform="translate(75,35)"/>
<path d="M0 0 C1.7265625 1.75 1.7265625 1.75 3.625 4 C4.25664062 4.7425 4.88828125 5.485 5.5390625 6.25 C6.02117188 6.8275 6.50328125 7.405 7 8 C3.79937313 9.60031344 1.27728194 8.03173691 -2 7 C-2.66 8.32 -3.32 9.64 -4 11 C-5.5625 9.75 -5.5625 9.75 -7 8 C-6.90546875 5.0695312 -5.98397203 3.98138687 -4.0625 1.75 C-2 0 -2 0 0 0 Z " fill="#BF805F" transform="translate(17,40)"/>
<path d="M0 0 C1.37478516 0.01740234 1.37478516 0.01740234 2.77734375 0.03515625 C3.69644531 0.04417969 4.61554688 0.05320313 5.5625 0.0625 C6.27277344 0.07410156 6.98304688 0.08570313 7.71484375 0.09765625 C7.05793756 3.88005296 5.99471275 7.31607151 4.65234375 10.91015625 C4.29011719 11.88597656 3.92789063 12.86179687 3.5546875 13.8671875 C3.13896484 14.97126953 3.13896484 14.97126953 2.71484375 16.09765625 C2.38484375 16.09765625 2.05484375 16.09765625 1.71484375 16.09765625 C2.04484375 13.12765625 2.37484375 10.15765625 2.71484375 7.09765625 C3.37484375 7.09765625 4.03484375 7.09765625 4.71484375 7.09765625 C4.71484375 5.77765625 4.71484375 4.45765625 4.71484375 3.09765625 C0.63520094 4.39920631 0.63520094 4.39920631 -3.28515625 6.09765625 C-3.32787725 4.4315372 -3.32579457 2.7638274 -3.28515625 1.09765625 C-2.28515625 0.09765625 -2.28515625 0.09765625 0 0 Z " fill="#1F6E8A" transform="translate(248.28515625,48.90234375)"/>
<path d="M0 0 C1.17825358 0.90172468 2.34231577 1.82201502 3.5 2.75 C4.1496875 3.26046875 4.799375 3.7709375 5.46875 4.296875 C7 6 7 6 7 10 C5 12.25 5 12.25 3 14 C-0.875 12.25 -0.875 12.25 -2 10 C-0.68 10.33 0.64 10.66 2 11 C1.55990101 8.35940606 1.10504868 6.20426133 -0.125 3.8125 C-0.41375 3.214375 -0.7025 2.61625 -1 2 C-0.67 1.34 -0.34 0.68 0 0 Z " fill="#1F82A2" transform="translate(115,116)"/>
<path d="M0 0 C0.99 0.33 1.98 0.66 3 1 C3.95024979 4.69541586 3.95024979 7.30458414 3 11 C6.465 10.505 6.465 10.505 10 10 C10 10.66 10 11.32 10 12 C7.03 12 4.06 12 1 12 C0.9175 11.21625 0.835 10.4325 0.75 9.625 C0.27193661 6.85250896 0.27193661 6.85250896 -2.0625 5.6875 C-2.701875 5.460625 -3.34125 5.23375 -4 5 C-2.68 4.34 -1.36 3.68 0 3 C0 2.01 0 1.02 0 0 Z " fill="#22A5C7" transform="translate(141,53)"/>
<path d="M0 0 C2 3 2 3 1.625 6.1875 C1.41875 7.115625 1.2125 8.04375 1 9 C-0.32 9.33 -1.64 9.66 -3 10 C-2.67 11.32 -2.34 12.64 -2 14 C-3.65 13.67 -5.3 13.34 -7 13 C-6.34 12.67 -5.68 12.34 -5 12 C-5.2475 11.278125 -5.495 10.55625 -5.75 9.8125 C-6 7 -6 7 -4.1875 4.1875 C-3.1046875 3.1046875 -3.1046875 3.1046875 -2 2 C-1.34 2 -0.68 2 0 2 C0 1.34 0 0.68 0 0 Z " fill="#AB6A90" transform="translate(47,92)"/>
<path d="M0 0 C4.62748592 3.48917387 7.86057959 6.0496934 9 12 C9.125 14.875 9.125 14.875 9 17 C7.68 17.33 6.36 17.66 5 18 C3.68374806 15.36749612 4.25186342 14.19820944 4.9375 11.375 C5.13214844 10.55773438 5.32679687 9.74046875 5.52734375 8.8984375 C5.68332031 8.27195312 5.83929688 7.64546875 6 7 C5.01 7 4.02 7 3 7 C3 6.01 3 5.02 3 4 C2.01 3.67 1.02 3.34 0 3 C0 2.01 0 1.02 0 0 Z " fill="#705A7E" transform="translate(45,44)"/>
<path d="M0 0 C0.33 0.66 0.66 1.32 1 2 C1.66 2.33 2.32 2.66 3 3 C1.92492371 4.29854721 0.83956264 5.58858361 -0.25 6.875 C-0.85328125 7.59429687 -1.4565625 8.31359375 -2.078125 9.0546875 C-3.97087634 10.97052118 -5.53657727 11.96449045 -8 13 C-8.66 12.01 -9.32 11.02 -10 10 C-9.01 10 -8.02 10 -7 10 C-7 9.01 -7 8.02 -7 7 C-6.01 7 -5.02 7 -4 7 C-3.525625 6.030625 -3.05125 5.06125 -2.5625 4.0625 C-1 1 -1 1 0 0 Z " fill="#C58168" transform="translate(22,97)"/>
<path d="M0 0 C0.66 0 1.32 0 2 0 C2 0.99 2 1.98 2 3 C2.99 3 3.98 3 5 3 C5.125 9.75 5.125 9.75 4 12 C0.63279613 10.60667426 -0.9859524 9.0210714 -3 6 C-1.68 5.67 -0.36 5.34 1 5 C0.67 3.35 0.34 1.7 0 0 Z " fill="#885A82" transform="translate(46,48)"/>
<path d="M0 0 C0.66 0 1.32 0 2 0 C2 2.64 2 5.28 2 8 C-3.53846154 7.38461538 -3.53846154 7.38461538 -5.875 5.4375 C-6.24625 4.963125 -6.6175 4.48875 -7 4 C-6.67 3.01 -6.34 2.02 -6 1 C-4.7934375 1.0309375 -4.7934375 1.0309375 -3.5625 1.0625 C-1.06645115 1.29633621 -1.06645115 1.29633621 0 0 Z " fill="#E374A0" transform="translate(33,33)"/>
<path d="M0 0 C2.475 0.99 2.475 0.99 5 2 C5.33 4.64 5.66 7.28 6 10 C3.03824877 9.38722388 1.61941217 8.74627478 -1 7 C-1.33 6.34 -1.66 5.68 -2 5 C-1.0625 2.375 -1.0625 2.375 0 0 Z " fill="#F49697" transform="translate(21,22)"/>
<path d="M0 0 C1.32 0.33 2.64 0.66 4 1 C4.625 3.3125 4.625 3.3125 5 6 C4.01 7.485 4.01 7.485 3 9 C1.02 8.34 -0.96 7.68 -3 7 C-2.34 6.67 -1.68 6.34 -1 6 C-1.33 5.01 -1.66 4.02 -2 3 C-1.34 2.01 -0.68 1.02 0 0 Z " fill="#D46F9B" transform="translate(33,62)"/>
<path d="M0 0 C2.46800047 1.15173355 4.04783565 2.04783565 6 4 C5.625 6.125 5.625 6.125 5 8 C3.35 8.33 1.7 8.66 0 9 C-1.53445094 5.93109813 -0.54984289 3.29905734 0 0 Z " fill="#3485AA" transform="translate(80,108)"/>
<path d="M0 0 C2 1.3125 2 1.3125 4 3 C4 3.99 4 4.98 4 6 C3.34 6.66 2.68 7.32 2 8 C1.35232207 10.57061311 1.35232207 10.57061311 1 13 C-0.65 11.35 -2.3 9.7 -4 8 C-3.01 8 -2.02 8 -1 8 C-1.020625 7.05125 -1.04125 6.1025 -1.0625 5.125 C-1 2 -1 2 0 0 Z " fill="#CF7D83" transform="translate(24,49)"/>
<path d="M0 0 C2.31 1.98 4.62 3.96 7 6 C6.67 7.65 6.34 9.3 6 11 C5.34 11 4.68 11 4 11 C3.67 11.66 3.34 12.32 3 13 C3 12.34 3 11.68 3 11 C2.34 10.67 1.68 10.34 1 10 C1.20625 9.278125 1.4125 8.55625 1.625 7.8125 C2.05952211 4.55358415 1.41680669 2.91695496 0 0 Z " fill="#AA6489" transform="translate(38,37)"/>
<path d="M0 0 C0 4.10202215 -1.4911355 5.81306402 -4 9 C-6.75 10.375 -6.75 10.375 -9 11 C-8.67 12.32 -8.34 13.64 -8 15 C-8.99 14.34 -9.98 13.68 -11 13 C-9.46356148 9.31930113 -7.21849055 7.01224796 -4.375 4.25 C-3.55773437 3.45078125 -2.74046875 2.6515625 -1.8984375 1.828125 C-0.95871094 0.92320313 -0.95871094 0.92320313 0 0 Z " fill="#BC815D" transform="translate(20,92)"/>
<path d="M0 0 C0 0.66 0 1.32 0 2 C0.66 2.33 1.32 2.66 2 3 C0.27665979 4.72334021 -1.9668621 4.21271834 -4.3125 4.25 C-5.27800781 4.27578125 -6.24351562 4.3015625 -7.23828125 4.328125 C-10.36753676 3.95633227 -11.69109423 3.08404796 -14 1 C-11.02148438 1.04882812 -11.02148438 1.04882812 -8.04296875 1.09765625 C-5.18312488 0.96095243 -2.92241729 0 0 0 Z " fill="#1F85A0" transform="translate(190,88)"/>
<path d="M0 0 C3.24299151 2.38957269 5.50902342 4.2047869 7 8 C6.01 8.33 5.02 8.66 4 9 C2.79117904 11.00016466 2.79117904 11.00016466 2 13 C1.66451233 11.20873548 1.33167645 9.41697413 1 7.625 C0.814375 6.62726563 0.62875 5.62953125 0.4375 4.6015625 C0 2 0 2 0 0 Z " fill="#374D74" transform="translate(57,82)"/>
<path d="M0 0 C0.9435441 2.53899138 1.16906025 3.60909275 0.07421875 6.140625 C-0.61220703 7.18476562 -0.61220703 7.18476562 -1.3125 8.25 C-1.76238281 8.95640625 -2.21226563 9.6628125 -2.67578125 10.390625 C-3.11277344 10.92171875 -3.54976562 11.4528125 -4 12 C-4.66 12 -5.32 12 -6 12 C-5.73781251 7.5428126 -5.42288711 5.48477302 -2.4375 2.0625 C-1.633125 1.381875 -0.82875 0.70125 0 0 Z " fill="#DE76A3" transform="translate(37,103)"/>
<path d="M0 0 C0.1875 2.375 0.1875 2.375 0 5 C-0.99 5.66 -1.98 6.32 -3 7 C-3.72382467 9.05925139 -3.72382467 9.05925139 -4 11 C-4.66 11 -5.32 11 -6 11 C-6.48951049 4.63636364 -6.48951049 4.63636364 -4.125 1.5625 C-2 0 -2 0 0 0 Z " fill="#F77FA3" transform="translate(30,113)"/>
<path d="M0 0 C-1 3 -1 3 -3 4 C-4.0409066 5.64142963 -5.04504326 7.30712215 -6 9 C-6.99 8.67 -7.98 8.34 -9 8 C-9 7.34 -9 6.68 -9 6 C-8.34 5.67 -7.68 5.34 -7 5 C-7.33 4.01 -7.66 3.02 -8 2 C-4.91190305 0.23537317 -3.76687864 0 0 0 Z " fill="#24A5C4" transform="translate(198,86)"/>
<path d="M0 0 C1.15518918 0.90484792 2.29885406 1.8244206 3.4375 2.75 C4.07558594 3.26046875 4.71367188 3.7709375 5.37109375 4.296875 C7.18810554 6.19667629 7.60423197 7.43586908 8 10 C7.01 10 6.02 10 5 10 C0 4.88372093 0 4.88372093 0 0 Z " fill="#8D4C6B" transform="translate(40,66)"/>
<path d="M0 0 C0.66 0.33 1.32 0.66 2 1 C1.690625 1.53625 1.38125 2.0725 1.0625 2.625 C-0.17827439 5.3984957 -0.5909675 8.00042837 -1 11 C-2.65 9.35 -4.3 7.7 -6 6 C-4.02 4.02 -2.04 2.04 0 0 Z " fill="#2D5673" transform="translate(70,68)"/>
<path d="M0 0 C0.33 0 0.66 0 1 0 C1.08090971 1.62418745 1.13914995 3.24951745 1.1875 4.875 C1.22230469 5.77992187 1.25710937 6.68484375 1.29296875 7.6171875 C1.19628906 8.40351562 1.09960938 9.18984375 1 10 C0.01 10.66 -0.98 11.32 -2 12 C-2.33 11.67 -2.66 11.34 -3 11 C-2.91062197 9.47480724 -2.75462854 7.95318071 -2.5625 6.4375 C-2.46066406 5.61121094 -2.35882813 4.78492187 -2.25390625 3.93359375 C-2.17011719 3.29550781 -2.08632813 2.65742187 -2 2 C-1.34 2 -0.68 2 0 2 C0 1.34 0 0.68 0 0 Z " fill="#6B5580" transform="translate(54,86)"/>
<path d="M0 0 C0.99 0 1.98 0 3 0 C5 2 5 2 6 4 C5.01 4.99 4.02 5.98 3 7 C3.66 7.33 4.32 7.66 5 8 C4.01 8.33 3.02 8.66 2 9 C1.34 8.67 0.68 8.34 0 8 C0 5.36 0 2.72 0 0 Z " fill="#2CA1CD" transform="translate(376,51)"/>
<path d="M0 0 C1.32 0.33 2.64 0.66 4 1 C4 3.97 4 6.94 4 10 C2.68 9.34 1.36 8.68 0 8 C0 5.36 0 2.72 0 0 Z " fill="#F59C8E" transform="translate(20,48)"/>
<path d="M0 0 C0.66 0.33 1.32 0.66 2 1 C1.6875 3.375 1.6875 3.375 1 6 C0.01 6.66 -0.98 7.32 -2 8 C-2.66 7.67 -3.32 7.34 -4 7 C-3.43628586 3.73045798 -2.50037734 2.17424117 0 0 Z " fill="#C36892" transform="translate(38,107)"/>
<path d="M0 0 C3.63 0 7.26 0 11 0 C10.01 2.31 9.02 4.62 8 7 C7.79375 6.38125 7.5875 5.7625 7.375 5.125 C5.45224112 2.15346355 3.33405473 1.86975341 0 1 C0 0.67 0 0.34 0 0 Z " fill="#19798D" transform="translate(142,81)"/>
<path d="M0 0 C1.32 0.33 2.64 0.66 4 1 C1.03 3.97 -1.94 6.94 -5 10 C-5.33 9.01 -5.66 8.02 -6 7 C-4.1875 4.3125 -4.1875 4.3125 -2 2 C-1.34 2 -0.68 2 0 2 C0 1.34 0 0.68 0 0 Z " fill="#276383" transform="translate(84,35)"/>
<path d="M0 0 C0.99 0.66 1.98 1.32 3 2 C2.65120368 5.25543229 1.97866739 6.01873107 -0.5625 8.25 C-1.366875 8.8275 -2.17125 9.405 -3 10 C-3 8.68 -3 7.36 -3 6 C-2.34 6 -1.68 6 -1 6 C-0.67 4.02 -0.34 2.04 0 0 Z " fill="#C76D80" transform="translate(27,118)"/>
<path d="M0 0 C0.66 0.33 1.32 0.66 2 1 C1.67 2.32 1.34 3.64 1 5 C0.34 5 -0.32 5 -1 5 C-1 5.66 -1 6.32 -1 7 C-1.66 7 -2.32 7 -3 7 C-3 7.66 -3 8.32 -3 9 C-4.65 9.33 -6.3 9.66 -8 10 C-7.59007812 9.52949219 -7.18015625 9.05898437 -6.7578125 8.57421875 C-6.21898437 7.95160156 -5.68015625 7.32898438 -5.125 6.6875 C-4.59132812 6.07261719 -4.05765625 5.45773438 -3.5078125 4.82421875 C-1.8359553 2.86501788 -1.8359553 2.86501788 0 0 Z " fill="#4B3D5B" transform="translate(55,81)"/>
<path d="M0 0 C2 3.75 2 3.75 2 6 C1.34 6 0.68 6 0 6 C0.33 7.32 0.66 8.64 1 10 C-0.32 10 -1.64 10 -3 10 C-3 7.69 -3 5.38 -3 3 C-2.01 2.67 -1.02 2.34 0 2 C0 1.34 0 0.68 0 0 Z " fill="#E2819C" transform="translate(28,53)"/>
<path d="M0 0 C-0.78697325 3.41021743 -1.87119943 6.68885166 -3 10 C-3.28875 9.360625 -3.5775 8.72125 -3.875 8.0625 C-4.82823451 5.84793921 -4.82823451 5.84793921 -7 5 C-5.53924541 2.07849082 -3.3640735 0 0 0 Z " fill="#354666" transform="translate(62,51)"/>
<path d="M0 0 C0.99 0.99 1.98 1.98 3 3 C3.33 2.34 3.66 1.68 4 1 C4.66 1.33 5.32 1.66 6 2 C5.34 3.32 4.68 4.64 4 6 C3.01 6 2.02 6 1 6 C-0.6875 4 -0.6875 4 -2 2 C-1.34 2 -0.68 2 0 2 C0 1.34 0 0.68 0 0 Z " fill="#D19075" transform="translate(18,125)"/>
<path d="M0 0 C0 3.92896395 -1.00299863 7.19893228 -2 11 C-2.33 10.01 -2.66 9.02 -3 8 C-4.32 8.33 -5.64 8.66 -7 9 C-6.02180976 7.68677212 -5.0424189 6.37443848 -4.0625 5.0625 C-3.51722656 4.33160156 -2.97195312 3.60070312 -2.41015625 2.84765625 C-1 1 -1 1 0 0 Z " fill="#BD6183" transform="translate(33,105)"/>
<path d="M0 0 C1.32 0 2.64 0 4 0 C4 1.32 4 2.64 4 4 C4.99 4 5.98 4 7 4 C7.33 4.99 7.66 5.98 8 7 C8.66 7.66 9.32 8.32 10 9 C7 9 7 9 5.17578125 7.28515625 C4.56089844 6.55167969 3.94601563 5.81820312 3.3125 5.0625 C2.68988281 4.33160156 2.06726563 3.60070312 1.42578125 2.84765625 C0 1 0 1 0 0 Z " fill="#1E748D" transform="translate(87,98)"/>
<path d="M0 0 C0 1.32 0 2.64 0 4 C-1.98 4 -3.96 4 -6 4 C-6.33 3.01 -6.66 2.02 -7 1 C-3.375 -1.125 -3.375 -1.125 0 0 Z " fill="#2CA2CD" transform="translate(237,93)"/>
<path d="M0 0 C2.31 0 4.62 0 7 0 C6.67 0.66 6.34 1.32 6 2 C6.39938767 4.09821215 6.39938767 4.09821215 7 6 C4.625 5.8125 4.625 5.8125 2 5 C0.6875 2.4375 0.6875 2.4375 0 0 Z " fill="#2CA4C9" transform="translate(142,82)"/>
<path d="M0 0 C0.99 0.33 1.98 0.66 3 1 C1.71034824 2.37562854 0.37310707 3.70766393 -1 5 C-1.66 5 -2.32 5 -3 5 C-3 5.66 -3 6.32 -3 7 C-4.65 7.33 -6.3 7.66 -8 8 C-7.04578192 6.85073734 -6.08647955 5.70569459 -5.125 4.5625 C-4.59132813 3.92441406 -4.05765625 3.28632812 -3.5078125 2.62890625 C-2 1 -2 1 0 0 Z " fill="#2188AD" transform="translate(117,51)"/>
<path d="M0 0 C2.97 0 5.94 0 9 0 C7 2 7 2 4.375 2.125 C3.59125 2.08375 2.8075 2.0425 2 2 C1.67 3.32 1.34 4.64 1 6 C0.01 5.67 -0.98 5.34 -2 5 C-1.34 3.35 -0.68 1.7 0 0 Z " fill="#227B93" transform="translate(197,50)"/>
<path d="M0 0 C1.80411967 2.75924185 2.0127245 3.88972103 1.625 7.25 C1.41875 8.1575 1.2125 9.065 1 10 C-0.32 9.67 -1.64 9.34 -3 9 C-3 7.02 -3 5.04 -3 3 C-2.01 3 -1.02 3 0 3 C0 2.01 0 1.02 0 0 Z " fill="#F69599" transform="translate(24,89)"/>
<path d="M0 0 C1.65 0 3.3 0 5 0 C5.33 0.99 5.66 1.98 6 3 C3 5 3 5 0.8125 4.625 C0.214375 4.41875 -0.38375 4.2125 -1 4 C-0.67 2.68 -0.34 1.36 0 0 Z " fill="#28A1CB" transform="translate(223,72)"/>
<path d="M0 0 C0 3.13751221 -0.35179805 4.39757586 -2 7 C-2.99 7.33 -3.98 7.66 -5 8 C-5.99 9.485 -5.99 9.485 -7 11 C-7.66 10.67 -8.32 10.34 -9 10 C-6.03 6.7 -3.06 3.4 0 0 Z " fill="#234C6C" transform="translate(75,35)"/>
<path d="M0 0 C1.32 0.33 2.64 0.66 4 1 C2.02 3.31 0.04 5.62 -2 8 C-2.66 6.68 -3.32 5.36 -4 4 C-3.34 4 -2.68 4 -2 4 C-1.34 2.68 -0.68 1.36 0 0 Z " fill="#7C5374" transform="translate(48,98)"/>
<path d="M0 0 C2.59482129 2.59482129 2.69990302 4.39883625 3 8 C2.34 8.66 1.68 9.32 1 10 C0.01 9.01 -0.98 8.02 -2 7 C-1.67 6.401875 -1.34 5.80375 -1 5.1875 C0.20787988 2.94613529 0.20787988 2.94613529 0 0 Z " fill="#2E82AB" transform="translate(80,80)"/>
<path d="M0 0 C1.65 0 3.3 0 5 0 C5.12375 0.639375 5.2475 1.27875 5.375 1.9375 C5.684375 2.9584375 5.684375 2.9584375 6 4 C6.66 4.33 7.32 4.66 8 5 C7.01 5.99 6.02 6.98 5 8 C1.125 2.25 1.125 2.25 0 0 Z " fill="#1E85A3" transform="translate(191,60)"/>
<path d="M0 0 C1.65 0 3.3 0 5 0 C5 1.32 5 2.64 5 4 C3.02 4.66 1.04 5.32 -1 6 C-0.67 4.02 -0.34 2.04 0 0 Z " fill="#23A3CB" transform="translate(248,52)"/>
<path d="M0 0 C5.21979128 -0.1799928 9.07262981 0.02905192 14 2 C14 2.33 14 2.66 14 3 C11.69 3.33 9.38 3.66 7 4 C6.67 3.01 6.34 2.02 6 1 C4.02 1 2.04 1 0 1 C0 0.67 0 0.34 0 0 Z " fill="#146281" transform="translate(365,48)"/>
<path d="M0 0 C0.99 1.32 1.98 2.64 3 4 C0.6875 5.5625 0.6875 5.5625 -2 7 C-2.99 6.67 -3.98 6.34 -5 6 C-3.35 4.02 -1.7 2.04 0 0 Z " fill="#C06F7C" transform="translate(26,85)"/>
<path d="M0 0 C4.29 0.33 8.58 0.66 13 1 C13 1.33 13 1.66 13 2 C12.09507812 2.09087891 12.09507812 2.09087891 11.171875 2.18359375 C9.97304687 2.30927734 9.97304687 2.30927734 8.75 2.4375 C7.96109375 2.51871094 7.1721875 2.59992187 6.359375 2.68359375 C4.17635361 2.97634993 2.1226818 3.42064419 0 4 C0 2.68 0 1.36 0 0 Z " fill="#166D8B" transform="translate(120,56)"/>
<path d="M0 0 C0.99 1.32 1.98 2.64 3 4 C1.68 5.32 0.36 6.64 -1 8 C-1.66 6.35 -2.32 4.7 -3 3 C-2.01 2.01 -1.02 1.02 0 0 Z " fill="#1C96AE" transform="translate(117,57)"/>
<path d="M0 0 C4.455 0.99 4.455 0.99 9 2 C9 2.66 9 3.32 9 4 C7.02 4.99 7.02 4.99 5 6 C3.35 4.02 1.7 2.04 0 0 Z " fill="#CE7B89" transform="translate(20,30)"/>
<path d="M0 0 C1.65 1.65 3.3 3.3 5 5 C4.34 6.65 3.68 8.3 3 10 C-0.00617269 6.99382731 0.40414684 4.17618402 0 0 Z " fill="#277197" transform="translate(81,80)"/>
<path d="M0 0 C1.32 0.33 2.64 0.66 4 1 C4.66 3.31 5.32 5.62 6 8 C1.3125 4.38671875 1.3125 4.38671875 0 3 C0 2.01 0 1.02 0 0 Z " fill="#2A5A75" transform="translate(71,80)"/>
<path d="M0 0 C2.31 1.98 4.62 3.96 7 6 C6.34 6.66 5.68 7.32 5 8 C3.5 6.625 3.5 6.625 2 5 C2 4.34 2 3.68 2 3 C1.34 3 0.68 3 0 3 C0 2.01 0 1.02 0 0 Z " fill="#2681A7" transform="translate(93,93)"/>
<path d="M0 0 C0.33 0.66 0.66 1.32 1 2 C1.66 2 2.32 2 3 2 C3 2.99 3 3.98 3 5 C1.35 5 -0.3 5 -2 5 C-2 3.68 -2 2.36 -2 1 C-1.34 0.67 -0.68 0.34 0 0 Z " fill="#22A5C8" transform="translate(353,85)"/>
<path d="M0 0 C0.93423645 3.01031744 1.04449911 3.86650268 0 7 C-0.66 7 -1.32 7 -2 7 C-2.33 7.66 -2.66 8.32 -3 9 C-3.99 8.67 -4.98 8.34 -6 8 C-4.73046875 6.50260417 -3.4609375 5.00520833 -2.19140625 3.5078125 C-0.9121848 1.99405921 -0.9121848 1.99405921 0 0 Z " fill="#1A7C8E" transform="translate(196,79)"/>
<path d="M0 0 C1.65 1.32 3.3 2.64 5 4 C4.625 5.9375 4.625 5.9375 4 8 C3.01 8.495 3.01 8.495 2 9 C1.34 6.03 0.68 3.06 0 0 Z " fill="#256480" transform="translate(81,108)"/>
<path d="M0 0 C2 3 2 3 1.625 6.1875 C1.41875 7.115625 1.2125 8.04375 1 9 C0.01 8.67 -0.98 8.34 -2 8 C-1.34 5.36 -0.68 2.72 0 0 Z " fill="#96648D" transform="translate(47,92)"/>
<path d="M0 0 C0.33 0 0.66 0 1 0 C0.67 2.64 0.34 5.28 0 8 C-1.65 6.35 -3.3 4.7 -5 3 C-4.34 2.67 -3.68 2.34 -3 2 C-2.34 2.33 -1.68 2.66 -1 3 C-0.67 2.01 -0.34 1.02 0 0 Z " fill="#B25981" transform="translate(37,68)"/>
<path d="M0 0 C0.66 0 1.32 0 2 0 C4 3 4 3 3.625 5.1875 C3.41875 5.785625 3.2125 6.38375 3 7 C2.34 6.34 1.68 5.68 1 5 C0.01 5 -0.98 5 -2 5 C-2 3 -2 3 0 1 C0 0.67 0 0.34 0 0 Z " fill="#27A3C8" transform="translate(116,53)"/>
<path d="M0 0 C1.14926266 0.95421808 2.29430541 1.91352045 3.4375 2.875 C4.07558594 3.40867188 4.71367188 3.94234375 5.37109375 4.4921875 C7 6 7 6 8 8 C6.35 7.67 4.7 7.34 3 7 C3 6.01 3 5.02 3 4 C2.01 3.67 1.02 3.34 0 3 C0 2.01 0 1.02 0 0 Z " fill="#684664" transform="translate(45,44)"/>
<path d="M0 0 C2.125 0.375 2.125 0.375 4 1 C2.35 2.65 0.7 4.3 -1 6 C-1.625 4.125 -1.625 4.125 -2 2 C-1.34 1.34 -0.68 0.68 0 0 Z " fill="#965279" transform="translate(41,105)"/>
<path d="M0 0 C3 2 3 2 3.6875 5.125 C3.8421875 6.548125 3.8421875 6.548125 4 8 C3.01 8.66 2.02 9.32 1 10 C0.67 6.7 0.34 3.4 0 0 Z " fill="#B8668B" transform="translate(37,63)"/>
<path d="M0 0 C1.98 0.495 1.98 0.495 4 1 C4 2.32 4 3.64 4 5 C2.35 5 0.7 5 -1 5 C-0.67 3.35 -0.34 1.7 0 0 Z " fill="#24A5C7" transform="translate(169,55)"/>
<path d="M0 0 C1.32 1.32 2.64 2.64 4 4 C3.01 5.485 3.01 5.485 2 7 C1.01 7 0.02 7 -1 7 C-0.67 4.69 -0.34 2.38 0 0 Z " fill="#C9608B" transform="translate(30,28)"/>
<path d="M0 0 C0.99 0 1.98 0 3 0 C3 0.99 3 1.98 3 3 C6.465 2.505 6.465 2.505 10 2 C10 2.66 10 3.32 10 4 C7.03 4 4.06 4 1 4 C0.67 2.68 0.34 1.36 0 0 Z " fill="#34A3C9" transform="translate(141,61)"/>
<path d="M0 0 C0.66 0 1.32 0 2 0 C2 0.66 2 1.32 2 2 C2.66 2.33 3.32 2.66 4 3 C2.02 3.99 0.04 4.98 -2 6 C-1.125 1.125 -1.125 1.125 0 0 Z " fill="#1E7F9E" transform="translate(274,56)"/>
<path d="M0 0 C0.99 0.33 1.98 0.66 3 1 C1.35 2.65 -0.3 4.3 -2 6 C-2.99 5.67 -3.98 5.34 -5 5 C-3.35 3.35 -1.7 1.7 0 0 Z " fill="#21789C" transform="translate(97,40)"/>
<path d="M0 0 C1.42944945 2.35438733 2.08661261 3.48032433 1.625 6.25 C1.41875 6.8275 1.2125 7.405 1 8 C0.34 8 -0.32 8 -1 8 C-1.04241723 5.66705225 -1.04092937 3.33297433 -1 1 C-0.67 0.67 -0.34 0.34 0 0 Z " fill="#F3919E" transform="translate(25,116)"/>
<path d="M0 0 C1.7074998 1.28062485 3.37373596 2.61767557 5 4 C5 4.66 5 5.32 5 6 C3.35 5.67 1.7 5.34 0 5 C0 3.35 0 1.7 0 0 Z " fill="#2F3856" transform="translate(57,82)"/>
<path d="M0 0 C0.99 0 1.98 0 3 0 C2.43628586 3.26954202 1.50037734 4.82575883 -1 7 C-1.33 6.01 -1.66 5.02 -2 4 C-1.34 4 -0.68 4 0 4 C0 2.68 0 1.36 0 0 Z " fill="#AB5D81" transform="translate(38,80)"/>
<path d="M0 0 C0.33 0 0.66 0 1 0 C1 1.65 1 3.3 1 5 C1.66 5.33 2.32 5.66 3 6 C2.01 6.495 2.01 6.495 1 7 C0.34227572 10.02934491 0.34227572 10.02934491 0 13 C-0.33 13 -0.66 13 -1 13 C-1.07654536 8.48382401 -1.10228696 4.40914783 0 0 Z " fill="#0D5979" transform="translate(345,65)"/>
<path d="M0 0 C0.99 0.99 1.98 1.98 3 3 C1.625 5 1.625 5 0 7 C-0.66 7 -1.32 7 -2 7 C-1.34 4.69 -0.68 2.38 0 0 Z " fill="#C9749D" transform="translate(38,40)"/>
</svg>
