<?xml version="1.0" encoding="UTF-8"?>
<svg version="1.1" xmlns="http://www.w3.org/2000/svg" width="90" height="90">
<path d="M0 0 C2.77096733 2.22882155 5.4164068 4.55720207 8 7 C7.5844157 11.46402906 4.47386326 13.90601071 1.43359375 16.859375 C0.88010757 17.40861633 0.3266214 17.95785767 -0.24363708 18.52374268 C-2.00966559 20.27300464 -3.78584692 22.01153644 -5.5625 23.75 C-6.76305441 24.935505 -7.9629326 26.12169524 -9.16210938 27.30859375 C-12.10029095 30.21373293 -15.04762074 33.10929337 -18 36 C-16.63734541 40.10286357 -14.86551964 42.49103922 -11.7890625 45.50390625 C-10.95632812 46.32697266 -10.12359375 47.15003906 -9.265625 47.99804688 C-7.95851563 49.26745117 -7.95851563 49.26745117 -6.625 50.5625 C-5.76132813 51.41263672 -4.89765625 52.26277344 -4.0078125 53.13867188 C-2.39744377 54.72294667 -0.78400776 56.30411418 0.83349609 57.88110352 C2.90402626 59.90613521 4.95603032 61.9481979 7 64 C4.48844998 69.9649313 -0.99547026 73.53501761 -6.67578125 76.3046875 C-18.47748216 81.09530387 -31.0367613 81.94569645 -43 77 C-45.02717912 76.05631317 -47.04290043 75.08155503 -49 74 C-45.08178637 69.31991149 -41.01337545 64.79741722 -36.875 60.3125 C-36.3603418 59.75409424 -35.84568359 59.19568848 -35.31542969 58.62036133 C-32.59982135 55.68664418 -29.85130101 52.80355195 -27 50 C-23.96132181 51.34603045 -21.99614388 52.80424173 -19.765625 55.2578125 C-19.19199219 55.88300781 -18.61835937 56.50820312 -18.02734375 57.15234375 C-17.44082031 57.80332031 -16.85429688 58.45429687 -16.25 59.125 C-15.64800781 59.78371094 -15.04601563 60.44242187 -14.42578125 61.12109375 C-12.94519785 62.74268509 -11.47022875 64.36902454 -10 66 C-9.34 65.67 -8.68 65.34 -8 65 C-9.33999498 61.993182 -10.79845291 60.00237391 -13.1875 57.75 C-16.52588065 54.54376358 -19.44511228 51.12512131 -22.32421875 47.50390625 C-24.12088471 45.55472684 -24.12088471 45.55472684 -28 46 C-30.67795288 48.15123622 -30.67795288 48.15123622 -33.3125 51 C-33.7981543 51.50039795 -34.28380859 52.0007959 -34.78417969 52.51635742 C-38.10882096 55.96967667 -41.25573767 59.55773673 -44.36328125 63.20703125 C-47.00704872 66.10318703 -49.96509334 68.52252518 -53 71 C-61.96851635 64.65641527 -67.17029639 54.65148783 -69.6875 44.125 C-70.98635383 31.13646173 -68.88529223 19.66499956 -61 9 C-59.09140272 6.8360575 -57.14448143 4.9402451 -55 3 C-50.91872866 4.61692373 -48.19394385 7.54274354 -45.1875 10.625 C-44.65632568 11.16261963 -44.12515137 11.70023926 -43.57788086 12.25415039 C-40.07318154 15.82724452 -36.71470715 19.49777641 -33.46875 23.30859375 C-31.42440477 25.66285302 -29.23766801 27.83014011 -27 30 C-23.81274721 28.60322044 -21.77202992 26.97710155 -19.3984375 24.4453125 C-18.74359375 23.74792969 -18.08875 23.05054687 -17.4140625 22.33203125 C-16.40472656 21.23955078 -16.40472656 21.23955078 -15.375 20.125 C-14.694375 19.40441406 -14.01375 18.68382813 -13.3125 17.94140625 C-10.34182873 14.75351198 -7.80056293 12.00655798 -6 8 C-8.99966687 7.68356446 -8.99966687 7.68356446 -10.796875 9.46875 C-11.44140625 10.1390625 -12.0859375 10.809375 -12.75 11.5 C-13.801875 12.5828125 -13.801875 12.5828125 -14.875 13.6875 C-17.49373796 16.53730308 -19.95612755 19.49802506 -22.359375 22.53125 C-24 24 -24 24 -28 24 C-30.33203125 22.09375 -30.33203125 22.09375 -32.8125 19.5 C-33.6890625 18.58863281 -34.565625 17.67726563 -35.46875 16.73828125 C-38.19120035 13.79316135 -40.85301816 10.80841125 -43.4609375 7.76171875 C-45.53424056 5.38847084 -47.73833739 3.19312738 -50 1 C-49 -2 -49 -2 -46.453125 -3.3515625 C-45.39609375 -3.77179687 -44.3390625 -4.19203125 -43.25 -4.625 C-42.20328125 -5.05039063 -41.1565625 -5.47578125 -40.078125 -5.9140625 C-26.49615639 -10.70567072 -11.76134604 -8.0618681 0 0 Z M-54 15 C-54.99 15.99 -55.98 16.98 -57 18 C-55.10548397 20.06372321 -53.20943437 22.12600157 -51.3125 24.1875 C-50.78205078 24.76564453 -50.25160156 25.34378906 -49.70507812 25.93945312 C-48.91713867 26.79506836 -48.91713867 26.79506836 -48.11328125 27.66796875 C-47.33525146 28.5175415 -47.33525146 28.5175415 -46.54150391 29.38427734 C-45.11093462 30.88372421 -43.57963625 32.28526971 -42.04296875 33.67578125 C-40 36 -40 36 -39.859375 37.98046875 C-41.51317502 40.90860098 -43.81692431 43.0406546 -46.25 45.3125 C-50.36329857 49.27180708 -53.90292368 53.19419192 -57 58 C-55.68 58.66 -54.36 59.32 -53 60 C-46.29224272 52.7029631 -39.6143744 45.38196846 -33 38 C-36.10690161 32.91527129 -39.80222337 28.95775358 -44.0625 24.8125 C-44.68705078 24.19697266 -45.31160156 23.58144531 -45.95507812 22.94726562 C-47.11365571 21.8059987 -48.27429099 20.66681374 -49.43774414 19.53051758 C-50.96888386 18.03048399 -52.48690528 16.51821325 -54 15 Z " fill="#43678B" transform="translate(71,9)"/>
<path d="M0 0 C4.081391 1.61697114 6.80576503 4.5429427 9.8125 7.625 C10.34512451 8.16334473 10.87774902 8.70168945 11.42651367 9.25634766 C14.90298658 12.79681771 18.18612766 16.46020695 21.3984375 20.2421875 C24.02727601 23.12749806 26.97927892 25.53410524 30 28 C29.01 28.33 28.02 28.66 27 29 C27 32.63 27 36.26 27 40 C27.99 40.33 28.98 40.66 30 41 C29.51821289 41.40379883 29.03642578 41.80759766 28.54003906 42.22363281 C23.23653879 46.75450546 18.46374026 51.61507002 13.75 56.75 C12.3727747 58.24754053 10.99266556 59.74243519 9.609375 61.234375 C9.01092773 61.88631836 8.41248047 62.53826172 7.79589844 63.20996094 C5.98003763 65.01989724 4.08545968 66.51366522 2 68 C-6.96851635 61.65641527 -12.17029639 51.65148783 -14.6875 41.125 C-15.98635383 28.13646173 -13.88529223 16.66499956 -6 6 C-4.09140272 3.8360575 -2.14448143 1.9402451 0 0 Z M1 12 C0.01 12.99 -0.98 13.98 -2 15 C-0.10548397 17.06372321 1.79056563 19.12600157 3.6875 21.1875 C4.21794922 21.76564453 4.74839844 22.34378906 5.29492188 22.93945312 C6.08286133 23.79506836 6.08286133 23.79506836 6.88671875 24.66796875 C7.66474854 25.5175415 7.66474854 25.5175415 8.45849609 26.38427734 C9.88906538 27.88372421 11.42036375 29.28526971 12.95703125 30.67578125 C15 33 15 33 15.140625 34.98046875 C13.48682498 37.90860098 11.18307569 40.0406546 8.75 42.3125 C4.63670143 46.27180708 1.09707632 50.19419192 -2 55 C-0.68 55.66 0.64 56.32 2 57 C8.70775728 49.7029631 15.3856256 42.38196846 22 35 C18.89309839 29.91527129 15.19777663 25.95775358 10.9375 21.8125 C10.31294922 21.19697266 9.68839844 20.58144531 9.04492188 19.94726562 C7.88634429 18.8059987 6.72570901 17.66681374 5.56225586 16.53051758 C4.03111614 15.03048399 2.51309472 13.51821325 1 12 Z " fill="#EF9E90" transform="translate(16,12)"/>
<path d="M0 0 C0.99 0 1.98 0 3 0 C8.89539979 11.00474628 11.05643684 22.02461557 8.20703125 34.4609375 C6.62544596 39.36930565 4.75241614 43.63083512 2 48 C-1.41863002 47.42558471 -2.93684386 46.38918068 -5.2421875 43.83203125 C-5.83386719 43.18556641 -6.42554687 42.53910156 -7.03515625 41.87304688 C-7.64230469 41.19306641 -8.24945313 40.51308594 -8.875 39.8125 C-10.07969835 38.48474107 -11.28541752 37.1579076 -12.4921875 35.83203125 C-13.07323242 35.18443848 -13.65427734 34.5368457 -14.25292969 33.86962891 C-15.93319916 32.07148698 -17.69602878 30.42539884 -19.5078125 28.76171875 C-20.33023438 27.85035156 -21.15265625 26.93898438 -22 26 C-21.80398263 22.20240612 -19.70364712 20.36617756 -17.0703125 17.8125 C-16.27496094 17.03132813 -15.47960937 16.25015625 -14.66015625 15.4453125 C-13.82355469 14.63835938 -12.98695312 13.83140625 -12.125 13 C-10.47957902 11.39808159 -8.83626781 9.7939926 -7.1953125 8.1875 C-6.46328613 7.47980469 -5.73125977 6.77210937 -4.97705078 6.04296875 C-2.95132181 4.05879051 -2.95132181 4.05879051 -1.42529297 1.73828125 C-0.95494629 1.16464844 -0.48459961 0.59101563 0 0 Z " fill="#3780A4" transform="translate(80,22)"/>
<path d="M0 0 C3.66786393 1.50349377 5.68910393 3.63728792 8.25 6.625 C8.95640625 7.44226563 9.6628125 8.25953125 10.390625 9.1015625 C10.92171875 9.72804688 11.4528125 10.35453125 12 11 C11.34 11.66 10.68 12.32 10 13 C9.34 12.34 8.68 11.68 8 11 C8 10.01 8 9.02 8 8 C7.01 8 6.02 8 5 8 C4.97104775 11.29164829 4.9532177 14.58326399 4.9375 17.875 C4.92912109 18.81214844 4.92074219 19.74929687 4.91210938 20.71484375 C4.90888672 21.61074219 4.90566406 22.50664063 4.90234375 23.4296875 C4.89710693 24.25710449 4.89187012 25.08452148 4.88647461 25.93701172 C4.86647862 28.06411757 4.86647862 28.06411757 6 30 C-4.46367976 30.48542844 -12.76787137 29.10196582 -22 24 C-18.08178637 19.31991149 -14.01337545 14.79741722 -9.875 10.3125 C-9.3603418 9.75409424 -8.84568359 9.19568848 -8.31542969 8.62036133 C-5.59982135 5.68664418 -2.85130101 2.80355195 0 0 Z " fill="#A1628D" transform="translate(44,59)"/>
<path d="M0 0 C1.60294922 0.01353516 1.60294922 0.01353516 3.23828125 0.02734375 C4.04652344 0.03894531 4.85476562 0.05054687 5.6875 0.0625 C5.6875 0.3925 5.6875 0.7225 5.6875 1.0625 C4.0375 1.3925 2.3875 1.7225 0.6875 2.0625 C0.6875 11.3025 0.6875 20.5425 0.6875 30.0625 C1.3475 30.3925 2.0075 30.7225 2.6875 31.0625 C0.7075 32.0525 0.7075 32.0525 -1.3125 33.0625 C-7.00672734 27.46094544 -12.6177784 21.86794505 -17.80859375 15.7890625 C-19.86748359 13.42535001 -22.06282538 11.24400266 -24.3125 9.0625 C-23.3125 6.0625 -23.3125 6.0625 -20.765625 4.7109375 C-19.70859375 4.29070313 -18.6515625 3.87046875 -17.5625 3.4375 C-16.51578125 3.01210938 -15.4690625 2.58671875 -14.390625 2.1484375 C-9.45916311 0.4086578 -5.22370103 -0.05740331 0 0 Z " fill="#A96A96" transform="translate(45.3125,0.9375)"/>
<path d="M0 0 C0.82638376 2.89234315 1 4.88742431 1 8 C3.31 6.35 5.62 4.7 8 3 C6.83505453 7.65978186 5.34815157 8.96886685 1.9375 12.25 C1.01839844 13.14203125 0.09929688 14.0340625 -0.84765625 14.953125 C-1.55792969 15.62859375 -2.26820312 16.3040625 -3 17 C-1.52069807 20.96479572 0.23647057 23.77588233 3 27 C2.34 27.33 1.68 27.66 1 28 C0.53476937 29.89533342 0.53476937 29.89533342 0.375 32.0625 C0.25125 33.361875 0.1275 34.66125 0 36 C-1.66666667 34.33333333 -3.33333333 32.66666667 -5 31 C-5.928125 30.113125 -6.85625 29.22625 -7.8125 28.3125 C-10 26 -10 26 -10 24 C-10.99 24 -11.98 24 -13 24 C-13 20.37 -13 16.74 -13 13 C-12.01 13 -11.02 13 -10 13 C-9.63261719 12.15695313 -9.63261719 12.15695313 -9.2578125 11.296875 C-7.77073461 8.58134146 -5.95937218 6.53608562 -3.875 4.25 C-3.15054688 3.45078125 -2.42609375 2.6515625 -1.6796875 1.828125 C-0.84824219 0.92320313 -0.84824219 0.92320313 0 0 Z " fill="#695B86" transform="translate(56,28)"/>
<path d="M0 0 C3.39556128 1.46176629 5.56484963 3.35223992 8.125 6 C8.80820312 6.70125 9.49140625 7.4025 10.1953125 8.125 C10.79085937 8.74375 11.38640625 9.3625 12 10 C12.66 10.66 13.32 11.32 14 12 C13.01 12 12.02 12 11 12 C11 15.63 11 19.26 11 23 C11.99 23.33 12.98 23.66 14 24 C13.46890625 24.45890625 12.9378125 24.9178125 12.390625 25.390625 C7.8947499 29.29279373 7.8947499 29.29279373 3.625 33.4375 C2 35 2 35 0 35 C-1.87443946 26.68430493 -1.87443946 26.68430493 0.26953125 22.5546875 C1.76429233 20.60134633 3.2937979 18.77049377 5 17 C4.175 16.236875 3.35 15.47375 2.5 14.6875 C-0.80283447 10.82643999 -0.40334296 7.07163489 -0.17578125 2.1953125 C-0.11777344 1.47085937 -0.05976563 0.74640625 0 0 Z " fill="#C47BA4" transform="translate(32,29)"/>
<path d="M0 0 C7 0 7 0 9 1 C9.34495054 4.35088376 9.61613553 7.7039566 9.875 11.0625 C10.02195312 12.47692383 10.02195312 12.47692383 10.171875 13.91992188 C10.52415944 18.97520365 10.47800988 22.15482878 7.1953125 26.18359375 C5.60986328 27.85327148 5.60986328 27.85327148 4 29 C3.01 29 2.02 29 1 29 C0.67 19.43 0.34 9.86 0 0 Z " fill="#85628D" transform="translate(45,2)"/>
<path d="M0 0 C0.33 0.66 0.66 1.32 1 2 C0.33844076 3.33587484 -0.32900201 4.66884114 -1 6 C-1.36008661 8.21604163 -1.36008661 8.21604163 -1.4140625 10.546875 C-1.45273437 11.39121094 -1.49140625 12.23554687 -1.53125 13.10546875 C-1.57765625 14.41451172 -1.57765625 14.41451172 -1.625 15.75 C-1.66367187 16.63816406 -1.70234375 17.52632812 -1.7421875 18.44140625 C-1.83620873 20.6273998 -1.92186143 22.81339062 -2 25 C-8.32278971 24.67373505 -13.55464391 24.38495108 -19 21 C-12.96144069 13.78727638 -6.65448468 6.65448468 0 0 Z " fill="#C4719E" transform="translate(41,62)"/>
<path d="M0 0 C0 6.6 0 13.2 0 20 C-4.66666667 15.33333333 -9.33333333 10.66666667 -14 6 C-13 3 -13 3 -11.3125 1.875 C-7.57902694 0.46233452 -3.97746406 0 0 0 Z " fill="#E37EA1" transform="translate(35,4)"/>
<path d="M0 0 C0 0.33 0 0.66 0 1 C-1.65 1.33 -3.3 1.66 -5 2 C-5 11.24 -5 20.48 -5 30 C-4.34 30.33 -3.68 30.66 -3 31 C-4.98 31.99 -4.98 31.99 -7 33 C-8.86277616 29.06782575 -9.18972695 26.15145715 -8.9765625 21.82421875 C-8.925 20.66728516 -8.8734375 19.51035156 -8.8203125 18.31835938 C-8.72363281 16.52108398 -8.72363281 16.52108398 -8.625 14.6875 C-8.56828125 13.46998047 -8.5115625 12.25246094 -8.453125 10.99804688 C-8.31194999 7.99807798 -8.1605635 4.9989834 -8 2 C-8.74765625 2.15597656 -9.4953125 2.31195313 -10.265625 2.47265625 C-11.74289063 2.76462891 -11.74289063 2.76462891 -13.25 3.0625 C-14.71179688 3.35833984 -14.71179688 3.35833984 -16.203125 3.66015625 C-18.868119 3.98397535 -20.48871723 3.85503199 -23 3 C-15.1768938 0.41283102 -8.2236194 -0.38750039 0 0 Z " fill="#9B698F" transform="translate(51,1)"/>
<path d="M0 0 C0.99 0 1.98 0 3 0 C5.47045803 3.81615468 5.43831912 7.84744248 5.625 12.25 C5.66367187 12.99507812 5.70234375 13.74015625 5.7421875 14.5078125 C5.83605108 16.3381524 5.91909718 18.16904143 6 20 C5.34 20 4.68 20 4 20 C4 20.66 4 21.32 4 22 C2.35 21.67 0.7 21.34 -1 21 C-0.67 14.07 -0.34 7.14 0 0 Z " fill="#695782" transform="translate(49,67)"/>
<path d="M0 0 C1.32 0.33 2.64 0.66 4 1 C4.22580354 4.43658708 4.42762697 7.87417218 4.625 11.3125 C4.68945312 12.28896484 4.75390625 13.26542969 4.8203125 14.27148438 C4.871875 15.20927734 4.9234375 16.14707031 4.9765625 17.11328125 C5.02893066 17.97735596 5.08129883 18.84143066 5.13525391 19.73168945 C5 22 5 22 3 25 C2.01 25 1.02 25 0 25 C0 16.75 0 8.5 0 0 Z " fill="#605782" transform="translate(50,2)"/>
<path d="M0 0 C0.33 0.66 0.66 1.32 1 2 C-0.43257963 4.72872311 -1.81722366 6.81722366 -4 9 C-4.24315656 11.66949409 -4.24315656 11.66949409 -4.125 14.625 C-4.09792969 16.12933594 -4.09792969 16.12933594 -4.0703125 17.6640625 C-4.04710937 18.43492188 -4.02390625 19.20578125 -4 20 C-8.67312888 19.55066068 -11.38775335 18.98090266 -15 16 C-14.41992188 15.43152344 -13.83984375 14.86304687 -13.2421875 14.27734375 C-8.59383097 9.68268111 -4.17366549 5.029802 0 0 Z " fill="#E37CA3" transform="translate(37,66)"/>
<path d="M0 0 C1.65 0 3.3 0 5 0 C4.67 8.25 4.34 16.5 4 25 C0 22 0 22 -0.75756836 20.08300781 C-1.01304341 17.88792911 -1.02067924 15.8772327 -0.87890625 13.671875 C-0.83056641 12.87265625 -0.78222656 12.0734375 -0.73242188 11.25 C-0.67634766 10.425 -0.62027344 9.6 -0.5625 8.75 C-0.51029297 7.90953125 -0.45808594 7.0690625 -0.40429688 6.203125 C-0.27504311 4.1350648 -0.13825726 2.0674778 0 0 Z " fill="#C1719E" transform="translate(35,3)"/>
<path d="M0 0 C4.87685861 1.35468295 6.48592381 3.71675909 9 8 C8.01 8 7.02 8 6 8 C5.67 6.68 5.34 5.36 5 4 C4.01 4 3.02 4 2 4 C2 10.6 2 17.2 2 24 C1.01 24.33 0.02 24.66 -1 25 C-1.02886984 21.02084841 -1.04675406 17.04172347 -1.0625 13.0625 C-1.07087891 11.92619141 -1.07925781 10.78988281 -1.08789062 9.61914062 C-1.09111328 8.53955078 -1.09433594 7.45996094 -1.09765625 6.34765625 C-1.10289307 5.34742432 -1.10812988 4.34719238 -1.11352539 3.31665039 C-1 1 -1 1 0 0 Z " fill="#85658F" transform="translate(47,63)"/>
<path d="M0 0 C0.33 0 0.66 0 1 0 C1.042721 1.66611905 1.04063832 3.33382885 1 5 C0.67 5.33 0.34 5.66 0 6 C-0.23287008 7.68183948 -0.41264166 9.3712416 -0.5625 11.0625 C-0.68818359 12.44115234 -0.68818359 12.44115234 -0.81640625 13.84765625 C-0.87699219 14.55792969 -0.93757813 15.26820312 -1 16 C-0.34 16 0.32 16 1 16 C1 17.65 1 19.3 1 21 C-1 19.625 -1 19.625 -3 18 C-3 17.34 -3 16.68 -3 16 C-3.99 16 -4.98 16 -6 16 C-6 12.37 -6 8.74 -6 5 C-5.01 5 -4.02 5 -3 5 C-2.5359375 4.0409375 -2.5359375 4.0409375 -2.0625 3.0625 C-1 1 -1 1 0 0 Z " fill="#927198" transform="translate(49,36)"/>
<path d="M0 0 C7.75 0.75 7.75 0.75 10 3 C8.68 3.33 7.36 3.66 6 4 C6.02320313 4.80824219 6.04640625 5.61648437 6.0703125 6.44921875 C6.08835937 7.51785156 6.10640625 8.58648437 6.125 9.6875 C6.14820313 10.74324219 6.17140625 11.79898437 6.1953125 12.88671875 C5.99858729 16.02251859 5.33057654 18.17645373 4 21 C3.34 21 2.68 21 2 21 C2 14.4 2 7.8 2 1 C1.34 0.67 0.68 0.34 0 0 Z " fill="#4E5078" transform="translate(52,2)"/>
<path d="M0 0 C0.82638376 2.89234315 1 4.88742431 1 8 C3.31 6.35 5.62 4.7 8 3 C6.92987535 7.28049858 6.07032338 8.28933102 3 11.25 C2.278125 11.95640625 1.55625 12.6628125 0.8125 13.390625 C-1 15 -1 15 -2 15 C-2 12.03 -2 9.06 -2 6 C-2.66 5.67 -3.32 5.34 -4 5 C-2.68 3.35 -1.36 1.7 0 0 Z " fill="#5B6E91" transform="translate(56,28)"/>
<path d="M0 0 C1.46726798 3.81489674 0.43336419 6.29011622 -1 10 C-0.34 10 0.32 10 1 10 C1.33 9.34 1.66 8.68 2 8 C1.62403791 10.78211944 1.32681541 12.5879284 -0.4375 14.8125 C-2 16 -2 16 -4 16 C-5.72107623 7.37757848 -5.72107623 7.37757848 -3.953125 4 C-2.5625 2.375 -2.5625 2.375 0 0 Z " fill="#DA84AD" transform="translate(36,48)"/>
<path d="M0 0 C0.99 0 1.98 0 3 0 C3 6.6 3 13.2 3 20 C-1 16 -1 16 -1.171875 12.109375 C-1.05282533 10.65432351 -0.91150184 9.20095307 -0.75 7.75 C-0.68425781 7.00492188 -0.61851563 6.25984375 -0.55078125 5.4921875 C-0.38632189 3.65964035 -0.19571111 1.82947345 0 0 Z " fill="#DB79A7" transform="translate(32,4)"/>
<path d="M0 0 C0.66 0 1.32 0 2 0 C2 4.62 2 9.24 2 14 C2.99 14.33 3.98 14.66 5 15 C2 17 2 17 -0.1875 16.625 C-1.0846875 16.315625 -1.0846875 16.315625 -2 16 C-1.67 15.67 -1.34 15.34 -1 15 C-0.95334266 12.66713319 -0.96237049 10.33302989 -1 8 C-1.03762951 5.66697011 -1.04665734 3.33286681 -1 1 C-0.67 0.67 -0.34 0.34 0 0 Z " fill="#464C73" transform="translate(55,71)"/>
<path d="M0 0 C4 5 4 5 8 10 C7.01 10.495 7.01 10.495 6 11 C5.53476937 12.89533342 5.53476937 12.89533342 5.375 15.0625 C5.189375 17.0115625 5.189375 17.0115625 5 19 C3.29115995 17.37660195 1.62553283 15.70680947 0 14 C0 13.34 0 12.68 0 12 C0.99 11.34 1.98 10.68 3 10 C2.71125 9.4225 2.4225 8.845 2.125 8.25 C1.75375 7.5075 1.3825 6.765 1 6 C0.608125 5.29875 0.21625 4.5975 -0.1875 3.875 C-0.5896875 2.946875 -0.5896875 2.946875 -1 2 C-0.67 1.34 -0.34 0.68 0 0 Z " fill="#686B8F" transform="translate(51,45)"/>
<path d="M0 0 C3.16115776 1.36983503 3.9927092 1.9890638 6 5 C5.01 5 4.02 5 3 5 C2.67 12.92 2.34 20.84 2 29 C3.32 29.33 4.64 29.66 6 30 C3.36 30 0.72 30 -2 30 C-1.34 29.34 -0.68 28.68 0 28 C0.27827252 25.3784358 0.27827252 25.3784358 0.1953125 22.3359375 C0.18886719 21.21445313 0.18242188 20.09296875 0.17578125 18.9375 C0.15902344 17.761875 0.14226563 16.58625 0.125 15.375 C0.11146484 13.59996094 0.11146484 13.59996094 0.09765625 11.7890625 C0.07402812 8.85917477 0.04108514 5.9296866 0 3 C-0.66 2.67 -1.32 2.34 -2 2 C-1.34 1.34 -0.68 0.68 0 0 Z " fill="#A27B9F" transform="translate(44,59)"/>
<path d="M0 0 C0.33 0 0.66 0 1 0 C1 8.91 1 17.82 1 27 C-1 26 -1 26 -1.63037109 24.24682617 C-2.03748759 21.77212796 -2.033854 19.5557493 -1.9140625 17.05078125 C-1.87023438 16.12072266 -1.82640625 15.19066406 -1.78125 14.23242188 C-1.7296875 13.26884766 -1.678125 12.30527344 -1.625 11.3125 C-1.58117188 10.33732422 -1.53734375 9.36214844 -1.4921875 8.35742188 C-1.13006525 1.13006525 -1.13006525 1.13006525 0 0 Z " fill="#B66E99" transform="translate(40,3)"/>
<path d="M0 0 C0.33 0 0.66 0 1 0 C1.33 7.59 1.66 15.18 2 23 C1.01 23 0.02 23 -1 23 C-1.02887512 19.35418313 -1.04675585 15.70839537 -1.0625 12.0625 C-1.07087891 11.02158203 -1.07925781 9.98066406 -1.08789062 8.90820312 C-1.09272461 7.42416992 -1.09272461 7.42416992 -1.09765625 5.91015625 C-1.10289307 4.99371338 -1.10812988 4.07727051 -1.11352539 3.13305664 C-1 1 -1 1 0 0 Z " fill="#705C87" transform="translate(51,4)"/>
<path d="M0 0 C0.99 0.33 1.98 0.66 3 1 C2.67 8.26 2.34 15.52 2 23 C0 22 0 22 -0.63256836 20.20800781 C-1.01128192 17.93220352 -1.02674543 15.97159552 -0.87890625 13.671875 C-0.83056641 12.87265625 -0.78222656 12.0734375 -0.73242188 11.25 C-0.67634766 10.425 -0.62027344 9.6 -0.5625 8.75 C-0.51029297 7.90953125 -0.45808594 7.0690625 -0.40429688 6.203125 C-0.27504311 4.1350648 -0.13825726 2.0674778 0 0 Z " fill="#CE74A2" transform="translate(35,3)"/>
<path d="M0 0 C3.41780584 4.55707445 3.4074163 6.03552112 3.375 11.5625 C3.38660156 12.23474609 3.39820312 12.90699219 3.41015625 13.59960938 C3.38424771 17.94792529 3.22341889 18.77658111 0 22 C0 14.74 0 7.48 0 0 Z " fill="#3E9FBC" transform="translate(86,34)"/>
<path d="M0 0 C0.33 0 0.66 0 1 0 C1 4.29 1 8.58 1 13 C1.99 13.33 2.98 13.66 4 14 C-0.875 13.125 -0.875 13.125 -2 12 C-2.1245486 10.35769636 -2.17568524 8.70947724 -2.1875 7.0625 C-2.20167969 6.16660156 -2.21585938 5.27070312 -2.23046875 4.34765625 C-2 2 -2 2 0 0 Z " fill="#D871A1" transform="translate(34,73)"/>
<path d="M0 0 C2.475 0.495 2.475 0.495 5 1 C4.01 1.33 3.02 1.66 2 2 C2 5.63 2 9.26 2 13 C2.99 13.33 3.98 13.66 5 14 C3.35 14.33 1.7 14.66 0 15 C0 10.05 0 5.1 0 0 Z " fill="#B27AA1" transform="translate(41,39)"/>
<path d="M0 0 C0.33 0 0.66 0 1 0 C1 9.24 1 18.48 1 28 C1.66 28.33 2.32 28.66 3 29 C1.02 29.99 1.02 29.99 -1 31 C-1.33 30.34 -1.66 29.68 -2 29 C-1.34 29 -0.68 29 0 29 C0 19.43 0 9.86 0 0 Z " fill="#9D7299" transform="translate(45,3)"/>
<path d="M0 0 C1.31157516 2.62315032 0.89649988 4.23033436 0.5625 7.125 C0.46066406 8.03507812 0.35882813 8.94515625 0.25390625 9.8828125 C0.12822266 10.93082031 0.12822266 10.93082031 0 12 C-0.99 12 -1.98 12 -3 12 C-3 8.37 -3 4.74 -3 1 C-2.01 0.67 -1.02 0.34 0 0 Z " fill="#986390" transform="translate(46,40)"/>
<path d="M0 0 C0.66 0 1.32 0 2 0 C2.33 3.3 2.66 6.6 3 10 C1.33333333 10 -0.33333333 10 -2 10 C-2.22036864 6.14354879 -1.60355101 3.50776784 0 0 Z " fill="#C5719E" transform="translate(37,48)"/>
<path d="M0 0 C1.98 0.99 1.98 0.99 4 2 C4 4.83967231 3.59732819 7.23735711 3 10 C2.01 10.33 1.02 10.66 0 11 C0 7.37 0 3.74 0 0 Z " fill="#DA79A6" transform="translate(32,29)"/>
<path d="M0 0 C0.33 0.66 0.66 1.32 1 2 C-1.16252661 6.86568488 -4.93525257 9.75933835 -9 13 C-9.66 12.67 -10.32 12.34 -11 12 C-7.37 8.04 -3.74 4.08 0 0 Z " fill="#E59CBD" transform="translate(37,66)"/>
<path d="M0 0 C1.40540737 2.81081473 0.93623713 4.94771718 0.6875 8.0625 C0.56955078 9.68865234 0.56955078 9.68865234 0.44921875 11.34765625 C0.30097656 12.22292969 0.15273438 13.09820312 0 14 C-0.99 14.495 -0.99 14.495 -2 15 C-2 12.03 -2 9.06 -2 6 C-2.66 5.67 -3.32 5.34 -4 5 C-2.68 3.35 -1.36 1.7 0 0 Z " fill="#6E7093" transform="translate(56,28)"/>
<path d="M0 0 C2.97 0.495 2.97 0.495 6 1 C4.02 1.99 4.02 1.99 2 3 C2.02320313 3.83144531 2.04640625 4.66289063 2.0703125 5.51953125 C2.08835938 6.60621094 2.10640625 7.69289063 2.125 8.8125 C2.14820313 9.89144531 2.17140625 10.97039063 2.1953125 12.08203125 C2 15 2 15 0 18 C0 12.06 0 6.12 0 0 Z " fill="#37456A" transform="translate(56,3)"/>
<path d="M0 0 C0.33 0 0.66 0 1 0 C2.11658501 4.68965706 1.80619523 7.53763531 0 12 C-0.66 11.67 -1.32 11.34 -2 11 C-1.85957123 9.35369672 -1.71250671 7.70795821 -1.5625 6.0625 C-1.48128906 5.14597656 -1.40007813 4.22945312 -1.31640625 3.28515625 C-1 1 -1 1 0 0 Z " fill="#7A5B87" transform="translate(49,41)"/>
<path d="M0 0 C0.66 0.33 1.32 0.66 2 1 C1.34 3.64 0.68 6.28 0 9 C-0.66 9 -1.32 9 -2 9 C-2.33 9.99 -2.66 10.98 -3 12 C-2.49202991 7.6822542 -1.80317221 3.96697886 0 0 Z " fill="#9E7047" transform="translate(5,26)"/>
<path d="M0 0 C0.99 0.33 1.98 0.66 3 1 C-1.5 5.875 -1.5 5.875 -6 7 C-4.02 4.69 -2.04 2.38 0 0 Z " fill="#CC8E78" transform="translate(16,12)"/>
<path d="M0 0 C4 4.625 4 4.625 4 8 C2.35 6.68 0.7 5.36 -1 4 C-0.67 2.68 -0.34 1.36 0 0 Z " fill="#8C85A4" transform="translate(51,45)"/>
</svg>
